<?xml version="1.0" encoding="utf-8"?>
<!-- Generator: Adobe Illustrator 16.0.0, SVG Export Plug-In . SVG Version: 6.00 Build 0)  -->
<!DOCTYPE svg PUBLIC "-//W3C//DTD SVG 1.1//EN" "http://www.w3.org/Graphics/SVG/1.1/DTD/svg11.dtd">
<svg version="1.1" id="Layer_1" xmlns="http://www.w3.org/2000/svg" xmlns:xlink="http://www.w3.org/1999/xlink" x="0px" y="0px"
	 width="612px" height="792px" viewBox="0 0 612 792" enable-background="new 0 0 612 792" xml:space="preserve">
<g>
	<g>
		<path fill-rule="evenodd" clip-rule="evenodd" fill="#FFFFFF" d="M-0.665,0.335c140,0,280,0,420,0c0,140,0,280,0,420
			c-140,0-280,0-420,0C-0.665,280.335-0.665,140.335-0.665,0.335z M122.926,222.467c-0.038,0.018-0.226,0.142-0.433,0.199
			c-9.329,2.556-18.409,5.781-26.988,10.282c-8.486,4.452-16.18,9.917-21.783,17.891c-4.992,7.104-7.513,14.791-5.213,23.503
			c0.326,1.236,0.209,2.093-0.613,3.139c-7.15,9.093-8.38,21.783-1.095,30.981c0.358,0.453,0.453,1.358,0.286,1.943
			c-1.453,5.095-2.199,10.234-1.455,15.534c0.999,7.117,3.606,13.503,8.976,18.416c7.614,6.965,16.72,8.515,26.546,6.493
			c9.417-1.937,17.236-6.798,23.91-13.635c0.541-0.554,1.497-1.103,2.201-1.035c6.916,0.661,13.287-0.979,19.299-4.293
			c10.272-5.663,17.976-14.08,24.632-23.483c12.496-17.654,20.555-37.345,26.067-58.153c0.816-3.083,1.577-6.179,2.407-9.445
			c1.053,2.98,1.786,5.82,3.047,8.401c1.206,2.469,2.797,4.803,4.531,6.943c1.25,1.544,2.336,1.506,3.662,0
			c1.418-1.608,2.75-3.408,3.634-5.346c1.46-3.203,2.53-6.584,3.683-9.674c1.712,6.225,3.31,12.72,5.29,19.096
			c5.529,17.802,13.262,34.565,24.224,49.723c6.434,8.897,13.884,16.762,23.64,22.125c4.151,2.282,8.569,3.821,13.32,4.142
			c2.259,0.152,4.806-0.656,6.738,0.144c2.013,0.833,3.344,3.197,5.144,4.684c8.995,7.429,19.133,11.671,31.007,10.282
			c7.983-0.934,14.546-4.625,18.98-11.471c5.862-9.049,6.592-18.865,3.776-29.071c-0.318-1.153-0.188-1.931,0.545-2.866
			c3.027-3.865,4.452-8.336,4.526-13.21c0.099-6.434-2.067-12.114-5.882-17.246c-0.493-0.664-0.928-1.762-0.736-2.487
			c2.046-7.774,0.477-14.906-3.568-21.651c-4.759-7.936-11.706-13.536-19.521-18.176c-9.42-5.592-19.617-9.321-30.092-12.36
			c-0.363-0.105-0.706-0.28-0.927-0.369c4.87-0.911,9.795-1.597,14.599-2.777c11.727-2.883,22.345-8.031,31.141-16.461
			c11.933-11.438,19.111-25.474,22.427-41.593c0.189-0.923,0.842-1.921,1.571-2.539c7.64-6.466,11.729-14.666,11.192-24.658
			c-0.216-3.998,0.482-7.101,2.709-10.446c4.796-7.207,7.861-15.178,7.76-24.022c-0.085-7.296-3.108-13.032-9.596-16.703
			c-4.815-2.725-10.129-3.407-15.513-3.446c-10.82-0.079-21.29,2.126-31.504,5.507c-22.264,7.369-41.951,19.118-59.08,35.149
			c-22.714,21.258-39.743,46.301-50.383,75.605c-0.302,0.831-0.671,1.638-0.965,2.348c-1.274-3.456-2.452-6.876-3.814-10.222
			c-0.458-1.124-0.538-1.928,0.04-3.068c2.41-4.759,2.392-9.517-0.368-14.195c-0.3-0.508-0.422-1.265-0.313-1.847
			c2.718-14.5,7.32-28.368,14.219-41.424c4.361-8.253,9.743-15.76,17.109-21.652c1.758-1.406,3.698-2.583,5.575-3.881
			c0.645,1.029,1.066,1.819,1.598,2.527c2.354,3.141,6.687,4.269,10.208,2.694c3.789-1.694,5.864-5.703,5.05-9.755
			c-0.781-3.888-4.109-6.742-8.002-6.866c-4.18-0.132-8.167,2.4-8.595,6.409c-0.341,3.19-1.793,4.842-4.365,6.063
			c-0.248,0.118-0.457,0.318-0.682,0.484c-5.827,4.288-10.525,9.634-14.499,15.631c-7.376,11.131-12.225,23.384-15.813,36.17
			c-1.212,4.319-2.195,8.703-3.342,13.296c-2.68-2.117-5.375-2.085-7.999-0.073c-1.301-5.006-2.43-9.825-3.81-14.571
			c-3.662-12.589-8.55-24.656-15.977-35.546c-4.498-6.595-9.746-12.513-16.675-16.693c-1.194-0.72-1.806-1.388-1.817-2.941
			c-0.03-4.17-3.147-7.499-7.275-8.147c-3.935-0.617-7.872,1.599-9.34,5.257c-1.565,3.901-0.179,8.258,3.369,10.581
			c3.453,2.26,7.832,1.854,10.725-1.111c0.914-0.937,1.579-2.115,2.381-3.216c0.284,0.153,0.579,0.303,0.865,0.47
			c0.385,0.226,0.769,0.454,1.142,0.699c7.795,5.104,13.486,12.148,18.176,20.04c8.355,14.056,13.295,29.398,16.707,45.288
			c0.118,0.548,0.098,1.3-0.191,1.734c-3.382,5.081-2.95,10.185-0.272,15.363c0.197,0.381,0.298,0.967,0.153,1.346
			c-1.422,3.716-2.906,7.408-4.326,10.989c-0.03-0.068-0.184-0.407-0.332-0.748c-3.082-7.104-5.808-14.389-9.306-21.282
			c-15.542-30.627-37.195-55.943-66.252-74.553c-14.962-9.583-31.103-16.547-48.599-20.06c-8.178-1.643-16.419-2.591-24.768-1.162
			c-12.795,2.19-19.454,11.202-17.623,24.083c1.188,8.359,4.73,15.779,9.545,22.615c0.839,1.191,1.069,2.252,0.891,3.672
			c-1.427,11.397,2.233,20.849,10.961,28.356c0.646,0.555,1.185,1.481,1.345,2.317c1.524,7.947,4.207,15.487,7.965,22.627
			c9.499,18.048,24.035,29.918,43.812,35.097C111.949,220.595,117.532,221.401,122.926,222.467z M209.048,4.769
			c-0.508,0.645-0.908,1.173-1.329,1.683c-1.915,2.324-3.869,4.617-5.749,6.969c-5.576,6.976-11.014,14.042-14.998,22.104
			c-5.131,10.384-8.056,21.294-7.451,32.926c0.743,14.293,5.279,27.44,12.979,39.446c5.175,8.07,10.667,15.936,16.025,23.888
			c0.142,0.211,0.378,0.358,0.68,0.636c0.409-0.585,0.762-1.074,1.098-1.573c1.743-2.589,3.44-5.21,5.23-7.767
			c5.405-7.72,10.865-15.399,14.977-23.931c4.681-9.712,7.55-19.905,8.041-30.693c0.681-14.981-3.851-28.546-12-40.885
			c-4.23-6.406-9.173-12.342-13.83-18.464C211.647,7.694,210.429,6.392,209.048,4.769z M209.094,415.699
			c-6.936-6.151-13.016-12.8-17.786-20.567c-5.535-9.015-8.93-18.715-8.892-29.405c0.051-14.044,4.935-26.511,12.712-37.977
			c1.375-2.027,2.998-3.885,4.445-5.866c0.215-0.294,0.09-0.837,0.122-1.266c-0.372,0.137-0.779,0.22-1.105,0.429
			c-0.27,0.173-0.447,0.491-0.66,0.75c-5.367,6.511-9.608,13.678-12.603,21.576c-5.578,14.712-6.014,29.39,0.357,43.995
			c5.058,11.595,13.1,20.919,22.393,29.292c1.072,0.966,1.66,0.296,2.368-0.351c6.035-5.514,11.584-11.459,16.112-18.295
			c7.738-11.684,11.696-24.421,10.126-38.508c-1.611-14.453-7.648-27.039-16.872-38.164c-0.299-0.361-0.944-0.435-1.428-0.643
			c0.145,0.505,0.149,1.126,0.456,1.499c5.793,7.05,10.316,14.808,13.302,23.452c4.372,12.656,4.89,25.304,0.207,38.021
			C227.622,396.498,219.088,406.522,209.094,415.699z M142.906,344.851c-1.024,0.132-1.512,0.158-1.982,0.261
			c-3.808,0.832-7.625,1.627-11.416,2.532c-7.641,1.825-14.977,4.461-21.392,9.104c-12.564,9.095-17.901,21.904-18.7,36.99
			c-0.075,1.421,0.426,1.967,1.797,1.751c3.521-0.555,7.078-0.948,10.554-1.708c7.948-1.741,15.245-4.942,21.6-10.139
			c8.168-6.68,13.514-15.171,16.246-25.315C140.776,353.997,141.748,349.615,142.906,344.851z M275.17,344.84
			c0.028,0.54,0.002,0.807,0.061,1.055c1.157,4.93,2.03,9.95,3.539,14.771c6.905,22.049,25.376,33.068,47.572,34.835
			c1.383,0.11,1.975-0.381,1.797-1.796c-0.349-2.764-0.494-5.564-1.012-8.295c-2.869-15.157-11.067-26.287-25.101-32.989
			c-7.32-3.496-15.18-5.107-23.021-6.805C277.785,345.351,276.559,345.12,275.17,344.84z M294.587,89.683
			c5.571-2.116,11.294-3.773,16.547-6.377c19.414-9.625,29.146-25.654,30.176-47.138c0.117-2.449-0.092-2.618-2.539-2.344
			c-13.494,1.51-24.953,6.963-33.605,17.656c-8.824,10.905-11.426,23.689-11.017,37.339
			C294.153,88.964,294.287,89.104,294.587,89.683z M123.827,83.5c-0.013,0-0.025,0-0.039,0c-0.069-1.113-0.124-2.228-0.208-3.34
			c-1.211-16-7.922-28.99-21.237-38.22c-7.125-4.939-15.208-7.344-23.789-8.205c-1.448-0.145-2.14,0.416-2.058,1.83
			c0.146,2.498,0.169,5.021,0.564,7.483C79.757,59.848,88.313,72.738,103,81.443c6.094,3.612,12.869,5.551,19.532,7.757
			c1.033,0.342,1.311-0.077,1.3-1.015C123.814,86.624,123.827,85.062,123.827,83.5z M4.504,221.426
			c6.79,6.743,13.681,12.969,22.432,16.692c7.148,3.042,14.581,4.163,22.27,2.765c5.096-0.926,9.843-2.845,14.25-5.596
			c6.187-3.862,11.491-8.769,16.718-13.843c-0.197-0.306-0.276-0.529-0.433-0.659c-5.019-4.161-9.801-8.663-15.128-12.386
			c-8.385-5.86-17.787-8.317-28.085-6.596C23.299,204.013,13.674,212.043,4.504,221.426z M336.918,221.558
			c4.917,4.102,9.315,8.254,14.188,11.744c12.898,9.238,26.727,10.815,41.239,3.995c7.641-3.59,13.799-9.17,19.708-15.06
			c0.931-0.927,0.316-1.5-0.323-2.043c-4.54-3.858-8.83-8.085-13.713-11.45c-9.537-6.572-20.154-9.048-31.648-6.444
			c-8.458,1.916-15.368,6.665-21.762,12.272C342.144,216.732,339.753,218.977,336.918,221.558z M209.193,389.115
			c2.266-3.05,4.413-5.678,6.272-8.495c3.792-5.746,6.406-11.985,6.961-18.926c0.719-9.003-1.739-17.208-6.575-24.736
			c-2.037-3.17-4.258-6.224-6.616-9.651c-7.53,9.166-13.363,18.574-13.708,30.39C195.167,370.035,201.03,379.76,209.193,389.115z
			 M209.116,271.474c-2.942,10.084-7.354,19.067-16.927,24.907c8.387,4.43,13.307,11.411,16.907,19.701
			c3.617-8.27,8.371-15.379,16.892-19.71C216.343,290.562,211.923,281.66,209.116,271.474z M151.083,74.422
			c5.063,0.05,9.264-4.07,9.347-9.17c0.083-5.061-4.075-9.332-9.134-9.383c-5.108-0.052-9.357,4.041-9.425,9.08
			C141.801,70.12,145.935,74.371,151.083,74.422z M276.389,64.964c-0.03-5.141-4.158-9.148-9.37-9.097
			c-5.015,0.049-9.185,4.233-9.172,9.201c0.014,5.259,4.106,9.375,9.323,9.378C272.296,74.449,276.421,70.207,276.389,64.964z
			 M39.537,267.585c-0.041-5.083-4.032-9.035-9.06-8.968c-4.924,0.065-9.013,4.272-8.929,9.188c0.083,4.856,4.182,8.818,9.117,8.811
			C35.493,276.608,39.576,272.452,39.537,267.585z M396.815,267.586c-0.019-4.967-3.969-8.945-8.9-8.964
			c-4.985-0.019-9.026,4.006-9.051,9.014c-0.023,4.935,4.131,9.043,9.082,8.982C392.788,276.558,396.834,272.438,396.815,267.586z
			 M20.811,176.264c-0.072,4.508,3.538,8.151,8.144,8.219c4.578,0.067,8.261-3.483,8.33-8.031c0.072-4.703-3.488-8.398-8.115-8.424
			C24.579,168.001,20.885,171.641,20.811,176.264z M161.675,355.042c4.357,0.017,8.139-3.732,8.144-8.071
			c0.004-4.606-3.522-8.248-8.049-8.312c-4.494-0.063-8.227,3.7-8.254,8.32C153.491,351.271,157.29,355.025,161.675,355.042z
			 M397.884,176.315c0.033-4.579-3.504-8.217-8.046-8.277c-4.682-0.062-8.414,3.588-8.46,8.276c-0.044,4.466,3.633,8.148,8.18,8.194
			C394.167,184.553,397.85,180.929,397.884,176.315z M256.479,355.04c4.325-0.018,8.097-3.835,8.073-8.17
			c-0.025-4.55-3.741-8.298-8.161-8.232c-4.471,0.067-8.219,3.85-8.183,8.26C248.244,351.356,252.005,355.059,256.479,355.04z"/>
		<path fill-rule="evenodd" clip-rule="evenodd" d="M122.926,222.467c-5.395-1.066-10.977-1.873-16.399-3.292
			c-19.776-5.179-34.313-17.049-43.812-35.097c-3.758-7.141-6.44-14.681-7.965-22.627c-0.16-0.836-0.699-1.762-1.345-2.317
			c-8.728-7.507-12.388-16.959-10.961-28.356c0.178-1.42-0.052-2.481-0.891-3.672c-4.814-6.836-8.356-14.256-9.545-22.615
			c-1.831-12.881,4.828-21.893,17.623-24.083c8.348-1.429,16.589-0.48,24.768,1.162c17.497,3.513,33.637,10.478,48.599,20.06
			c29.058,18.61,50.711,43.926,66.252,74.553c3.498,6.893,6.224,14.178,9.306,21.282c0.147,0.341,0.301,0.68,0.332,0.748
			c1.42-3.582,2.904-7.273,4.326-10.989c0.145-0.379,0.043-0.965-0.153-1.346c-2.678-5.178-3.11-10.282,0.272-15.363
			c0.29-0.435,0.309-1.187,0.191-1.734c-3.412-15.89-8.352-31.232-16.707-45.288c-4.69-7.892-10.381-14.936-18.176-20.04
			c-0.373-0.245-0.757-0.473-1.142-0.699c-0.286-0.167-0.581-0.316-0.865-0.47c-0.803,1.101-1.468,2.279-2.381,3.216
			c-2.893,2.966-7.272,3.372-10.725,1.111c-3.548-2.322-4.935-6.679-3.369-10.581c1.469-3.658,5.405-5.874,9.34-5.257
			c4.127,0.648,7.245,3.977,7.275,8.147c0.011,1.553,0.623,2.221,1.817,2.941c6.929,4.18,12.177,10.098,16.675,16.693
			c7.427,10.89,12.314,22.957,15.977,35.546c1.38,4.746,2.509,9.565,3.81,14.571c2.624-2.012,5.319-2.044,7.999,0.073
			c1.147-4.593,2.13-8.977,3.342-13.296c3.588-12.786,8.437-25.039,15.813-36.17c3.974-5.997,8.672-11.343,14.499-15.631
			c0.225-0.166,0.434-0.366,0.682-0.484c2.571-1.222,4.024-2.874,4.365-6.063c0.428-4.009,4.415-6.541,8.595-6.409
			c3.894,0.124,7.221,2.978,8.002,6.866c0.814,4.052-1.261,8.061-5.05,9.755c-3.521,1.575-7.853,0.446-10.208-2.694
			c-0.531-0.708-0.953-1.498-1.598-2.527c-1.877,1.297-3.817,2.475-5.575,3.881c-7.366,5.892-12.748,13.398-17.109,21.652
			c-6.899,13.056-11.5,26.924-14.219,41.424c-0.109,0.583,0.014,1.339,0.313,1.847c2.76,4.678,2.778,9.436,0.368,14.195
			c-0.578,1.14-0.498,1.944-0.04,3.068c1.363,3.345,2.541,6.766,3.814,10.222c0.293-0.709,0.663-1.517,0.965-2.348
			c10.64-29.304,27.669-54.347,50.383-75.605c17.128-16.031,36.816-27.78,59.08-35.149c10.214-3.381,20.684-5.586,31.504-5.507
			c5.384,0.039,10.697,0.721,15.513,3.446c6.487,3.671,9.511,9.407,9.596,16.703c0.102,8.844-2.964,16.815-7.76,24.022
			c-2.227,3.345-2.925,6.448-2.709,10.446c0.536,9.992-3.553,18.192-11.192,24.658c-0.729,0.618-1.382,1.615-1.571,2.539
			c-3.315,16.119-10.494,30.155-22.427,41.593c-8.796,8.431-19.414,13.578-31.141,16.461c-4.803,1.181-9.729,1.867-14.599,2.777
			c0.221,0.089,0.564,0.264,0.927,0.369c10.475,3.04,20.672,6.768,30.092,12.36c7.815,4.64,14.763,10.24,19.521,18.176
			c4.045,6.746,5.614,13.877,3.568,21.651c-0.191,0.725,0.243,1.823,0.736,2.487c3.814,5.132,5.98,10.813,5.882,17.246
			c-0.074,4.874-1.499,9.345-4.526,13.21c-0.732,0.935-0.863,1.713-0.545,2.866c2.815,10.206,2.086,20.022-3.776,29.071
			c-4.435,6.846-10.997,10.537-18.98,11.471c-11.874,1.389-22.012-2.853-31.007-10.282c-1.8-1.487-3.131-3.851-5.144-4.684
			c-1.932-0.799-4.479,0.009-6.738-0.144c-4.75-0.321-9.168-1.86-13.32-4.142c-9.756-5.362-17.206-13.228-23.64-22.125
			c-10.962-15.158-18.695-31.921-24.224-49.723c-1.98-6.376-3.577-12.871-5.29-19.096c-1.153,3.09-2.223,6.471-3.683,9.674
			c-0.883,1.938-2.216,3.737-3.634,5.346c-1.326,1.505-2.412,1.544-3.662,0c-1.734-2.141-3.325-4.474-4.531-6.943
			c-1.261-2.582-1.994-5.421-3.047-8.401c-0.831,3.266-1.591,6.363-2.407,9.445c-5.512,20.808-13.572,40.499-26.067,58.153
			c-6.656,9.404-14.359,17.821-24.632,23.483c-6.012,3.314-12.383,4.954-19.299,4.293c-0.704-0.067-1.66,0.481-2.201,1.035
			c-6.674,6.837-14.493,11.698-23.91,13.635c-9.826,2.022-18.932,0.472-26.546-6.493c-5.37-4.912-7.978-11.298-8.976-18.416
			c-0.744-5.299,0.002-10.439,1.455-15.534c0.167-0.585,0.072-1.491-0.286-1.943c-7.286-9.198-6.056-21.888,1.095-30.981
			c0.822-1.045,0.938-1.902,0.613-3.139c-2.3-8.712,0.221-16.399,5.213-23.503c5.603-7.974,13.296-13.438,21.783-17.891
			c8.58-4.501,17.66-7.727,26.988-10.282C122.7,222.609,122.889,222.485,122.926,222.467z M101.331,146.974
			c-0.278-0.235-0.575-0.478-0.861-0.731c-6.03-5.355-11.01-11.411-12.811-19.529c-0.976-4.399-0.652-8.718,1.675-12.633
			c3.382-5.689,8.821-7.393,15.052-7.107c6.335,0.291,12.067,2.624,17.542,5.638c11.168,6.15,20.678,14.386,29.347,23.633
			c14.662,15.639,26.957,32.845,34.744,53c3.025,7.831,5.313,15.844,6.225,24.222c0.153,1.407-0.254,1.916-1.622,2.246
			c-19.619,4.733-39.503,7.073-59.689,6.798c-1.161-0.016-2.378-0.125-3.477,0.163c-9.127,2.384-18.1,5.245-26.689,9.187
			c-9.64,4.424-18.484,9.981-25.028,18.553c-4.787,6.27-7.939,13.272-6.266,21.297c0.751,3.604-0.102,6.011-2.012,8.901
			c-5.604,8.478-5.969,19.165,0.812,27.403c0.696,0.846,0.533,1.563,0.258,2.444c-1.758,5.622-2.358,11.328-1.218,17.164
			c1.384,7.089,4.388,13.28,10.398,17.543c8.053,5.713,16.919,6.327,26.193,3.604c8.078-2.373,14.835-6.841,20.556-12.951
			c0.702-0.75,1.341-1.358,2.56-1.157c3.568,0.588,7.118,0.331,10.606-0.622c8.146-2.226,14.798-6.938,20.761-12.702
			c10.54-10.187,18.083-22.462,24.451-35.53c7.171-14.715,12.014-30.224,15.626-46.143c0.288-1.269,0.431-2.674,0.207-3.938
			c-1.899-10.697-2.146-21.394-0.468-32.144c0.202-1.298,0.039-2.789-0.403-4.03c-5.835-16.371-13.563-31.787-23.534-46.046
			c-12.514-17.895-27.271-33.634-45.205-46.193c-17.234-12.07-35.996-20.802-56.794-24.729c-7.372-1.392-14.812-2.194-22.292-0.837
			c-5.587,1.014-10.581,3.125-13.89,8.108c-3.026,4.555-3.474,9.574-2.656,14.791c1.308,8.347,5.016,15.665,9.747,22.55
			c0.503,0.732,0.793,1.863,0.67,2.736c-1.637,11.578,1.996,21.088,10.932,28.624c0.607,0.512,1.021,1.398,1.252,2.19
			c1.373,4.698,2.289,9.566,4.051,14.108c7.151,18.432,19.189,32.387,37.818,40.027c2.359,0.967,4.797,1.741,7.199,2.604
			c-3.078-3.183-5.2-6.636-5.495-10.996c-0.305-4.518,1.704-8.011,5.04-10.607c-3.717-2.555-7.497-4.852-10.932-7.581
			c-6.155-4.89-11.262-10.676-13.695-18.378c-3.428-10.851,1.883-20.035,13.002-22.263
			C95.701,147.119,98.507,147.189,101.331,146.974z M311.856,217.466c0.563-0.079,0.786-0.08,0.99-0.144
			c7.503-2.35,14.618-5.542,20.891-10.324c15.104-11.519,23.825-26.996,27.627-45.399c0.36-1.746,1.187-2.838,2.452-3.922
			c8.385-7.189,11.73-16.316,10.178-27.216c-0.206-1.45,0.08-2.527,0.92-3.7c4.499-6.283,7.871-13.097,9.329-20.752
			c0.871-4.574,0.951-9.12-0.976-13.481c-2.968-6.715-8.658-9.62-15.485-10.796c-7.486-1.289-14.921-0.497-22.293,0.906
			c-22.399,4.262-42.381,13.957-60.592,27.441c-11.671,8.643-21.879,18.853-31.153,30.016
			c-15.031,18.091-26.361,38.25-33.888,60.535c-0.236,0.697-0.276,1.53-0.167,2.264c1.443,9.671,1.489,19.341,0.076,29.016
			c-0.425,2.914-0.728,5.741-0.058,8.745c5.543,24.862,14.532,48.227,29.532,69.027c5.328,7.389,11.489,13.969,19.127,19.025
			c6.586,4.361,13.699,7.036,21.77,6.022c1.276-0.16,2.044,0.147,2.893,1.058c7.574,8.127,16.733,13.295,27.906,14.382
			c9.949,0.968,21.646-3.297,26.779-15.171c3.458-7.997,3.597-16.118,1.181-24.357c-0.358-1.225-0.188-2.049,0.57-3.037
			c4.308-5.617,5.596-11.901,3.954-18.788c-0.987-4.138-2.908-7.803-5.466-11.184c-0.459-0.607-0.842-1.649-0.648-2.313
			c1.956-6.744,1.063-13.128-2.147-19.275c-4.159-7.964-10.567-13.724-18.05-18.436c-10.204-6.426-21.392-10.505-32.909-13.791
			c-1.868-0.533-3.793-1.306-5.678-1.268c-10.345,0.213-20.642-0.366-30.914-1.487c-10.375-1.132-20.657-2.829-30.776-5.431
			c-1.025-0.264-1.425-0.666-1.296-1.846c1.461-13.397,6.042-25.796,12.103-37.696c6.807-13.366,15.668-25.321,25.656-36.452
			c9.476-10.559,19.818-20.123,32.359-27.015c5.874-3.229,12.03-5.68,18.872-5.715c10.279-0.052,16.821,7.224,15.753,17.425
			c-0.64,6.112-3.366,11.305-7.28,15.873c-2.08,2.427-4.527,4.539-6.809,6.792c2.55,0.385,4.942,0.17,7.284,0.425
			c7.474,0.813,13.194,5.717,14.674,12.46c1.159,5.28-0.092,10.215-2.61,14.832c-4.053,7.43-10.073,13.011-17.09,17.581
			c-1.856,1.209-3.803,2.279-5.729,3.425C319.635,200.803,319.702,210.779,311.856,217.466z M190.185,209.109
			c-0.025-0.155-0.075-0.481-0.13-0.807c-1.827-10.656-5.715-20.605-10.496-30.229c-6.572-13.23-15.156-25.094-24.897-36.143
			c-9.347-10.6-19.616-20.155-31.915-27.292c-5.432-3.152-11.167-5.583-17.51-6.311c-11.089-1.272-18.57,6.915-16.299,17.829
			c1.375,6.603,5.009,11.877,9.711,16.462c2.098,2.046,4.317,4.251,6.912,5.455c13.879,6.438,27.445,13.425,40.341,21.677
			c12.541,8.025,24.409,16.907,34.594,27.839C183.935,201.279,187.008,205.31,190.185,209.109z M227.733,209.526
			c0.537-0.829,1.051-1.673,1.615-2.483c6.184-8.884,14.005-16.187,22.369-22.93c17.042-13.74,35.823-24.649,55.706-33.689
			c4.436-2.017,8.419-4.496,11.793-8.013c5.135-5.352,9.197-11.254,9.781-18.919c0.642-8.41-4.548-14.079-11.784-15.038
			c-3.781-0.501-7.465-0.003-11.069,1.143c-8.092,2.572-15.254,6.888-21.826,12.142c-20.185,16.136-36.041,35.808-47.421,59.015
			C232.438,189.845,229.182,199.382,227.733,209.526z M190.258,213.729c0.155-0.158,0.31-0.316,0.465-0.474
			c-1.915-2.863-3.63-5.887-5.781-8.559c-7.929-9.85-17.405-18.065-27.592-25.487c-15.438-11.248-32.091-20.377-49.373-28.443
			c-4.427-2.066-8.925-2.656-13.666-2.046c-7.431,0.956-12.558,5.574-13.745,12.584c-0.852,5.032,0.717,9.619,3.26,13.876
			c5.271,8.826,13.114,14.772,22.081,19.412c0.425,0.22,0.953,0.316,1.438,0.334c12.058,0.462,24.021,1.739,35.883,3.983
			c12.518,2.369,24.792,5.525,36.511,10.638C183.198,211.057,186.75,212.342,190.258,213.729z M227.225,213.77
			c1.076-0.399,1.809-0.656,2.529-0.942c5.437-2.162,10.803-4.522,16.317-6.461c20.642-7.255,42.03-10.457,63.81-11.444
			c0.855-0.039,1.837-0.199,2.521-0.658c4.3-2.881,8.748-5.6,12.729-8.879c4.64-3.821,8.387-8.532,10.543-14.255
			c2.397-6.364,2.403-12.518-2.603-17.78c-5.025-5.281-14.539-6.247-20.512-3.707c-14.858,6.319-29.051,13.958-42.547,22.855
			c-12.955,8.541-25.155,17.97-35.316,29.82C231.784,205.715,229.177,209.301,227.225,213.77z M188.65,214.568
			c-5.834-2.315-11.602-4.821-17.515-6.913c-20.424-7.222-41.604-10.355-63.162-11.273c-0.915-0.039-1.997,0.334-2.757,0.865
			c-2.083,1.454-3.382,3.521-3.966,6.01c-1.844,7.862,5.006,14.666,10.036,15.66c5.018,0.992,10.125,1.788,15.226,2.057
			C147.5,222.081,168.129,219.231,188.65,214.568z M228.567,214.807c15.331,3.403,30.323,5.53,45.498,6.234
			c9.536,0.442,19.054,0.271,28.526-1.263c4.7-0.761,8.598-2.655,11.404-6.533c3.95-5.462,3.316-12.133-1.571-15.85
			c-0.842-0.64-2.136-1.061-3.185-0.995c-6.23,0.389-12.469,0.781-18.669,1.487c-17.559,1.999-34.737,5.633-51.127,12.462
			C235.972,211.794,232.487,213.201,228.567,214.807z M209.32,255.979c0.961-1.158,2.008-2.122,2.68-3.299
			c1.043-1.831,1.996-3.748,2.699-5.731c4.538-12.797,5.531-25.997,4.167-39.416c-0.663-6.518-2.128-12.852-4.823-18.874
			c-0.959-2.143-2.543-3.245-4.799-3.261c-2.338-0.016-4.291,0.894-5.228,3.19c-0.988,2.419-2.018,4.845-2.714,7.355
			c-2.992,10.784-3.471,21.779-2.263,32.846c0.776,7.111,2.313,14.075,5.269,20.646C205.404,251.874,206.602,254.275,209.32,255.979
			z M204.732,185.688c2.933-1.735,5.86-1.704,8.684-0.093c2.945-4.147,2.873-10.56-0.04-14.473
			c-2.514-3.379-6.007-3.439-8.659-0.149C201.594,174.848,201.542,181.145,204.732,185.688z M158.458,92.064
			c-4.045-0.105-7.483,3.115-7.616,7.134c-0.126,3.801,3.266,7.297,7.185,7.406c3.91,0.108,7.414-3.201,7.478-7.061
			C165.571,95.521,162.412,92.167,158.458,92.064z M259.878,106.594c3.922,0.021,7.299-3.327,7.307-7.244
			c0.008-3.976-3.239-7.267-7.218-7.316c-3.888-0.049-7.235,3.287-7.281,7.255C252.64,103.265,255.896,106.573,259.878,106.594z"/>
		<path fill-rule="evenodd" clip-rule="evenodd" d="M209.048,4.769c1.381,1.623,2.599,2.925,3.673,4.337
			c4.656,6.122,9.599,12.059,13.83,18.464c8.149,12.339,12.681,25.904,12,40.885c-0.491,10.788-3.359,20.981-8.041,30.693
			c-4.112,8.532-9.572,16.211-14.977,23.931c-1.79,2.557-3.487,5.178-5.23,7.767c-0.336,0.5-0.688,0.988-1.098,1.573
			c-0.301-0.277-0.538-0.424-0.68-0.636c-5.358-7.952-10.85-15.818-16.025-23.888c-7.699-12.006-12.236-25.153-12.979-39.446
			c-0.604-11.632,2.32-22.542,7.451-32.926c3.984-8.063,9.422-15.128,14.998-22.104c1.88-2.352,3.834-4.645,5.749-6.969
			C208.14,5.942,208.54,5.414,209.048,4.769z M209.06,129.992c2.604-3.734,5.088-7.302,7.578-10.866
			c6.047-8.653,11.828-17.457,15.57-27.419c5.868-15.621,6.968-31.357,1.263-47.295c-3.582-10.006-9.244-18.779-15.827-27.015
			c-2.775-3.471-5.609-6.895-8.592-10.555c-0.218,0.361-0.311,0.573-0.454,0.744c-6.276,7.481-12.576,14.956-17.571,23.388
			c-5.977,10.09-9.782,20.908-10.132,32.735c-0.315,10.654,2.013,20.813,6.066,30.629
			C192.366,107.421,201.356,118.261,209.06,129.992z"/>
		<path fill-rule="evenodd" clip-rule="evenodd" d="M209.094,415.699c9.994-9.177,18.527-19.201,23.252-32.029
			c4.684-12.717,4.166-25.365-0.207-38.021c-2.986-8.644-7.509-16.402-13.302-23.452c-0.307-0.373-0.311-0.994-0.456-1.499
			c0.484,0.208,1.129,0.282,1.428,0.643c9.224,11.125,15.261,23.711,16.872,38.164c1.57,14.087-2.388,26.825-10.126,38.508
			c-4.528,6.836-10.078,12.781-16.112,18.295c-0.708,0.646-1.295,1.316-2.368,0.351c-9.292-8.372-17.335-17.696-22.393-29.292
			c-6.371-14.605-5.935-29.282-0.357-43.995c2.995-7.898,7.236-15.065,12.603-21.576c0.213-0.259,0.391-0.577,0.66-0.75
			c0.326-0.208,0.733-0.292,1.105-0.429c-0.032,0.428,0.093,0.971-0.122,1.266c-1.447,1.981-3.07,3.839-4.445,5.866
			c-7.777,11.466-12.661,23.933-12.712,37.977c-0.038,10.69,3.357,20.39,8.892,29.405
			C196.078,402.899,202.158,409.548,209.094,415.699z"/>
		<path fill-rule="evenodd" clip-rule="evenodd" d="M142.906,344.851c-1.158,4.764-2.129,9.146-3.295,13.475
			c-2.731,10.145-8.077,18.635-16.246,25.315c-6.354,5.197-13.652,8.398-21.6,10.139c-3.476,0.761-7.033,1.154-10.554,1.708
			c-1.371,0.216-1.872-0.33-1.797-1.751c0.799-15.086,6.136-27.895,18.7-36.99c6.415-4.643,13.751-7.279,21.392-9.104
			c3.791-0.905,7.608-1.7,11.416-2.532C141.394,345.008,141.881,344.982,142.906,344.851z M140.512,348.301
			c-0.145-0.146-0.29-0.292-0.434-0.438c-0.598,0.802-1.109,1.69-1.808,2.391c-8.33,8.352-17.289,15.974-26.786,22.963
			c-0.399,0.293-1.046,0.25-1.578,0.363c0.263-0.469,0.419-1.063,0.805-1.388c7.419-6.251,14.9-12.429,22.286-18.72
			c2.258-1.923,4.269-4.137,6.393-6.218c-0.094-0.166-0.188-0.332-0.282-0.498c-4.798,1.206-9.635,2.277-14.386,3.647
			c-7.706,2.224-14.749,5.778-20.576,11.396c-7.086,6.833-10.96,15.356-12.637,24.943c-0.416,2.379-0.576,4.802-0.861,7.267
			C119.388,391.984,136.605,375.244,140.512,348.301z"/>
		<path fill-rule="evenodd" clip-rule="evenodd" d="M275.17,344.84c1.389,0.28,2.615,0.511,3.835,0.776
			c7.841,1.698,15.701,3.31,23.021,6.805c14.034,6.702,22.232,17.832,25.101,32.989c0.518,2.731,0.663,5.531,1.012,8.295
			c0.178,1.415-0.414,1.906-1.797,1.796c-22.196-1.767-40.667-12.786-47.572-34.835c-1.509-4.821-2.382-9.841-3.539-14.771
			C275.172,345.647,275.198,345.38,275.17,344.84z M277.101,348.155c2.81,17.352,9.442,28.949,21.117,36.783
			c8.583,5.76,18.207,8.3,28.439,9.201c0.046-0.519,0.102-0.739,0.079-0.953c-0.178-1.774-0.298-3.559-0.568-5.32
			c-2.042-13.285-8.031-24.107-19.646-31.42c-6.61-4.161-13.94-6.398-21.469-8.109c-2.173-0.494-4.361-0.922-6.915-1.458
			c0.413,0.513,0.527,0.701,0.683,0.843c6.801,6.189,13.56,12.427,20.436,18.532c2.496,2.216,5.291,4.095,7.911,6.176
			c0.289,0.23,0.327,0.778,0.481,1.179c-0.394-0.055-0.801-0.063-1.175-0.179c-0.254-0.077-0.473-0.291-0.688-0.466
			c-5.846-4.74-11.783-9.374-17.501-14.263C284.437,355.411,280.898,351.759,277.101,348.155z"/>
		<path fill-rule="evenodd" clip-rule="evenodd" d="M294.587,89.683c-0.3-0.579-0.434-0.719-0.438-0.864
			c-0.409-13.65,2.193-26.435,11.017-37.339c8.652-10.693,20.111-16.146,33.605-17.656c2.447-0.274,2.656-0.104,2.539,2.344
			c-1.03,21.483-10.762,37.513-30.176,47.138C305.881,85.91,300.158,87.567,294.587,89.683z M339.82,35.245
			c-27.305,1.855-45.011,24.057-44.184,50.414c0.235-0.338,0.38-0.541,0.52-0.748c3.398-5.03,6.468-10.327,10.289-15.012
			c3.537-4.337,7.862-8.035,11.887-11.966c0.394-0.384,1.116-0.431,2.037-0.76c-4.748,4.957-9.249,9.356-13.395,14.069
			c-4.181,4.754-7.436,10.187-10.484,15.93C325.575,80.356,340.059,58.13,339.82,35.245z"/>
		<path fill-rule="evenodd" clip-rule="evenodd" d="M123.827,83.5c0,1.562-0.013,3.124,0.005,4.685
			c0.011,0.938-0.268,1.357-1.3,1.015c-6.663-2.206-13.438-4.145-19.532-7.757c-14.687-8.705-23.242-21.595-25.938-38.394
			c-0.395-2.462-0.419-4.985-0.564-7.483c-0.082-1.415,0.61-1.975,2.058-1.83c8.581,0.86,16.664,3.266,23.789,8.205
			c13.314,9.23,20.025,22.22,21.237,38.22c0.084,1.112,0.139,2.227,0.208,3.34C123.802,83.5,123.814,83.5,123.827,83.5z
			 M97.663,57.897c0.128-0.236,0.256-0.473,0.384-0.71c0.577,0.287,1.238,0.473,1.719,0.875
			c8.968,7.473,16.319,16.291,21.962,26.521c0.161,0.291,0.397,0.54,0.734,0.989c0.179-31.001-21.677-49.276-44.667-50.292
			c0.116,11.834,3.722,22.432,10.822,31.835c8.291,10.982,19.875,16.621,32.91,20.148C115.684,75.635,107.426,66.161,97.663,57.897z
			"/>
		<path fill-rule="evenodd" clip-rule="evenodd" d="M4.504,221.426c9.17-9.383,18.795-17.413,32.024-19.624
			c10.299-1.721,19.7,0.736,28.085,6.596c5.327,3.723,10.109,8.225,15.128,12.386c0.157,0.13,0.236,0.353,0.433,0.659
			c-5.228,5.074-10.532,9.981-16.718,13.843c-4.406,2.751-9.153,4.67-14.25,5.596c-7.689,1.398-15.122,0.277-22.27-2.765
			C18.185,234.395,11.293,228.169,4.504,221.426z M78.51,221.176c-4.226-3.497-8.12-7.023-12.324-10.13
			c-7.156-5.289-15.118-8.562-24.206-8.395c-5.427,0.099-10.59,1.408-15.513,3.655c-7.731,3.528-13.988,9.006-20.012,15.063
			c7.553,7.541,15.466,14.232,25.861,17.19c8.58,2.441,17.008,2.008,25.178-1.668C65.513,233.282,71.9,227.465,78.51,221.176z"/>
		<path fill-rule="evenodd" clip-rule="evenodd" d="M336.918,221.558c2.835-2.581,5.226-4.825,7.688-6.986
			c6.394-5.607,13.304-10.356,21.762-12.272c11.494-2.604,22.111-0.127,31.648,6.444c4.883,3.365,9.173,7.591,13.713,11.45
			c0.64,0.543,1.254,1.116,0.323,2.043c-5.909,5.889-12.067,11.469-19.708,15.06c-14.513,6.82-28.341,5.244-41.239-3.995
			C346.233,229.812,341.835,225.66,336.918,221.558z M339.205,221.385c4.947,4.61,9.708,9.156,15.367,12.613
			c8.8,5.377,18.2,7.438,28.397,5.155c7.769-1.74,14.386-5.663,20.368-10.757c2.61-2.223,5.096-4.592,7.695-6.949
			c-5.049-5.094-10.135-9.697-16.162-13.103c-12.912-7.297-25.951-7.778-38.994-0.366
			C349.668,211.507,344.494,216.371,339.205,221.385z"/>
		<path fill-rule="evenodd" clip-rule="evenodd" d="M209.193,389.115c-8.163-9.355-14.026-19.081-13.666-31.419
			c0.346-11.815,6.178-21.224,13.708-30.39c2.358,3.428,4.579,6.481,6.616,9.651c4.836,7.527,7.293,15.732,6.575,24.736
			c-0.555,6.941-3.168,13.18-6.961,18.926C213.605,383.438,211.458,386.065,209.193,389.115z M208.994,329.799
			c-7.435,9.292-13.008,19.3-12.007,31.667c0.798,9.873,5.648,17.953,12.034,25.306
			C226.029,367.497,224.323,347.952,208.994,329.799z"/>
		<path fill-rule="evenodd" clip-rule="evenodd" d="M209.116,271.474c2.807,10.186,7.227,19.087,16.872,24.898
			c-8.521,4.331-13.274,11.44-16.892,19.71c-3.6-8.291-8.52-15.271-16.907-19.701C201.762,290.541,206.174,281.558,209.116,271.474z
			 M223.318,296.311c-7.294-5.146-11.62-12.179-14.197-20.772c-2.748,8.474-7.008,15.609-14.29,20.763
			c6.701,4.096,11.023,9.933,14.27,16.796C212.355,306.15,216.612,300.275,223.318,296.311z"/>
		<path fill-rule="evenodd" clip-rule="evenodd" d="M151.083,74.422c-5.148-0.051-9.282-4.302-9.212-9.474
			c0.068-5.039,4.316-9.131,9.425-9.08c5.059,0.051,9.217,4.323,9.134,9.383C160.347,70.352,156.146,74.472,151.083,74.422z
			 M143.314,65.074c-0.027,4.377,3.411,7.888,7.759,7.926c4.357,0.038,7.92-3.466,7.909-7.781c-0.011-4.467-3.501-7.959-7.944-7.947
			C146.841,57.284,143.34,60.82,143.314,65.074z"/>
		<path fill-rule="evenodd" clip-rule="evenodd" d="M276.389,64.964c0.032,5.243-4.093,9.485-9.218,9.482
			c-5.217-0.003-9.309-4.12-9.323-9.378c-0.013-4.968,4.157-9.152,9.172-9.201C272.231,55.816,276.359,59.823,276.389,64.964z
			 M274.999,65.036c-0.031-4.324-3.613-7.83-7.941-7.772c-4.221,0.057-7.836,3.746-7.829,7.99c0.007,4.25,3.673,7.809,7.988,7.754
			C271.517,72.952,275.03,69.354,274.999,65.036z"/>
		<path fill-rule="evenodd" clip-rule="evenodd" d="M39.537,267.585c0.039,4.867-4.044,9.023-8.872,9.031
			c-4.935,0.008-9.035-3.954-9.117-8.811c-0.084-4.917,4.004-9.124,8.929-9.188C35.504,258.55,39.496,262.502,39.537,267.585z
			 M30.776,260.071c-4.288-0.037-7.728,3.27-7.79,7.487c-0.061,4.144,3.455,7.673,7.631,7.661c4.059-0.012,7.554-3.542,7.534-7.61
			C38.131,263.479,34.833,260.107,30.776,260.071z"/>
		<path fill-rule="evenodd" clip-rule="evenodd" d="M396.815,267.586c0.019,4.853-4.027,8.972-8.869,9.032
			c-4.951,0.061-9.105-4.048-9.082-8.982c0.024-5.008,4.065-9.032,9.051-9.014C392.847,258.641,396.797,262.619,396.815,267.586z
			 M395.437,267.539c0.034-4.01-3.371-7.455-7.423-7.509c-4.289-0.058-7.716,3.37-7.729,7.732c-0.013,4,3.403,7.398,7.493,7.453
			C391.876,275.271,395.402,271.737,395.437,267.539z"/>
		<path fill-rule="evenodd" clip-rule="evenodd" d="M20.811,176.264c0.074-4.623,3.768-8.263,8.359-8.236
			c4.627,0.026,8.187,3.722,8.115,8.424c-0.069,4.547-3.752,8.098-8.33,8.031C24.349,184.415,20.739,180.771,20.811,176.264z
			 M29.114,169.457c-3.85-0.012-6.964,3.064-6.944,6.858c0.019,3.727,3.078,6.768,6.846,6.807c3.773,0.039,6.963-3.125,6.95-6.892
			C35.953,172.493,32.893,169.468,29.114,169.457z"/>
		<path fill-rule="evenodd" clip-rule="evenodd" d="M161.675,355.042c-4.385-0.017-8.184-3.771-8.159-8.063
			c0.027-4.621,3.76-8.384,8.254-8.32c4.527,0.063,8.053,3.706,8.049,8.312C169.814,351.311,166.032,355.059,161.675,355.042z
			 M161.764,340.033c-3.71-0.017-6.775,3.051-6.827,6.833c-0.048,3.607,3.04,6.737,6.682,6.772c3.709,0.036,6.83-3.069,6.842-6.806
			C168.471,343.245,165.324,340.049,161.764,340.033z"/>
		<path fill-rule="evenodd" clip-rule="evenodd" d="M397.884,176.315c-0.034,4.614-3.717,8.238-8.326,8.192
			c-4.547-0.045-8.224-3.728-8.18-8.194c0.046-4.688,3.778-8.338,8.46-8.276C394.38,168.098,397.917,171.736,397.884,176.315z
			 M389.461,183.13c3.689,0.096,6.96-2.922,7.099-6.55c0.147-3.863-2.773-6.995-6.634-7.112c-3.906-0.119-7.12,2.903-7.197,6.766
			C382.655,179.899,385.715,183.033,389.461,183.13z"/>
		<path fill-rule="evenodd" clip-rule="evenodd" d="M256.479,355.04c-4.474,0.019-8.235-3.684-8.271-8.142
			c-0.036-4.41,3.712-8.193,8.183-8.26c4.42-0.066,8.136,3.682,8.161,8.232C264.576,351.205,260.804,355.022,256.479,355.04z
			 M263.195,346.823c-0.056-3.743-3.188-6.887-6.828-6.853c-3.687,0.035-6.871,3.376-6.768,7.102c0.1,3.581,3.351,6.671,6.907,6.564
			C260.099,353.529,263.247,350.321,263.195,346.823z"/>
		<path fill-rule="evenodd" clip-rule="evenodd" fill="#FFFFFF" d="M101.331,146.974c-2.824,0.215-5.63,0.145-8.315,0.683
			c-11.12,2.228-16.431,11.412-13.002,22.263c2.433,7.702,7.54,13.488,13.695,18.378c3.435,2.729,7.214,5.025,10.932,7.581
			c-3.335,2.596-5.345,6.089-5.04,10.607c0.295,4.36,2.417,7.813,5.495,10.996c-2.402-0.863-4.84-1.637-7.199-2.604
			c-18.629-7.64-30.667-21.595-37.818-40.027c-1.762-4.542-2.678-9.41-4.051-14.108c-0.231-0.792-0.645-1.678-1.252-2.19
			c-8.937-7.535-12.569-17.045-10.932-28.624c0.124-0.873-0.167-2.003-0.67-2.736c-4.731-6.885-8.439-14.203-9.747-22.55
			c-0.817-5.217-0.37-10.236,2.656-14.791c3.31-4.983,8.303-7.094,13.89-8.108c7.479-1.357,14.92-0.555,22.292,0.837
			c20.799,3.928,39.56,12.659,56.794,24.729c17.933,12.559,32.691,28.299,45.205,46.193c9.972,14.259,17.699,29.675,23.534,46.046
			c0.442,1.241,0.605,2.732,0.403,4.03c-1.678,10.75-1.432,21.447,0.468,32.144c0.225,1.264,0.081,2.67-0.207,3.938
			c-3.612,15.919-8.455,31.428-15.626,46.143c-6.369,13.068-13.911,25.343-24.451,35.53c-5.963,5.764-12.615,10.477-20.761,12.702
			c-3.488,0.953-7.038,1.21-10.606,0.622c-1.218-0.201-1.857,0.407-2.56,1.157c-5.721,6.11-12.478,10.579-20.556,12.951
			c-9.273,2.723-18.14,2.109-26.193-3.604c-6.011-4.264-9.014-10.455-10.398-17.543c-1.14-5.835-0.54-11.542,1.218-17.164
			c0.275-0.881,0.438-1.598-0.258-2.444c-6.781-8.238-6.416-18.925-0.812-27.403c1.91-2.89,2.764-5.296,2.012-8.901
			c-1.674-8.024,1.479-15.027,6.266-21.297c6.544-8.571,15.388-14.128,25.028-18.553c8.59-3.942,17.563-6.802,26.689-9.187
			c1.099-0.287,2.316-0.179,3.477-0.163c20.187,0.275,40.07-2.065,59.689-6.798c1.368-0.331,1.775-0.839,1.622-2.246
			c-0.912-8.378-3.199-16.391-6.225-24.222c-7.787-20.155-20.082-37.361-34.744-53c-8.669-9.247-18.179-17.483-29.347-23.633
			c-5.474-3.014-11.206-5.347-17.542-5.638c-6.231-0.286-11.67,1.418-15.052,7.107c-2.328,3.916-2.651,8.234-1.675,12.633
			c1.801,8.118,6.781,14.174,12.811,19.529C100.756,146.496,101.053,146.738,101.331,146.974z M136.773,262.546
			c-0.299,0.324-0.601,0.647-0.898,0.973c-4.063,4.43-7.502,9.27-9.798,14.866c-2.524,6.151-3.836,12.475-2.529,19.113
			c1.807,9.173,8.687,13.907,17.807,11.892c3.141-0.694,6.247-2.134,9.013-3.818c6.331-3.855,11.143-9.4,15.592-15.24
			c7.762-10.188,13.771-21.364,18.482-33.247c3.315-8.361,5.826-16.972,7.644-25.782c0.467-2.262,0.38-2.352-1.961-2.191
			c-3.395,0.231-6.787,0.566-10.186,0.668c-12.547,0.377-25.101,0.596-37.646,1.032c-9.044,0.314-18.054,1.094-26.785,3.714
			c-5.374,1.612-10.324,4.007-13.891,8.543c-6.936,8.823-3.076,20.953,7.672,24.19c3.869,1.166,7.798,1.197,11.758,0.516
			C126.532,266.831,131.673,264.903,136.773,262.546z M98.986,329.54c7.725,0.026,14.432-6.633,14.491-14.387
			c0.063-8.174-6.451-14.874-14.462-14.878c-8.117-0.003-14.905,6.718-14.902,14.755C84.116,323.042,90.748,329.512,98.986,329.54z
			 M52.142,110.396c-0.034,7.258,5.541,12.937,12.714,12.95c7.037,0.014,12.824-5.605,12.864-12.49
			c0.042-7.305-5.62-13.092-12.802-13.082C57.982,97.784,52.174,103.522,52.142,110.396z M91.473,283.21
			c-0.012,5.316,3.97,9.342,9.248,9.351c5.166,0.01,9.361-4.178,9.356-9.341c-0.004-5.117-4.115-9.264-9.21-9.292
			C95.68,273.899,91.484,278.045,91.473,283.21z M69.009,148.462c3.984,0.023,7.048-2.979,7.051-6.906
			c0.002-3.998-2.951-6.978-6.947-7.009c-3.87-0.03-6.93,2.971-6.957,6.823C62.128,145.379,65.085,148.439,69.009,148.462z"/>
		<path fill-rule="evenodd" clip-rule="evenodd" fill="#FFFFFF" d="M311.856,217.466c7.846-6.687,7.778-16.664,0.861-21.745
			c1.927-1.146,3.873-2.216,5.729-3.425c7.017-4.57,13.037-10.151,17.09-17.581c2.519-4.616,3.77-9.551,2.61-14.832
			c-1.479-6.744-7.2-11.647-14.674-12.46c-2.342-0.254-4.734-0.04-7.284-0.425c2.281-2.254,4.729-4.366,6.809-6.792
			c3.914-4.568,6.641-9.761,7.28-15.873c1.068-10.201-5.474-17.477-15.753-17.425c-6.842,0.035-12.998,2.486-18.872,5.715
			c-12.541,6.893-22.883,16.456-32.359,27.015c-9.988,11.13-18.85,23.086-25.656,36.452c-6.061,11.9-10.642,24.299-12.103,37.696
			c-0.129,1.181,0.271,1.582,1.296,1.846c10.12,2.603,20.401,4.299,30.776,5.431c10.271,1.121,20.569,1.7,30.914,1.487
			c1.885-0.039,3.81,0.734,5.678,1.268c11.517,3.285,22.705,7.365,32.909,13.791c7.482,4.711,13.891,10.472,18.05,18.436
			c3.211,6.146,4.104,12.531,2.147,19.275c-0.193,0.664,0.189,1.706,0.648,2.313c2.558,3.38,4.479,7.045,5.466,11.184
			c1.642,6.887,0.354,13.171-3.954,18.788c-0.758,0.987-0.929,1.812-0.57,3.037c2.416,8.24,2.277,16.36-1.181,24.357
			c-5.133,11.875-16.83,16.14-26.779,15.171c-11.173-1.087-20.333-6.255-27.906-14.382c-0.848-0.91-1.616-1.218-2.893-1.058
			c-8.071,1.014-15.184-1.662-21.77-6.022c-7.638-5.057-13.799-11.637-19.127-19.025c-15-20.801-23.989-44.165-29.532-69.027
			c-0.67-3.004-0.367-5.831,0.058-8.745c1.413-9.675,1.368-19.345-0.076-29.016c-0.11-0.734-0.069-1.566,0.167-2.264
			c7.527-22.285,18.857-42.443,33.888-60.535c9.274-11.163,19.482-21.373,31.153-30.016c18.21-13.484,38.192-23.179,60.592-27.441
			c7.372-1.403,14.807-2.195,22.293-0.906c6.827,1.176,12.518,4.081,15.485,10.796c1.927,4.361,1.847,8.908,0.976,13.481
			c-1.458,7.655-4.83,14.469-9.329,20.752c-0.84,1.173-1.126,2.25-0.92,3.7c1.553,10.9-1.793,20.027-10.178,27.216
			c-1.266,1.084-2.092,2.176-2.452,3.922c-3.802,18.403-12.522,33.88-27.627,45.399c-6.272,4.783-13.388,7.975-20.891,10.324
			C312.643,217.386,312.419,217.387,311.856,217.466z M280.693,262.579c3.316,1.292,6.454,2.712,9.715,3.74
			c5.416,1.706,10.958,2.725,16.625,1.244c5.878-1.537,10.11-4.983,11.662-11.025c1.54-6-0.342-11.117-4.695-15.376
			c-4.087-3.999-9.232-5.954-14.631-7.34c-9.194-2.36-18.62-2.836-28.038-3.21c-14.767-0.586-29.541-1.021-44.31-1.56
			c-1.337-0.049-1.658,0.354-1.402,1.646c2.384,12.028,5.986,23.666,11.196,34.776c5.666,12.083,12.414,23.476,21.763,33.14
			c4.627,4.783,9.749,8.864,16.352,10.62c9.497,2.526,17.015-2.156,18.873-11.795c1.502-7.8-0.423-15.042-3.844-21.984
			C287.606,270.683,284.418,266.482,280.693,262.579z M318.429,329.535c7.885,0.14,14.587-6.366,14.71-14.278
			c0.125-8.064-6.422-14.842-14.449-14.958c-7.977-0.116-14.692,6.281-14.852,14.148
			C303.669,322.777,310.063,329.388,318.429,329.535z M352.783,123.377c7.167-0.042,12.928-5.816,12.86-12.888
			c-0.067-7.045-5.86-12.76-12.87-12.698c-7.046,0.063-12.849,5.952-12.815,13.007C339.99,117.667,345.855,123.419,352.783,123.377z
			 M325.857,283.421c0.05-5.253-4.012-9.459-9.166-9.494c-5.102-0.035-9.369,4.075-9.453,9.104c-0.088,5.202,4.114,9.512,9.35,9.589
			C321.664,292.697,325.809,288.583,325.857,283.421z M355.417,141.361c0.015-3.976-2.829-6.818-6.839-6.836
			c-3.933-0.018-6.962,3.021-6.97,6.989c-0.008,3.944,2.91,6.916,6.799,6.926C352.505,148.45,355.402,145.525,355.417,141.361z"/>
		<path fill-rule="evenodd" clip-rule="evenodd" fill="#FFFFFF" d="M190.185,209.109c-3.177-3.799-6.25-7.83-9.689-11.52
			c-10.185-10.932-22.053-19.813-34.594-27.839c-12.896-8.252-26.461-15.239-40.341-21.677c-2.595-1.204-4.814-3.409-6.912-5.455
			c-4.702-4.584-8.336-9.859-9.711-16.462c-2.271-10.914,5.209-19.102,16.299-17.829c6.343,0.728,12.078,3.159,17.51,6.311
			c12.298,7.138,22.568,16.692,31.915,27.292c9.742,11.048,18.325,22.912,24.897,36.143c4.781,9.623,8.669,19.572,10.496,30.229
			C190.11,208.627,190.16,208.954,190.185,209.109z"/>
		<path fill-rule="evenodd" clip-rule="evenodd" fill="#FFFFFF" d="M227.733,209.526c1.448-10.144,4.705-19.681,9.163-28.772
			c11.381-23.207,27.236-42.879,47.421-59.015c6.572-5.254,13.734-9.569,21.826-12.142c3.604-1.146,7.288-1.644,11.069-1.143
			c7.236,0.959,12.426,6.628,11.784,15.038c-0.584,7.665-4.646,13.567-9.781,18.919c-3.374,3.517-7.357,5.996-11.793,8.013
			c-19.882,9.04-38.663,19.949-55.706,33.689c-8.364,6.743-16.186,14.046-22.369,22.93
			C228.784,207.853,228.271,208.698,227.733,209.526z"/>
		<path fill-rule="evenodd" clip-rule="evenodd" fill="#FFFFFF" d="M190.258,213.729c-3.508-1.388-7.061-2.673-10.516-4.181
			c-11.719-5.113-23.994-8.27-36.511-10.638c-11.863-2.244-23.826-3.521-35.883-3.983c-0.485-0.018-1.013-0.114-1.438-0.334
			c-8.967-4.639-16.81-10.585-22.081-19.412c-2.543-4.258-4.112-8.845-3.26-13.876c1.187-7.011,6.313-11.628,13.745-12.584
			c4.741-0.609,9.238-0.02,13.666,2.046c17.281,8.065,33.934,17.195,49.373,28.443c10.187,7.422,19.663,15.637,27.592,25.487
			c2.151,2.672,3.866,5.696,5.781,8.559C190.568,213.414,190.414,213.571,190.258,213.729z"/>
		<path fill-rule="evenodd" clip-rule="evenodd" fill="#FFFFFF" d="M227.225,213.77c1.952-4.468,4.559-8.055,7.472-11.452
			c10.161-11.851,22.361-21.279,35.316-29.82c13.496-8.897,27.688-16.536,42.547-22.855c5.973-2.54,15.486-1.574,20.512,3.707
			c5.006,5.262,5,11.416,2.603,17.78c-2.156,5.724-5.903,10.434-10.543,14.255c-3.981,3.279-8.43,5.999-12.729,8.879
			c-0.685,0.459-1.666,0.619-2.521,0.658c-21.779,0.987-43.167,4.189-63.81,11.444c-5.515,1.939-10.881,4.299-16.317,6.461
			C229.034,213.114,228.301,213.37,227.225,213.77z"/>
		<path fill-rule="evenodd" clip-rule="evenodd" fill="#FFFFFF" d="M188.65,214.568c-20.521,4.663-41.15,7.513-62.138,6.406
			c-5.101-0.269-10.208-1.065-15.226-2.057c-5.03-0.994-11.88-7.798-10.036-15.66c0.584-2.49,1.883-4.557,3.966-6.01
			c0.76-0.531,1.843-0.904,2.757-0.865c21.558,0.918,42.738,4.052,63.162,11.273C177.048,209.747,182.815,212.252,188.65,214.568z"
			/>
		<path fill-rule="evenodd" clip-rule="evenodd" fill="#FFFFFF" d="M228.567,214.807c3.92-1.606,7.405-3.013,10.875-4.458
			c16.391-6.829,33.569-10.463,51.127-12.462c6.2-0.706,12.439-1.098,18.669-1.487c1.049-0.065,2.343,0.355,3.185,0.995
			c4.888,3.717,5.521,10.388,1.571,15.85c-2.806,3.878-6.704,5.772-11.404,6.533c-9.472,1.534-18.99,1.706-28.526,1.263
			C258.89,220.336,243.897,218.209,228.567,214.807z"/>
		<path fill-rule="evenodd" clip-rule="evenodd" fill="#FFFFFF" d="M209.32,255.979c-2.718-1.704-3.916-4.104-5.013-6.543
			c-2.956-6.571-4.492-13.535-5.269-20.646c-1.208-11.067-0.729-22.063,2.263-32.846c0.696-2.51,1.726-4.936,2.714-7.355
			c0.937-2.297,2.89-3.207,5.228-3.19c2.256,0.016,3.84,1.118,4.799,3.261c2.695,6.022,4.16,12.356,4.823,18.874
			c1.364,13.419,0.371,26.619-4.167,39.416c-0.703,1.983-1.656,3.9-2.699,5.731C211.328,253.856,210.281,254.82,209.32,255.979z"/>
		<path fill-rule="evenodd" clip-rule="evenodd" fill="#FFFFFF" d="M204.732,185.688c-3.191-4.543-3.139-10.841-0.015-14.715
			c2.652-3.29,6.145-3.23,8.659,0.149c2.913,3.914,2.985,10.326,0.04,14.473C210.592,183.984,207.666,183.954,204.732,185.688z"/>
		<path fill-rule="evenodd" clip-rule="evenodd" fill="#FFFFFF" d="M158.458,92.064c3.954,0.103,7.113,3.456,7.047,7.479
			c-0.063,3.86-3.567,7.169-7.478,7.061c-3.919-0.108-7.311-3.604-7.185-7.406C150.975,95.18,154.413,91.959,158.458,92.064z"/>
		<path fill-rule="evenodd" clip-rule="evenodd" fill="#FFFFFF" d="M259.878,106.594c-3.982-0.021-7.239-3.329-7.192-7.304
			c0.046-3.968,3.394-7.304,7.281-7.255c3.979,0.049,7.226,3.34,7.218,7.316C267.178,103.267,263.801,106.614,259.878,106.594z"/>
		<path fill-rule="evenodd" clip-rule="evenodd" fill="#FFFFFF" d="M209.06,129.992c-7.704-11.73-16.694-22.57-22.098-35.655
			c-4.054-9.816-6.382-19.975-6.066-30.629c0.35-11.827,4.155-22.645,10.132-32.735c4.995-8.432,11.294-15.906,17.571-23.388
			c0.143-0.17,0.236-0.383,0.454-0.744c2.983,3.661,5.817,7.084,8.592,10.555c6.583,8.236,12.245,17.009,15.827,27.015
			c5.705,15.938,4.605,31.674-1.263,47.295c-3.742,9.963-9.523,18.766-15.57,27.419C214.148,122.689,211.664,126.257,209.06,129.992
			z M209.183,109.485c0.306-0.327,0.523-0.505,0.675-0.728c4.459-6.551,8.735-13.205,11.387-20.746
			c2.542-7.228,3.498-14.57,1.949-22.19c-2.015-9.915-7.115-18.173-13.449-25.811c-0.16-0.192-0.425-0.296-0.623-0.429
			c-0.228,0.148-0.383,0.22-0.5,0.331c-0.242,0.231-0.479,0.469-0.69,0.728c-4.388,5.385-8.197,11.106-10.725,17.639
			c-2.867,7.407-3.874,14.971-2.27,22.793c2.146,10.46,7.687,19.276,13.636,27.884C208.691,109.129,208.896,109.241,209.183,109.485
			z"/>
		<path fill-rule="evenodd" clip-rule="evenodd" fill="#FFFFFF" d="M140.512,348.301c-3.906,26.942-21.124,43.683-49.864,45.709
			c0.285-2.465,0.445-4.888,0.861-7.267c1.677-9.587,5.551-18.11,12.637-24.943c5.827-5.618,12.87-9.172,20.576-11.396
			c4.75-1.371,9.587-2.442,14.386-3.647c0.094,0.166,0.188,0.332,0.282,0.498c-2.124,2.081-4.135,4.294-6.393,6.218
			c-7.386,6.291-14.867,12.469-22.286,18.72c-0.385,0.324-0.542,0.919-0.805,1.388c0.531-0.113,1.179-0.069,1.578-0.363
			c9.497-6.989,18.457-14.612,26.786-22.963c0.699-0.7,1.21-1.589,1.808-2.391C140.222,348.009,140.367,348.156,140.512,348.301z"/>
		<path fill-rule="evenodd" clip-rule="evenodd" fill="#FFFFFF" d="M277.101,348.155c3.798,3.604,7.336,7.256,11.183,10.545
			c5.718,4.889,11.655,9.523,17.501,14.263c0.216,0.175,0.435,0.389,0.688,0.466c0.374,0.115,0.781,0.124,1.175,0.179
			c-0.154-0.401-0.192-0.949-0.481-1.179c-2.62-2.081-5.415-3.96-7.911-6.176c-6.876-6.104-13.635-12.342-20.436-18.532
			c-0.156-0.142-0.27-0.33-0.683-0.843c2.554,0.536,4.741,0.964,6.915,1.458c7.529,1.711,14.859,3.948,21.469,8.109
			c11.614,7.313,17.604,18.135,19.646,31.42c0.271,1.761,0.391,3.545,0.568,5.32c0.022,0.213-0.033,0.434-0.079,0.953
			c-10.232-0.9-19.855-3.44-28.439-9.201C286.543,377.104,279.91,365.506,277.101,348.155z"/>
		<path fill-rule="evenodd" clip-rule="evenodd" fill="#FFFFFF" d="M339.82,35.245c0.238,22.885-14.245,45.111-43.33,51.926
			c3.048-5.743,6.303-11.176,10.484-15.93c4.146-4.713,8.646-9.112,13.395-14.069c-0.921,0.329-1.644,0.376-2.037,0.76
			c-4.024,3.932-8.35,7.629-11.887,11.966c-3.821,4.685-6.891,9.982-10.289,15.012c-0.14,0.207-0.284,0.41-0.52,0.748
			C294.81,59.302,312.516,37.101,339.82,35.245z"/>
		<path fill-rule="evenodd" clip-rule="evenodd" fill="#FFFFFF" d="M97.663,57.897c9.763,8.263,18.021,17.737,23.864,29.365
			c-13.034-3.527-24.619-9.167-32.91-20.148c-7.1-9.403-10.706-20.001-10.822-31.835c22.99,1.017,44.847,19.291,44.667,50.292
			c-0.337-0.449-0.574-0.698-0.734-0.989c-5.644-10.23-12.995-19.047-21.962-26.521c-0.481-0.401-1.142-0.588-1.719-0.875
			C97.919,57.424,97.791,57.661,97.663,57.897z"/>
		<path fill-rule="evenodd" clip-rule="evenodd" fill="#FFFFFF" d="M78.51,221.176c-6.61,6.289-12.997,12.106-21.016,15.714
			c-8.17,3.676-16.598,4.109-25.178,1.668c-10.395-2.958-18.308-9.649-25.861-17.19c6.024-6.057,12.281-11.535,20.012-15.063
			c4.923-2.247,10.086-3.556,15.513-3.655c9.088-0.167,17.05,3.106,24.206,8.395C70.39,214.152,74.284,217.679,78.51,221.176z
			 M66.26,221.034c-3.223-2.205-6.191-4.473-9.383-6.363c-4.446-2.632-9.292-3.922-14.54-3.497
			c-7.458,0.604-13.322,4.329-18.618,9.259c-0.913,0.849-0.488,1.392,0.183,2.042C37.005,235.158,52.485,234.508,66.26,221.034z"/>
		<path fill-rule="evenodd" clip-rule="evenodd" fill="#FFFFFF" d="M339.205,221.385c5.289-5.014,10.463-9.878,16.672-13.407
			c13.043-7.413,26.082-6.931,38.994,0.366c6.027,3.406,11.113,8.009,16.162,13.103c-2.6,2.357-5.085,4.727-7.695,6.949
			c-5.982,5.094-12.6,9.017-20.368,10.757c-10.197,2.283-19.598,0.223-28.397-5.155
			C348.913,230.541,344.152,225.995,339.205,221.385z M351.173,221.619c2.685,1.921,5.127,3.854,7.744,5.51
			c12.477,7.895,24.949,4.821,34.761-4.814c0.742-0.729,0.699-1.271-0.065-1.914c-0.896-0.752-1.711-1.6-2.613-2.342
			C377.269,206.766,363.245,210.179,351.173,221.619z"/>
		<path fill-rule="evenodd" clip-rule="evenodd" fill="#FFFFFF" d="M208.994,329.799c15.329,18.153,17.035,37.698,0.027,56.973
			c-6.386-7.353-11.235-15.433-12.034-25.306C195.986,349.099,201.559,339.091,208.994,329.799z"/>
		<path fill-rule="evenodd" clip-rule="evenodd" fill="#FFFFFF" d="M223.318,296.311c-6.707,3.964-10.963,9.839-14.217,16.787
			c-3.246-6.863-7.568-12.7-14.27-16.796c7.282-5.153,11.542-12.289,14.29-20.763C211.698,284.132,216.024,291.165,223.318,296.311z
			"/>
		<path fill-rule="evenodd" clip-rule="evenodd" fill="#FFFFFF" d="M143.314,65.074c0.026-4.253,3.527-7.79,7.725-7.802
			c4.443-0.012,7.933,3.479,7.944,7.947c0.011,4.315-3.552,7.819-7.909,7.781C146.725,72.961,143.287,69.451,143.314,65.074z"/>
		<path fill-rule="evenodd" clip-rule="evenodd" fill="#FFFFFF" d="M274.999,65.036c0.031,4.318-3.482,7.917-7.782,7.972
			c-4.314,0.055-7.981-3.503-7.988-7.754c-0.007-4.244,3.608-7.933,7.829-7.99C271.385,57.206,274.968,60.712,274.999,65.036z"/>
		<path fill-rule="evenodd" clip-rule="evenodd" fill="#FFFFFF" d="M30.776,260.071c4.056,0.036,7.355,3.407,7.375,7.538
			c0.02,4.068-3.475,7.599-7.534,7.61c-4.176,0.012-7.692-3.518-7.631-7.661C23.048,263.341,26.489,260.034,30.776,260.071z"/>
		<path fill-rule="evenodd" clip-rule="evenodd" fill="#FFFFFF" d="M395.437,267.539c-0.034,4.198-3.561,7.731-7.659,7.676
			c-4.09-0.055-7.506-3.454-7.493-7.453c0.014-4.362,3.44-7.79,7.729-7.732C392.065,260.084,395.471,263.529,395.437,267.539z"/>
		<path fill-rule="evenodd" clip-rule="evenodd" fill="#FFFFFF" d="M29.114,169.457c3.778,0.011,6.838,3.036,6.852,6.773
			c0.013,3.767-3.177,6.93-6.95,6.892c-3.768-0.039-6.827-3.08-6.846-6.807C22.15,172.521,25.265,169.445,29.114,169.457z"/>
		<path fill-rule="evenodd" clip-rule="evenodd" fill="#FFFFFF" d="M161.764,340.033c3.56,0.016,6.708,3.212,6.697,6.799
			c-0.012,3.737-3.132,6.842-6.842,6.806c-3.642-0.035-6.73-3.165-6.682-6.772C154.989,343.084,158.053,340.016,161.764,340.033z"/>
		<path fill-rule="evenodd" clip-rule="evenodd" fill="#FFFFFF" d="M389.461,183.13c-3.746-0.097-6.806-3.231-6.732-6.896
			c0.077-3.863,3.291-6.885,7.197-6.766c3.86,0.117,6.781,3.249,6.634,7.112C396.421,180.208,393.15,183.227,389.461,183.13z"/>
		<path fill-rule="evenodd" clip-rule="evenodd" fill="#FFFFFF" d="M263.195,346.823c0.052,3.498-3.096,6.706-6.688,6.814
			c-3.556,0.107-6.808-2.984-6.907-6.564c-0.104-3.726,3.081-7.067,6.768-7.102C260.006,339.936,263.139,343.081,263.195,346.823z"
			/>
		<path fill-rule="evenodd" clip-rule="evenodd" d="M136.773,262.546c-5.101,2.357-10.241,4.284-15.726,5.229
			c-3.96,0.682-7.89,0.65-11.758-0.516c-10.748-3.237-14.607-15.367-7.672-24.19c3.567-4.537,8.517-6.931,13.891-8.543
			c8.73-2.62,17.741-3.4,26.785-3.714c12.545-0.437,25.099-0.655,37.646-1.032c3.399-0.102,6.791-0.437,10.186-0.668
			c2.342-0.16,2.428-0.07,1.961,2.191c-1.817,8.811-4.329,17.421-7.644,25.782c-4.711,11.882-10.72,23.059-18.482,33.247
			c-4.45,5.84-9.262,11.385-15.592,15.24c-2.766,1.684-5.872,3.125-9.013,3.818c-9.121,2.015-16-2.719-17.807-11.892
			c-1.308-6.638,0.004-12.961,2.529-19.113c2.296-5.597,5.736-10.436,9.798-14.866C136.173,263.194,136.474,262.871,136.773,262.546
			z M191.145,230.815c-0.783,0.16-0.946,0.179-1.1,0.228c-0.479,0.15-0.96,0.295-1.429,0.472
			c-17.191,6.491-32.803,15.65-46.607,27.8c-6.436,5.664-11.795,12.198-14.954,20.286c-2.415,6.182-3.707,12.54-1.794,19.118
			c1.201,4.129,3.452,7.501,7.755,9.018c4.961,1.749,9.611,0.547,14.029-1.755c7.357-3.833,12.783-9.854,17.711-16.32
			c9.18-12.046,16.014-25.367,20.78-39.718C187.586,243.774,189.21,237.463,191.145,230.815z M185.735,230.988
			c-8.588,0.204-17.452,0.4-26.316,0.63c-11.596,0.301-23.213,0.265-34.708,2.214c-5.859,0.994-11.608,2.316-16.75,5.463
			c-5.068,3.103-8.385,7.432-8.42,13.575c-0.042,7.304,5.383,12.748,13.176,13.747c5.587,0.716,10.963-0.226,16.033-2.358
			c4.544-1.911,9.364-3.787,13.12-6.838c9.623-7.817,19.753-14.746,30.797-20.332C177.03,234.883,181.527,232.943,185.735,230.988z"
			/>
		<path fill-rule="evenodd" clip-rule="evenodd" d="M98.986,329.54c-8.238-0.028-14.871-6.499-14.874-14.51
			c-0.003-8.038,6.785-14.759,14.902-14.755c8.012,0.004,14.525,6.704,14.462,14.878C113.418,322.907,106.711,329.566,98.986,329.54
			z M98.852,328.168c7.263,0.012,13.245-6.018,13.273-13.378c0.027-7.066-5.898-13.029-12.983-13.066
			c-7.479-0.04-13.622,5.889-13.647,13.17C85.468,322.188,91.474,328.156,98.852,328.168z"/>
		<path fill-rule="evenodd" clip-rule="evenodd" d="M52.142,110.396c0.032-6.874,5.84-12.613,12.776-12.622
			c7.182-0.01,12.844,5.777,12.802,13.082c-0.04,6.885-5.827,12.504-12.864,12.49C57.683,123.333,52.108,117.655,52.142,110.396z
			 M64.883,121.919c6.318,0.021,11.449-5,11.503-11.259c0.054-6.249-5.057-11.414-11.333-11.451
			c-6.37-0.038-11.535,5.06-11.554,11.404C53.48,116.935,58.478,121.897,64.883,121.919z"/>
		<path fill-rule="evenodd" clip-rule="evenodd" d="M91.473,283.21c0.012-5.165,4.207-9.311,9.394-9.282
			c5.096,0.028,9.206,4.175,9.21,9.292c0.004,5.163-4.19,9.351-9.356,9.341C95.442,292.552,91.461,288.526,91.473,283.21z
			 M92.829,283.447c0.034,4.252,3.587,7.802,7.781,7.773c4.548-0.032,8.17-3.636,8.099-8.059c-0.072-4.466-3.589-7.887-8.075-7.854
			C96.306,275.339,92.793,279.002,92.829,283.447z"/>
		<path fill-rule="evenodd" clip-rule="evenodd" d="M69.009,148.462c-3.924-0.022-6.881-3.083-6.853-7.092
			c0.027-3.852,3.087-6.853,6.957-6.823c3.996,0.031,6.949,3.011,6.947,7.009C76.058,145.483,72.993,148.485,69.009,148.462z
			 M63.539,141.407c-0.034,3.218,2.312,5.671,5.47,5.722c3.132,0.05,5.667-2.396,5.712-5.512c0.045-3.12-2.423-5.699-5.506-5.752
			C66.11,135.81,63.572,138.289,63.539,141.407z"/>
		<path fill-rule="evenodd" clip-rule="evenodd" d="M280.693,262.579c3.725,3.903,6.913,8.104,9.264,12.875
			c3.421,6.943,5.346,14.185,3.844,21.984c-1.857,9.639-9.376,14.321-18.873,11.795c-6.603-1.756-11.725-5.837-16.352-10.62
			c-9.349-9.664-16.097-21.057-21.763-33.14c-5.21-11.11-8.812-22.748-11.196-34.776c-0.256-1.292,0.064-1.694,1.402-1.646
			c14.769,0.539,29.542,0.974,44.31,1.56c9.418,0.374,18.844,0.85,28.038,3.21c5.399,1.386,10.544,3.341,14.631,7.34
			c4.354,4.259,6.235,9.376,4.695,15.376c-1.552,6.042-5.784,9.488-11.662,11.025c-5.666,1.481-11.208,0.461-16.625-1.244
			C287.147,265.291,284.01,263.871,280.693,262.579z M227.071,230.789c0.108,0.672,0.147,0.999,0.215,1.319
			c3.371,15.939,8.947,31.038,17.175,45.128c4.944,8.467,10.558,16.417,17.842,23.073c3.837,3.505,8.084,6.337,13.168,7.677
			c8.284,2.184,14.503-1.497,16.694-9.755c1.346-5.07,0.872-10.062-0.572-15.003c-2.783-9.524-8.61-17.042-15.847-23.557
			c-13.118-11.81-28.134-20.573-44.369-27.339C230.055,231.78,228.676,231.36,227.071,230.789z M231.888,230.8
			c-0.022,0.083-0.044,0.167-0.067,0.25c0.275,0.139,0.542,0.3,0.827,0.414c12.079,4.844,23.307,11.225,33.789,18.905
			c3.416,2.503,6.417,5.612,9.967,7.879c7.057,4.506,14.667,7.827,23.156,8.545c4.742,0.401,9.291-0.354,13.146-3.349
			c6.663-5.176,6.86-15.179,0.497-21.228c-3.267-3.105-7.195-5.041-11.47-6.331c-8.293-2.501-16.848-3.354-25.436-3.685
			c-12.766-0.492-25.542-0.7-38.314-1.052C235.951,231.094,233.92,230.919,231.888,230.8z"/>
		<path fill-rule="evenodd" clip-rule="evenodd" d="M318.429,329.535c-8.366-0.147-14.76-6.758-14.591-15.087
			c0.16-7.867,6.875-14.264,14.852-14.148c8.027,0.116,14.574,6.894,14.449,14.958C333.016,323.169,326.313,329.675,318.429,329.535
			z M318.549,328.185c7.214-0.006,13.256-6.025,13.261-13.209c0.005-7.204-6.155-13.307-13.41-13.286
			c-7.322,0.021-13.254,6.023-13.226,13.384C305.2,322.186,311.326,328.191,318.549,328.185z"/>
		<path fill-rule="evenodd" clip-rule="evenodd" d="M352.783,123.377c-6.928,0.042-12.793-5.71-12.825-12.578
			c-0.033-7.055,5.77-12.944,12.815-13.007c7.01-0.063,12.803,5.653,12.87,12.698C365.711,117.561,359.95,123.334,352.783,123.377z
			 M352.857,121.951c6.141,0.043,11.395-5.094,11.449-11.193c0.057-6.288-5.01-11.484-11.257-11.543
			c-6.433-0.061-11.674,5.077-11.706,11.477C341.312,116.932,346.398,121.906,352.857,121.951z"/>
		<path fill-rule="evenodd" clip-rule="evenodd" d="M325.857,283.421c-0.049,5.162-4.193,9.275-9.27,9.2
			c-5.235-0.078-9.438-4.387-9.35-9.589c0.084-5.029,4.352-9.139,9.453-9.104C321.846,273.962,325.907,278.168,325.857,283.421z
			 M324.504,283.405c0.013-4.568-3.489-8.13-7.981-8.117c-4.281,0.012-7.852,3.612-7.856,7.922c-0.005,4.419,3.548,8.005,7.937,8.01
			C320.992,291.225,324.491,287.764,324.504,283.405z"/>
		<path fill-rule="evenodd" clip-rule="evenodd" d="M355.417,141.361c-0.015,4.164-2.912,7.089-7.01,7.079
			c-3.889-0.01-6.807-2.982-6.799-6.926c0.008-3.968,3.037-7.007,6.97-6.989C352.588,134.543,355.432,137.386,355.417,141.361z
			 M354.124,141.468c-0.014-3.196-2.433-5.625-5.59-5.613c-3.063,0.011-5.595,2.583-5.595,5.683
			c-0.001,3.191,2.414,5.595,5.611,5.585C351.674,147.113,354.138,144.613,354.124,141.468z"/>
		<path fill-rule="evenodd" clip-rule="evenodd" d="M209.183,109.485c-0.287-0.244-0.491-0.356-0.61-0.528
			c-5.949-8.608-11.49-17.424-13.636-27.884c-1.604-7.822-0.597-15.386,2.27-22.793c2.528-6.533,6.337-12.254,10.725-17.639
			c0.211-0.258,0.449-0.497,0.69-0.728c0.117-0.111,0.272-0.183,0.5-0.331c0.197,0.133,0.463,0.236,0.623,0.429
			c6.334,7.637,11.434,15.896,13.449,25.811c1.549,7.62,0.593,14.962-1.949,22.19c-2.652,7.541-6.928,14.195-11.387,20.746
			C209.706,108.979,209.489,109.158,209.183,109.485z M209.12,41.342c-5.087,6.245-9.203,12.734-11.607,20.237
			c-2.418,7.548-2.59,15.065-0.351,22.702c1.792,6.113,4.678,11.669,8.011,17.031c1.239,1.993,2.568,3.931,3.855,5.895
			c0.204,0.028,0.408,0.057,0.611,0.086c2.983-5.406,6.209-10.694,8.882-16.249c2.88-5.983,4.365-12.429,4.046-19.123
			C222.006,60.119,216.447,50.46,209.12,41.342z"/>
		<path fill-rule="evenodd" clip-rule="evenodd" d="M66.26,221.034c-13.775,13.474-29.255,14.125-42.357,1.44
			c-0.671-0.65-1.096-1.192-0.183-2.042c5.296-4.93,11.159-8.655,18.618-9.259c5.248-0.425,10.094,0.865,14.54,3.497
			C60.069,216.561,63.037,218.829,66.26,221.034z M63.966,221.363c-14.593-13.103-28.787-10.572-38.967,0.079
			C34.997,231.757,49.606,234.508,63.966,221.363z"/>
		<path fill-rule="evenodd" clip-rule="evenodd" d="M351.173,221.619c12.072-11.439,26.096-14.853,39.826-3.56
			c0.902,0.742,1.718,1.59,2.613,2.342c0.765,0.643,0.808,1.184,0.065,1.914c-9.812,9.635-22.284,12.709-34.761,4.814
			C356.3,225.472,353.857,223.54,351.173,221.619z M353.495,221.39c14.728,13.585,30.095,9.797,38.913-0.142
			C380.841,209.65,366.642,209.393,353.495,221.39z"/>
		<path fill-rule="evenodd" clip-rule="evenodd" fill="#FFFFFF" d="M191.145,230.815c-1.935,6.647-3.559,12.958-5.608,19.128
			c-4.767,14.351-11.601,27.672-20.78,39.718c-4.928,6.467-10.354,12.487-17.711,16.32c-4.418,2.302-9.068,3.504-14.029,1.755
			c-4.304-1.516-6.554-4.888-7.755-9.018c-1.913-6.578-0.621-12.936,1.794-19.118c3.159-8.088,8.519-14.622,14.954-20.286
			c13.805-12.15,29.417-21.309,46.607-27.8c0.469-0.177,0.951-0.321,1.429-0.472C190.199,230.995,190.362,230.976,191.145,230.815z"
			/>
		<path fill-rule="evenodd" clip-rule="evenodd" fill="#FFFFFF" d="M185.735,230.988c-4.208,1.955-8.705,3.896-13.068,6.102
			c-11.044,5.586-21.175,12.515-30.797,20.332c-3.756,3.051-8.575,4.927-13.12,6.838c-5.07,2.132-10.446,3.075-16.033,2.358
			c-7.793-0.999-13.218-6.443-13.176-13.747c0.035-6.144,3.352-10.473,8.42-13.575c5.142-3.147,10.891-4.469,16.75-5.463
			c11.494-1.95,23.111-1.914,34.708-2.214C168.283,231.388,177.147,231.192,185.735,230.988z"/>
		<path fill-rule="evenodd" clip-rule="evenodd" fill="#FFFFFF" d="M98.852,328.168c-7.378-0.012-13.384-5.98-13.357-13.274
			c0.026-7.282,6.169-13.21,13.647-13.17c7.085,0.037,13.01,6,12.983,13.066C112.096,322.15,106.114,328.18,98.852,328.168z"/>
		<path fill-rule="evenodd" clip-rule="evenodd" fill="#FFFFFF" d="M64.883,121.919c-6.405-0.022-11.403-4.985-11.384-11.306
			c0.019-6.344,5.184-11.442,11.554-11.404c6.276,0.037,11.387,5.202,11.333,11.451C76.332,116.919,71.201,121.94,64.883,121.919z"
			/>
		<path fill-rule="evenodd" clip-rule="evenodd" fill="#FFFFFF" d="M92.829,283.447c-0.036-4.445,3.477-8.108,7.805-8.14
			c4.486-0.033,8.003,3.388,8.075,7.854c0.071,4.423-3.551,8.027-8.099,8.059C96.416,291.249,92.863,287.7,92.829,283.447z"/>
		<path fill-rule="evenodd" clip-rule="evenodd" fill="#FFFFFF" d="M63.539,141.407c0.033-3.119,2.571-5.598,5.676-5.543
			c3.083,0.054,5.551,2.632,5.506,5.752c-0.045,3.117-2.58,5.562-5.712,5.512C65.851,147.078,63.505,144.625,63.539,141.407z"/>
		<path fill-rule="evenodd" clip-rule="evenodd" fill="#FFFFFF" d="M227.071,230.789c1.604,0.571,2.983,0.991,4.307,1.542
			c16.234,6.766,31.25,15.529,44.369,27.339c7.237,6.515,13.063,14.033,15.847,23.557c1.444,4.941,1.918,9.933,0.572,15.003
			c-2.191,8.259-8.41,11.939-16.694,9.755c-5.084-1.34-9.331-4.171-13.168-7.677c-7.285-6.657-12.898-14.606-17.842-23.073
			c-8.228-14.09-13.804-29.189-17.175-45.128C227.218,231.788,227.18,231.461,227.071,230.789z"/>
		<path fill-rule="evenodd" clip-rule="evenodd" fill="#FFFFFF" d="M231.888,230.8c2.032,0.12,4.063,0.294,6.096,0.35
			c12.771,0.352,25.548,0.56,38.314,1.052c8.588,0.331,17.143,1.184,25.436,3.685c4.275,1.29,8.204,3.225,11.47,6.331
			c6.363,6.049,6.166,16.052-0.497,21.228c-3.855,2.996-8.404,3.75-13.146,3.349c-8.49-0.718-16.1-4.039-23.156-8.545
			c-3.551-2.267-6.552-5.376-9.967-7.879c-10.482-7.68-21.71-14.061-33.789-18.905c-0.285-0.114-0.552-0.275-0.827-0.414
			C231.844,230.967,231.866,230.883,231.888,230.8z"/>
		<path fill-rule="evenodd" clip-rule="evenodd" fill="#FFFFFF" d="M318.549,328.185c-7.223,0.006-13.349-5.999-13.375-13.112
			c-0.028-7.36,5.904-13.363,13.226-13.384c7.255-0.021,13.415,6.082,13.41,13.286C331.805,322.16,325.763,328.179,318.549,328.185z
			"/>
		<path fill-rule="evenodd" clip-rule="evenodd" fill="#FFFFFF" d="M352.857,121.951c-6.459-0.045-11.546-5.02-11.514-11.26
			c0.032-6.399,5.273-11.538,11.706-11.477c6.247,0.059,11.313,5.255,11.257,11.543
			C364.252,116.857,358.998,121.994,352.857,121.951z"/>
		<path fill-rule="evenodd" clip-rule="evenodd" fill="#FFFFFF" d="M324.504,283.405c-0.013,4.359-3.512,7.82-7.901,7.814
			c-4.389-0.005-7.941-3.591-7.937-8.01c0.005-4.31,3.575-7.91,7.856-7.922C321.015,275.274,324.517,278.837,324.504,283.405z"/>
		<path fill-rule="evenodd" clip-rule="evenodd" fill="#FFFFFF" d="M354.124,141.468c0.014,3.146-2.45,5.645-5.573,5.655
			c-3.197,0.01-5.612-2.394-5.611-5.585c0-3.101,2.532-5.672,5.595-5.683C351.691,135.843,354.11,138.271,354.124,141.468z"/>
		<path fill-rule="evenodd" clip-rule="evenodd" fill="#FFFFFF" d="M209.12,41.342c7.327,9.118,12.886,18.777,13.449,30.579
			c0.319,6.694-1.166,13.14-4.046,19.123c-2.673,5.555-5.899,10.843-8.882,16.249c-0.204-0.029-0.408-0.058-0.611-0.086
			c-1.288-1.963-2.616-3.901-3.855-5.895c-3.333-5.361-6.219-10.917-8.011-17.031c-2.239-7.636-2.067-15.154,0.351-22.702
			C199.917,54.076,204.033,47.587,209.12,41.342z"/>
		<path fill-rule="evenodd" clip-rule="evenodd" fill="#FFFFFF" d="M63.966,221.363c-14.36,13.145-28.969,10.394-38.967,0.079
			C35.18,210.791,49.373,208.26,63.966,221.363z"/>
		<path fill-rule="evenodd" clip-rule="evenodd" fill="#FFFFFF" d="M353.495,221.39c13.146-11.997,27.346-11.74,38.913-0.142
			C383.59,231.188,368.223,234.975,353.495,221.39z"/>
	</g>
</g>
</svg>
