<?xml version="1.0" encoding="utf-8"?>
<!-- Generator: Adobe Illustrator 16.0.0, SVG Export Plug-In . SVG Version: 6.00 Build 0)  -->
<!DOCTYPE svg PUBLIC "-//W3C//DTD SVG 1.1//EN" "http://www.w3.org/Graphics/SVG/1.1/DTD/svg11.dtd">
<svg version="1.1" id="Layer_1" xmlns="http://www.w3.org/2000/svg" xmlns:xlink="http://www.w3.org/1999/xlink" x="0px" y="0px"
	 width="612px" height="792px" viewBox="0 0 612 792" enable-background="new 0 0 612 792" xml:space="preserve">
<g>
	<g>
		<path fill-rule="evenodd" clip-rule="evenodd" fill="#FFFFFF" d="M0.335,0.335c140,0,280,0,420,0c0,140,0,280,0,420
			c-140,0-280,0-420,0C0.335,280.335,0.335,140.335,0.335,0.335z M381.748,134.098c-0.859-0.191-1.284-0.271-1.7-0.38
			c-3.382-0.893-7.005-1.295-10.086-2.803c-4.83-2.363-9.425-5.284-13.879-8.319c-5.351-3.646-10.519-7.549-16.465-10.229
			c-8.739-3.937-17.739-6.012-27.34-3.873c-0.292,0.065-0.611,0.008-1.015,0.008c0.628-8.952-3.145-15.992-8.925-22.249
			c-3.293-3.564-6.649-7.096-9.64-10.906c-3.756-4.784-6.556-10.106-7.185-16.323c-0.099-0.982-0.188-1.965-0.291-3.046
			c-13.318,1.268-26.285,3.585-39.037,7.766c0.383-9.916-4.026-17.761-9.882-24.955c-2.603-3.197-5.461-6.198-8.344-9.152
			c-6.816-6.985-12.999-14.42-17.23-23.309c-0.106-0.223-0.312-0.398-0.545-0.689c-4.714,9.601-11.223,17.684-18.461,25.287
			c-3.68,3.866-7.083,8.044-10.221,12.365c-3.646,5.022-6.075,10.659-6.563,16.97c-0.087,1.139-0.114,2.283-0.162,3.274
			c-6.444-1.524-12.749-3.214-19.138-4.471c-6.431-1.265-12.945-2.099-19.613-3.151c-0.307,9.041-4.328,16.104-9.523,22.603
			c-2.75,3.44-5.787,6.65-8.662,9.993c-3.753,4.364-6.917,9.063-7.926,14.882c-0.292,1.682-0.417,3.392-0.59,4.854
			c-3.518-0.198-6.959-0.642-10.384-0.535c-8.091,0.251-15.628,2.725-22.493,6.895c-5.666,3.441-11.02,7.392-16.536,11.081
			c-5.41,3.618-11.041,6.76-17.597,7.804c-1.032,0.164-2.066,0.313-3.419,0.517c1.706,8.105,3.264,16.084,5.085,24.003
			c1.833,7.97,3.928,15.88,5.876,23.689c-1.757,0-3.653-0.175-5.506,0.032c-6.716,0.752-12.123,4.225-17.135,8.479
			c-4.507,3.827-8.954,7.734-13.614,11.366c-2.868,2.235-6.086,4.019-9.168,6.018c0.12,0.098,0.232,0.229,0.374,0.3
			c7.609,3.834,14.055,9.221,20.224,15.007c4.121,3.865,8.462,7.461,13.847,9.517c3.142,1.2,6.367,1.918,9.984,1.504
			c-0.433,1.128-0.75,1.949-1.063,2.772c-0.317,0.834-0.636,1.668-0.941,2.506c-4.896,13.446-6.295,27.458-6.768,41.625
			c-0.033,1,0.417,1.221,1.249,1.576c3.367,1.435,6.975,2.589,9.922,4.661c4.866,3.419,9.36,7.387,13.882,11.274
			c5.473,4.704,11.054,9.227,17.52,12.53c8.285,4.231,16.955,6.142,26.242,4.367c0.394-0.075,0.813-0.009,1.36-0.009
			c-1.782,5.745-1.19,11.216,0.888,16.559c1.717,4.416,4.32,8.314,7.447,11.848c3.883,4.387,7.937,8.625,11.73,13.088
			c4.061,4.778,7.082,10.148,8.153,16.443c0.213,1.253,0.38,2.514,0.588,3.903c13.28-1.346,26.276-3.792,39.454-6.463
			c-0.998,9.234,3.378,15.98,8.954,22.197c1.75,1.95,3.597,3.824,5.511,5.614c6.548,6.12,12.704,12.555,17.038,20.511
			c0.037,0.068,0.176,0.082,0.345,0.154c0.143-0.219,0.309-0.432,0.434-0.667c3.65-6.879,8.583-12.741,14.167-18.118
			c3.495-3.366,6.986-6.753,10.237-10.35c3.684-4.074,6.349-8.774,7.099-14.339c0.22-1.631,0.201-3.294,0.297-5.047
			c13.078,2.744,26.088,5.216,39.052,6.53c0.792-3.154,1.346-6.119,2.287-8.956c2.309-6.964,6.759-12.619,11.359-18.195
			c3.723-4.513,7.511-9.019,10.746-13.876c4.079-6.125,6.039-12.923,4.182-20.385c-0.049-0.196-0.006-0.416-0.006-0.583
			c2.539,0.253,5.014,0.666,7.495,0.717c8.987,0.186,17.107-2.815,24.296-7.865c6.693-4.701,12.927-10.066,19.273-15.248
			c5.472-4.466,10.972-8.809,18.074-10.45c0.366-0.085,0.828-0.852,0.817-1.292c-0.057-2.453-0.239-4.904-0.391-7.354
			c-0.83-13.448-3.182-26.581-8.106-39.181c-0.048-0.122,0.03-0.292,0.06-0.521c5.523,0.624,10.47-1.032,14.884-4.051
			c3.251-2.225,6.312-4.79,9.186-7.493c5.8-5.457,11.859-10.505,19.1-13.97c0.47-0.225,0.917-0.499,1.486-0.812
			c-2.487-1.39-4.803-2.618-7.054-3.956c-6.002-3.566-10.884-8.499-16.029-13.125c-6.535-5.876-13.727-10.188-22.843-8.561
			C374.219,166.047,377.971,150.127,381.748,134.098z M57.799,55.139c0.208,10.982,2.601,21.053,11.155,28.58
			c7.454,6.558,16.474,8.614,26.186,8.343C96.773,69.706,80.174,53.188,57.799,55.139z M362.989,54.776
			c-3.055,0.209-6.029,0.143-8.902,0.652c-19.233,3.412-28.086,18.068-28.328,35.067c-0.018,1.216,0.34,1.788,1.606,1.629
			c3.753-0.469,7.605-0.535,11.244-1.452C356.174,86.244,363.464,71.175,362.989,54.776z M362.51,363.759
			c0.055-0.604,0.167-1.099,0.132-1.583c-0.174-2.39-0.217-4.805-0.612-7.16c-3.365-20.05-19.204-27.647-35.186-27.761
			c-0.933-0.006-1.324,0.364-1.237,1.297c0.238,2.55,0.228,5.146,0.719,7.646c2.507,12.751,9.372,21.886,22.086,25.984
			C352.966,363.65,357.638,364.198,362.51,363.759z M58.202,363.675c5.337,1.028,15.229-0.973,20.285-3.976
			c11.701-6.951,16.063-17.825,16.597-30.791c0.052-1.25-0.406-1.663-1.626-1.645c-4.667,0.069-9.216,0.773-13.652,2.245
			C63.749,334.833,57.583,349.691,58.202,363.675z"/>
		<path fill-rule="evenodd" clip-rule="evenodd" d="M381.748,134.098c-3.777,16.029-7.529,31.949-11.271,47.831
			c9.116-1.627,16.308,2.685,22.843,8.561c5.146,4.626,10.027,9.559,16.029,13.125c2.251,1.337,4.566,2.565,7.054,3.956
			c-0.569,0.313-1.017,0.587-1.486,0.812c-7.24,3.465-13.3,8.514-19.1,13.97c-2.874,2.703-5.935,5.269-9.186,7.493
			c-4.414,3.02-9.36,4.675-14.884,4.051c-0.029,0.229-0.107,0.399-0.06,0.521c4.925,12.601,7.276,25.733,8.106,39.181
			c0.151,2.451,0.334,4.901,0.391,7.354c0.011,0.44-0.451,1.207-0.817,1.292c-7.103,1.641-12.603,5.983-18.074,10.45
			c-6.347,5.182-12.58,10.547-19.273,15.248c-7.188,5.05-15.309,8.051-24.296,7.865c-2.481-0.052-4.956-0.464-7.495-0.717
			c0,0.167-0.043,0.387,0.006,0.583c1.857,7.462-0.103,14.259-4.182,20.385c-3.235,4.857-7.022,9.363-10.746,13.876
			c-4.6,5.576-9.05,11.231-11.359,18.195c-0.941,2.837-1.495,5.802-2.287,8.956c-12.964-1.313-25.974-3.786-39.052-6.53
			c-0.096,1.753-0.077,3.416-0.297,5.047c-0.75,5.565-3.415,10.265-7.099,14.339c-3.251,3.596-6.742,6.983-10.237,10.35
			c-5.583,5.377-10.516,11.239-14.167,18.118c-0.125,0.235-0.291,0.448-0.434,0.667c-0.168-0.072-0.308-0.086-0.345-0.154
			c-4.334-7.956-10.49-14.391-17.038-20.511c-1.914-1.79-3.762-3.664-5.511-5.614c-5.576-6.217-9.952-12.962-8.954-22.197
			c-13.178,2.671-26.174,5.117-39.454,6.463c-0.208-1.39-0.375-2.65-0.588-3.903c-1.072-6.294-4.092-11.665-8.153-16.443
			c-3.793-4.462-7.847-8.701-11.73-13.088c-3.127-3.534-5.73-7.432-7.447-11.848c-2.078-5.343-2.67-10.814-0.888-16.559
			c-0.547,0-0.967-0.066-1.36,0.009c-9.287,1.774-17.958-0.136-26.242-4.367c-6.465-3.303-12.046-7.826-17.52-12.53
			c-4.522-3.887-9.016-7.854-13.882-11.274c-2.947-2.072-6.555-3.226-9.922-4.661c-0.832-0.354-1.282-0.576-1.249-1.576
			c0.473-14.167,1.872-28.179,6.768-41.625c0.305-0.838,0.624-1.672,0.941-2.506c0.313-0.823,0.63-1.645,1.063-2.772
			c-3.617,0.414-6.842-0.305-9.984-1.504c-5.384-2.055-9.726-5.651-13.847-9.517c-6.169-5.786-12.615-11.173-20.224-15.007
			c-0.142-0.072-0.254-0.202-0.374-0.3c3.082-2,6.3-3.783,9.168-6.018c4.661-3.632,9.107-7.54,13.614-11.366
			c5.012-4.255,10.419-7.728,17.135-8.479c1.853-0.207,3.749-0.032,5.506-0.032c-1.948-7.809-4.043-15.719-5.876-23.689
			c-1.821-7.919-3.379-15.898-5.085-24.003c1.353-0.204,2.387-0.353,3.419-0.517c6.556-1.044,12.187-4.187,17.597-7.804
			c5.517-3.689,10.871-7.64,16.536-11.081c6.865-4.169,14.402-6.644,22.493-6.895c3.424-0.106,6.866,0.337,10.384,0.535
			c0.173-1.463,0.298-3.173,0.59-4.854c1.009-5.82,4.173-10.518,7.926-14.882c2.875-3.342,5.911-6.552,8.662-9.993
			c5.195-6.498,9.216-13.562,9.523-22.603c6.667,1.053,13.182,1.887,19.613,3.151c6.39,1.257,12.694,2.947,19.138,4.471
			c0.047-0.992,0.074-2.136,0.162-3.274c0.487-6.312,2.916-11.948,6.563-16.97c3.138-4.321,6.541-8.499,10.221-12.365
			c7.238-7.603,13.747-15.686,18.461-25.287c0.234,0.291,0.439,0.467,0.545,0.689c4.231,8.889,10.414,16.324,17.23,23.309
			c2.883,2.954,5.741,5.955,8.344,9.152c5.856,7.194,10.266,15.04,9.882,24.955c12.751-4.181,25.719-6.499,39.037-7.766
			c0.103,1.081,0.192,2.064,0.291,3.046c0.628,6.217,3.429,11.539,7.185,16.323c2.991,3.811,6.347,7.342,9.64,10.906
			c5.781,6.257,9.553,13.297,8.925,22.249c0.403,0,0.723,0.057,1.015-0.008c9.601-2.139,18.601-0.064,27.34,3.873
			c5.946,2.679,11.114,6.583,16.465,10.229c4.454,3.036,9.049,5.956,13.879,8.319c3.081,1.508,6.704,1.91,10.086,2.803
			C380.464,133.828,380.889,133.907,381.748,134.098z M212.63,250.961c0.084-0.473,0.176-0.849,0.217-1.23
			c0.839-7.709,1.673-15.42,2.509-23.129c0.149-1.379,0.388-2.74-0.99-3.774c-0.38-0.286-0.66-1.009-0.619-1.501
			c0.257-3.093,0.419-6.217,1.018-9.25c0.371-1.877,2.106-2.767,3.641-2.523c1.518,0.242,2.769,1.608,2.681,3.556
			c-0.12,2.659-0.472,5.327-0.984,7.94c-0.185,0.94-1.133,1.726-1.71,2.598c-0.425,0.643-1.093,1.279-1.172,1.972
			c-0.989,8.703-1.917,17.413-2.769,26.13c-0.078,0.797,0.485,1.657,0.75,2.488c0.165-0.049,0.329-0.097,0.493-0.146
			c0.109-0.371,0.244-0.736,0.323-1.113c3.22-15.34,6.443-30.679,9.61-46.029c0.105-0.507-0.218-1.257-0.586-1.68
			c-1.139-1.304-1.738-2.811-1.499-4.466c0.382-2.646,0.901-5.281,1.555-7.873c0.245-0.973,0.882-1.955,1.594-2.684
			c1.944-1.989,4.849-1.457,5.849,1.13c0.461,1.193,0.63,2.635,0.466,3.904c-0.292,2.259-0.788,4.521-1.493,6.687
			c-0.393,1.206-1.136,2.697-2.151,3.214c-1.932,0.982-2.193,2.588-2.549,4.301c-3.159,15.173-6.298,30.35-9.501,45.514
			c-0.264,1.248,0.027,2.063,0.951,2.874c0.129-0.258,0.227-0.399,0.273-0.556c2.403-8.07,4.818-16.137,7.167-24.223
			c0.173-0.595-0.155-1.331-0.226-2.004c-0.137-1.294-0.548-2.646-0.316-3.874c0.348-1.845,1.1-3.624,1.784-5.39
			c0.336-0.869,0.777-1.762,1.391-2.447c1.751-1.954,4.534-1.287,5.197,1.255c0.229,0.877,0.265,1.932,0.001,2.786
			c-0.69,2.233-1.503,4.442-2.46,6.573c-0.359,0.801-1.144,1.708-1.927,1.954c-1.323,0.416-1.667,1.315-1.987,2.402
			c-2.375,8.077-4.728,16.161-7.163,24.219c-0.445,1.471-0.206,2.667,0.623,3.866c0.13-0.088,0.267-0.129,0.301-0.211
			c1.937-4.749,3.874-9.498,5.779-14.26c0.155-0.388,0.15-0.868,0.122-1.298c-0.261-4.031,1.531-7.292,3.841-10.368
			c0.458-0.61,1.007-1.195,1.292-1.885c2.154-5.206,4.285-10.422,6.327-15.673c0.251-0.646-0.042-1.515-0.123-2.276
			c-0.144-1.355-0.701-2.801-0.398-4.041c0.579-2.366,1.518-4.67,2.536-6.896c1.129-2.466,3.459-3.579,5.391-2.859
			c1.992,0.743,2.894,3.19,2.158,5.862c-0.044,0.161-0.077,0.328-0.141,0.482c-0.829,2.012-1.517,4.101-2.551,6.002
			c-0.605,1.114-1.655,2.56-2.699,2.742c-2.127,0.371-2.543,1.834-3.177,3.331c-0.458,1.079-0.922,2.155-1.353,3.245
			c-1.452,3.668-2.892,7.34-4.313,10.954c1.814,1.499,2.231,2.802,1.347,4.826c-0.915,2.092-1.955,4.139-3.091,6.119
			c-0.415,0.723-1.194,1.57-1.928,1.704c-1.32,0.242-1.69,1.08-2.086,2.072c-1.799,4.505-3.552,9.03-5.437,13.499
			c-0.682,1.617-0.828,3.127-0.093,4.994c0.167-0.292,0.249-0.436,0.33-0.578c4.808-8.496,9.626-16.985,14.414-25.49
			c1.06-1.884,2.705-3.643,1.615-6.117c-0.08-0.182-0.041-0.459,0.033-0.66c1.175-3.232,2.834-6.192,5.408-8.5
			c0.986-0.884,2.35-1.025,3.605-0.249c1.257,0.777,1.59,1.975,1.367,3.338c-0.116,0.705-0.28,1.459-0.645,2.055
			c-1.166,1.9-2.297,3.853-3.724,5.548c-0.713,0.847-2.042,1.172-3.084,1.749c-0.488,0.27-1.161,0.458-1.403,0.882
			c-5.832,10.225-11.635,20.466-17.38,30.74c-0.531,0.95-0.639,2.136-0.943,3.212c0.14,0.066,0.28,0.132,0.42,0.199
			c1.611-1.824,3.196-3.672,4.837-5.468c6.92-7.575,13.054-15.72,17.686-24.904c8.619-17.091,13.126-35.261,12.983-54.376
			c-0.169-22.541-6.438-43.473-18.115-62.77c-6.687-11.052-15.105-20.723-23.933-30.071c-1.862-1.973-3.642-4.022-5.475-6.053
			c-2.566,2.872-4.986,5.645-7.475,8.354c-7.675,8.353-15.034,16.948-20.977,26.666c-13.964,22.835-20.991,47.422-18.742,74.332
			c1.259,15.07,5.26,29.397,11.888,42.996c5.772,11.842,14.179,21.731,23.082,31.257c0.073,0.078,0.247,0.062,0.567,0.133
			c-0.304-0.996-0.42-1.912-0.837-2.66c-5.533-9.945-11.108-19.867-16.673-29.795c-0.792-1.414-1.301-3.162-3.509-2.876
			c-0.239,0.031-0.559-0.143-0.761-0.316c-2.718-2.329-4.63-5.204-5.682-8.625c-0.139-0.451-0.046-1.007,0.056-1.49
			c0.403-1.918,2.249-2.923,4.107-2.274c2.552,0.892,6.547,8.028,6.123,10.699c-0.133,0.836-0.001,1.877,0.401,2.611
			c4.369,7.974,8.815,15.906,13.244,23.847c0.962,1.725,1.94,3.44,2.912,5.16c0.143-0.028,0.287-0.057,0.429-0.085
			c0.099-1.295,0.647-2.767,0.22-3.855c-2.116-5.397-4.478-10.697-6.793-16.014c-0.17-0.39-0.628-0.891-0.986-0.92
			c-1.505-0.123-2.289-1.086-2.874-2.265c-0.893-1.798-1.735-3.624-2.538-5.464c-0.615-1.41-0.735-2.9,0.375-4.088
			c0.683-0.73,0.582-1.292,0.268-2.064c-2.04-5.013-4.038-10.043-6.104-15.045c-0.172-0.417-0.705-0.874-1.14-0.96
			c-1.825-0.364-2.992-1.526-3.748-3.068c-0.957-1.951-1.798-3.967-2.566-6c-1.028-2.723-0.149-5.664,1.817-6.462
			c2.075-0.842,4.584,0.503,5.805,3.288c0.872,1.989,1.786,4.02,2.206,6.126c0.284,1.421-0.269,3.006-0.427,4.521
			c-0.074,0.708-0.344,1.513-0.112,2.116c1.757,4.584,3.612,9.131,5.446,13.685c0.395,0.979,0.566,2.285,1.296,2.85
			c2.593,2.004,3.146,5.064,4.411,7.75c0.319,0.678,0.575,1.591,0.385,2.262c-0.46,1.624,0.162,2.93,0.768,4.31
			c0.628,1.429,1.167,2.896,1.77,4.336c1.224,2.924,2.463,5.841,3.729,8.837c1.273-1.162,0.737-2.368,0.408-3.509
			c-2.306-7.983-4.626-15.962-6.968-23.935c-0.424-1.444-0.584-3.098-2.52-3.534c-0.366-0.083-0.782-0.541-0.925-0.921
			c-1.059-2.803-2.272-5.576-2.993-8.469c-0.494-1.98,0.68-3.584,2.192-4.028c1.533-0.449,3.163,0.284,3.986,2.263
			c0.98,2.355,1.73,4.826,2.335,7.307c0.214,0.877-0.315,1.927-0.465,2.904c-0.127,0.823-0.458,1.729-0.25,2.472
			c1.62,5.798,3.343,11.568,5.047,17.343c0.767,2.597,1.563,5.186,2.347,7.777c0.191,0.017,0.382,0.034,0.574,0.051
			c0.246-1.007,0.872-2.094,0.681-3.012c-3.326-16-6.746-31.981-10.188-47.958c-0.118-0.547-0.563-1.232-1.042-1.456
			c-1.664-0.778-2.635-2.086-3.063-3.762c-0.608-2.376-1.17-4.775-1.545-7.196c-0.46-2.978,0.986-5.495,3.163-5.893
			c2.211-0.405,4.369,1.376,5.046,4.366c0.504,2.228,0.871,4.493,1.163,6.759c0.226,1.76-0.166,3.4-1.294,4.882
			c-0.424,0.558-0.719,1.493-0.583,2.156c2.249,10.982,4.565,21.951,6.89,32.918c0.99,4.671,2.033,9.332,3.052,13.998
			c0.172,0.032,0.345,0.064,0.517,0.097c0.162-0.714,0.522-1.447,0.456-2.139c-0.785-8.163-1.614-16.322-2.479-24.477
			c-0.18-1.697-0.065-3.483-1.99-4.594c-0.702-0.405-1.067-1.682-1.256-2.627c-0.394-1.965-0.617-3.969-0.809-5.967
			c-0.078-0.817,0.004-1.683,0.195-2.483c0.322-1.35,1.167-2.299,2.613-2.481c1.51-0.191,2.604,0.531,3.281,1.825
			c0.33,0.63,0.565,1.349,0.665,2.052c0.279,1.988,0.631,3.989,0.625,5.984c-0.003,1.212-0.295,2.697-1.037,3.563
			c-0.921,1.076-0.883,2.054-0.758,3.212c0.531,4.936,1.06,9.873,1.587,14.809c0.364,3.408,0.726,6.816,1.089,10.224
			c0.183,0.059,0.367,0.119,0.55,0.178c0.458-0.916,1.311-1.831,1.315-2.749c0.078-16.688,0.059-33.378,0.024-50.066
			c0-0.456-0.273-1.119-0.629-1.331c-1.933-1.15-2.729-2.956-2.857-5.029c-0.156-2.503-0.181-5.026-0.066-7.531
			c0.144-3.132,2.113-5.438,4.415-5.448c2.421-0.011,4.282,2.311,4.376,5.596c0.068,2.398,0.069,4.801-0.002,7.199
			c-0.058,1.92-0.743,3.671-2.363,4.774c-0.915,0.623-1.169,1.268-1.169,2.305c0.001,16.298-0.019,32.596-0.087,48.895
			C210.921,249.467,211.453,250.281,212.63,250.961z M283.581,57.916c-10.595,1.261-20.948,2.847-31.05,5.776
			c-12.119,3.514-23.473,8.56-32.967,17.095c-2.917,2.623-5.508,5.61-8.347,8.531c11.643,12.787,23.508,24.81,31.928,39.659
			c4.85-22.483,19.447-36.416,39.004-46.379c8.979,18.187,12.195,36.856,7.028,56.629c2.218-2.354,4.353-4.697,6.342-7.157
			c4.559-5.641,9.118-11.286,12.23-17.924c1.663-3.549,2.218-7.228,1.601-11.087c-0.702-4.39-2.364-8.394-5.213-11.801
			c-2.789-3.335-5.74-6.536-8.666-9.755C289.365,74.782,284.461,67.46,283.581,57.916z M137.758,57.73
			c-0.256,1.545-0.388,2.538-0.588,3.517c-1.47,7.185-5.079,13.298-9.666,18.868c-3.156,3.832-6.64,7.396-9.736,11.271
			c-6.303,7.892-8.908,16.439-3.905,26.072c0.385,0.742,0.773,1.484,1.201,2.203c3.418,5.745,7.79,10.739,12.352,15.574
			c1.274,1.351,2.681,2.577,4.022,3.857c-5.247-19.704-2.235-38.383,6.95-56.479c19.796,9.926,34.4,23.946,39.445,46.29
			c8.355-14.854,20.18-26.774,31.342-39.302c-3.906-5.188-8.428-9.538-13.572-13.235c-9.574-6.881-20.346-11.117-31.745-13.683
			C155.28,60.752,146.575,59.382,137.758,57.73z M64.818,212.392c-5.518,6.013-9.767,12.604-13.132,19.753
			c-7.109,15.104-9.289,31.234-9.684,47.709c-0.009,0.372,0.489,0.994,0.864,1.101c4.981,1.422,9.289,4.098,13.26,7.291
			c3.868,3.109,7.553,6.447,11.301,9.705c6.694,5.818,13.754,11.076,22.254,13.983c6.613,2.262,13.366,3.104,20.241,1.18
			c0.595-0.167,1.292-0.517,1.622-1c4.225-6.181,9.521-11.363,15.049-16.338c0.751-0.677,1.47-1.389,2.505-2.37
			c-21.896,8.206-41.33,1.753-60.493-8.061c5.917-19.425,18.706-31.081,38.625-35.627c-9.202-3.923-17.096-9.009-24.174-15.347
			C75.938,227.999,70.057,220.585,64.818,212.392z M103.409,195.469c-21.081-13.92-29.429-35.26-34.678-58.576
			c20.701-5.407,40.953-7.139,60.941,3.547c-3.336-3.72-6.401-6.959-9.261-10.37c-4.681-5.582-8.985-11.406-10.619-18.744
			c-0.093-0.421-0.806-0.944-1.282-1.002c-3.088-0.381-6.203-0.985-9.288-0.884c-8.446,0.276-16.199,3.066-23.301,7.528
			c-4.624,2.904-9.014,6.179-13.537,9.246c-5.418,3.673-11.003,7.029-17.469,8.564c-1.222,0.29-2.474,0.451-3.76,0.68
			c0.087,0.605,0.125,1.047,0.218,1.479c1.94,9.054,3.807,18.124,5.851,27.154c2.74,12.109,6.367,23.93,12.186,34.971
			c1.785,3.387,3.709,6.701,5.707,10.294C75.579,197.939,88.088,192.859,103.409,195.469z M379.263,135.84
			c-3.6-1.129-7.029-1.939-10.244-3.269c-6.602-2.731-12.218-7.116-17.954-11.274c-4.942-3.583-10.137-6.718-15.883-8.861
			c-7.404-2.761-14.944-4.067-22.805-2.23c-1.029,0.24-1.554,0.688-1.931,1.735c-0.753,2.089-1.511,4.257-2.732,6.081
			c-3.317,4.951-6.809,9.79-10.367,14.572c-2.003,2.692-4.273,5.186-6.423,7.77c9.432-5.043,19.515-7.321,30.059-7.728
			c10.508-0.406,20.701,1.556,30.853,4.173c-0.073,0.483-0.097,0.759-0.157,1.027c-2.311,10.253-5.302,20.277-10.067,29.696
			c-5.614,11.097-13.052,20.619-23.727,27.328c-0.216,0.136-0.397,0.327-0.595,0.492c7.099-0.921,14.039-0.773,20.818,1.553
			c6.857,2.354,12.392,6.686,17.354,11.977c0.415-0.672,0.714-1.138,0.996-1.616c4.93-8.335,9.201-17.017,11.839-26.33
			c3.128-11.047,5.746-22.241,8.497-33.394C377.766,143.598,378.479,139.591,379.263,135.84z M313.608,249.76
			c1.177,0.288,1.93,0.461,2.677,0.656c17.853,4.664,29.482,15.949,35.468,33.274c0.41,1.188,0.138,1.72-0.957,2.328
			c-6.859,3.812-14.039,6.838-21.62,8.847c-11.462,3.037-22.913,3.414-34.29-0.489c-1.001-0.344-2.011-0.664-3.197-1.055
			c0.165,0.358,0.187,0.48,0.259,0.552c0.593,0.59,1.193,1.174,1.796,1.753c5.312,5.1,10.768,10.066,14.875,16.272
			c0.274,0.415,0.827,0.75,1.318,0.903c3.665,1.141,7.404,1.533,11.242,1.154c7.707-0.761,14.693-3.6,20.835-8.097
			c6.741-4.935,13.065-10.439,19.565-15.704c4.834-3.916,9.826-7.563,15.976-9.168c1.028-0.269,0.934-0.907,0.865-1.648
			c-0.546-5.944-0.879-11.917-1.675-17.827c-1.701-12.643-5.027-24.82-11.376-36.009c-2.671-4.708-5.768-9.126-9.482-13.332
			C345.547,228.805,332.134,241.8,313.608,249.76z M180.422,302.672c0.114,1.724,0.16,3.457,0.36,5.171
			c0.219,1.881,0.494,3.764,0.893,5.614c3.667,16.996,13.823,29.533,27.368,39.736c0.69,0.52,1.19,0.573,1.865-0.058
			c3.948-3.69,8.154-7.131,11.856-11.05c7.921-8.383,13.493-18.132,15.895-29.53c1.713-8.128,1.783-16.188-1.365-24.026
			c-2.806-6.989-8.207-9.534-15.21-6.93c-3.582,1.332-6.983,3.182-10.377,4.966c-1.118,0.587-1.826,0.655-2.97,0.023
			c-3.164-1.748-6.352-3.528-9.712-4.826c-7.667-2.962-13.535-0.114-16.319,7.601C181.153,293.666,180.481,298.108,180.422,302.672z
			 M320.146,273.244c-0.011-0.142,0-0.361-0.047-0.567c-1.243-5.533-3.137-10.83-5.943-15.766
			c-3.317-5.835-7.724-10.64-13.623-13.971c-9.711-5.484-20.034-5.802-30.535-3.223c-10.642,2.613-19.515,8.571-27.193,16.137
			c-7.544,7.435-14.615,15.351-21.884,23.063c-0.309,0.328-0.533,0.735-0.781,1.083c2.278-0.44,4.433-1.074,6.621-1.22
			c2.208-0.147,4.495-0.049,6.665,0.369c3.329,0.642,6.644,1.48,9.865,2.538c6.585,2.162,13.169,4.214,20.151,4.668
			c8.881,0.578,17.258-1.589,25.542-4.435c7.059-2.425,14.109-4.897,21.257-7.034C313.396,273.941,316.786,273.775,320.146,273.244z
			 M200.598,280.117c-1.557-1.731-2.795-3.128-4.054-4.506c-7.557-8.279-14.865-16.806-23.587-23.937
			c-9.285-7.591-19.563-12.816-31.81-13.396c-9.864-0.466-18.866,1.868-26.397,8.468c-7.975,6.989-11.969,16.211-14.121,26.369
			c-0.016,0.074,0.112,0.178,0.245,0.375c7.703,0.321,15.035,2.593,22.28,5.234c3.822,1.393,7.634,2.813,11.479,4.136
			c9.486,3.263,19.209,4.783,29.136,2.767c5.164-1.048,10.178-2.855,15.237-4.394c5.465-1.663,10.937-3.217,16.741-2.246
			C197.212,279.232,198.646,279.656,200.598,280.117z M280.375,375.286c0.209-1.26,0.316-2.199,0.527-3.114
			c1.576-6.867,4.741-12.966,9.12-18.437c3.66-4.573,7.487-9.013,11.122-13.605c3.417-4.316,6.288-8.962,7.439-14.458
			c1.191-5.688,0.681-11.091-3.458-15.518c-4.909-5.251-9.992-10.343-15.061-15.443c-1.463-1.472-3.139-2.731-4.717-4.088
			c9.779,20.206,6.031,39.668-2.465,59.095c-18.358-7.853-33.874-18.635-42.131-38.133c-1.837,9.238-5.455,17.208-10.652,24.443
			c-5.174,7.203-11.435,13.373-18.535,18.895c0.529,0.406,0.945,0.761,1.395,1.065c6.742,4.568,13.914,8.408,21.791,10.428
			c9.604,2.462,19.35,4.398,29.08,6.334C269.233,373.825,274.729,374.437,280.375,375.286z M179.464,311.805
			c-8.183,19.393-23.557,30.24-41.858,37.985c-8.922-19.191-12.675-38.434-2.937-58.411c-7.883,6.345-15.515,12.913-21.297,21.329
			c-0.499,0.725-0.978,1.508-1.25,2.336c-1.621,4.947-1.414,9.865,0.245,14.786c2.011,5.97,5.833,10.728,9.949,15.322
			c3.757,4.194,7.608,8.317,11.14,12.696c3.436,4.26,5.624,9.213,6.72,14.607c0.172,0.847,0.271,1.708,0.415,2.637
			c0.715-0.072,1.267-0.099,1.81-0.185c9.474-1.513,18.96-2.952,28.416-4.571c11.876-2.034,23.109-5.881,33.333-12.394
			c1.427-0.909,2.827-1.859,4.315-2.842C193.829,343.96,183.035,330.551,179.464,311.805z M304.745,160.424
			c-3.39,0.89-6.616,1.741-9.846,2.583c-5.339,1.391-10.747,2.563-16.005,4.212c-7.681,2.408-14.362,6.411-18.744,13.477
			c-0.43,0.694-0.691,1.642-0.655,2.455c1.073,23.894-4.03,46.314-15.915,67.131c-0.778,1.363-1.578,2.714-2.368,4.071
			c2.3-1.618,4.344-3.426,6.503-5.084c7.838-6.022,16.281-10.765,26.265-12.177c0.42-0.059,0.851-0.275,1.205-0.521
			c2.014-1.4,4.1-2.718,5.991-4.272c12.85-10.571,20.535-24.169,23.568-40.472C306.686,181.396,306.466,170.976,304.745,160.424z
			 M116.133,160.355c-0.126,0.558-0.246,0.977-0.313,1.404c-1.546,9.774-1.79,19.552,0.045,29.316
			c3.508,18.664,12.561,33.825,28.401,44.632c1.147,0.783,2.574,1.211,3.926,1.626c2.022,0.622,4.133,0.966,6.136,1.637
			c8.891,2.979,16.458,8.131,23.328,14.4c0.328,0.299,0.694,0.558,1.043,0.835c-0.091-0.676-0.374-1.142-0.624-1.625
			c-2.435-4.703-5.162-9.281-7.24-14.137c-7.563-17.672-10.916-36.129-9.726-55.368c0.047-0.76-0.224-1.646-0.621-2.31
			c-4.177-6.984-10.608-11.175-18.132-13.478C133.789,164.668,125.028,162.678,116.133,160.355z M139.192,85.007
			c-0.227,0.408-0.374,0.643-0.493,0.891c-4.846,10.083-7.713,20.689-8.062,31.888c-0.592,19.018,6.638,35.227,18.217,49.816
			c0.333,0.419,0.828,0.74,1.302,1.009c3.982,2.258,7.422,5.141,10.226,8.771c0.273,0.354,0.594,0.67,1.029,1.156
			c0.105-0.551,0.173-0.819,0.207-1.092c1.922-15.81,6.805-30.673,14.235-44.733c0.284-0.537,0.351-1.301,0.247-1.913
			c-0.982-5.762-2.781-11.26-5.499-16.443C163.582,100.966,152.449,91.984,139.192,85.007z M259.091,178.778
			c0.464-0.532,0.732-0.795,0.949-1.095c2.22-3.075,4.946-5.665,8.21-7.53c2.414-1.379,4.169-3.258,5.751-5.442
			c6.438-8.888,11.538-18.417,14.069-29.18c2.935-12.479,2.111-24.841-1.521-37.028c-1.359-4.56-3.246-8.963-5.061-13.894
			c-4.349,2.814-8.395,5.171-12.16,7.914c-12.869,9.378-21.436,21.627-24.338,37.494c-0.186,1.013-0.127,2.283,0.33,3.169
			c6.537,12.658,10.9,26.007,13.004,40.095C258.585,175.017,258.811,176.756,259.091,178.778z M304.983,198.943
			c0.451-0.075,0.624-0.076,0.775-0.132c12.693-4.726,22.521-12.974,29.817-24.314c7.038-10.939,11.113-23.056,14.081-35.606
			c0.059-0.248,0.007-0.522,0.007-0.817c-0.446-0.131-0.811-0.282-1.189-0.342c-6.878-1.095-13.724-2.686-20.646-3.16
			c-14.201-0.972-27.667,1.73-39.601,10.023c-0.849,0.589-1.601,1.545-2.013,2.498c-2.691,6.22-6.021,12.066-9.932,17.591
			c-0.424,0.6-0.888,1.172-1.19,1.57c10.301-2.677,20.625-5.36,31.121-8.087C308.551,171.757,308.68,185.291,304.983,198.943z
			 M145.143,165.924c0.001,0.003-0.109-0.227-0.256-0.43c-4.416-6.065-8.114-12.53-10.967-19.479
			c-0.251-0.613-0.844-1.163-1.408-1.558c-4.509-3.16-9.438-5.488-14.679-7.137c-11.831-3.721-23.835-3.686-35.915-1.514
			c-3.655,0.657-7.285,1.456-10.933,2.191c0.048,0.526,0.044,0.808,0.103,1.075c1.658,7.469,3.849,14.777,6.85,21.818
			c4.905,11.507,11.593,21.729,21.642,29.465c4.842,3.728,10.191,6.507,16.242,8.642c-3.796-13.692-3.761-27.245-1.172-40.778
			C124.984,160.83,135.108,163.388,145.143,165.924z M138.482,347.484c7.126-3.123,13.72-6.72,19.722-11.327
			c8.943-6.863,16.012-15.201,19.799-25.981c0.554-1.576,0.61-3.356,0.715-5.053c0.145-2.335-0.179-4.734,0.232-7.01
			c0.66-3.654,1.482-7.332,2.769-10.802c0.83-2.237,2.612-4.122,4.098-6.362c-3.387,1.085-6.756,2.034-10.03,3.24
			c-10.605,3.907-21.428,5.305-32.54,2.783c-2.093-0.475-3.223-0.018-4.445,1.612c-4.459,5.947-6.466,12.807-7.544,19.981
			C129.198,322.285,132.926,334.966,138.482,347.484z M281.981,347.302c0.509-1.253,0.996-2.426,1.461-3.607
			c4.595-11.641,7.11-23.591,5.271-36.165c-1.032-7.06-3.392-13.606-7.592-19.447c-0.862-1.199-1.696-1.557-3.203-1.209
			c-2.489,0.575-5.047,0.925-7.596,1.152c-9.386,0.837-18.261-1.475-27.027-4.482c-2.872-0.985-5.816-1.758-8.728-2.628
			c-0.072,0.116-0.144,0.231-0.215,0.347c4.147,3.746,5.867,8.696,6.623,13.943c0.513,3.562,0.354,7.221,0.505,10.836
			c0.03,0.716-0.083,1.509,0.183,2.132c1.482,3.481,2.829,7.049,4.653,10.349c4.523,8.183,11.213,14.384,18.825,19.646
			C270.382,341.791,275.997,344.732,281.981,347.302z M279.063,236.453c0.964,0,1.67,0.004,2.376,0
			c10.754-0.072,20.218,3.172,27.8,11.027c1.152,1.194,2.07,1.251,3.47,0.669c6.479-2.693,12.521-6.125,18.091-10.396
			c9.321-7.149,16.965-15.79,23.065-25.816c0.487-0.801,0.651-1.382-0.096-2.184c-5.606-6.019-12.112-10.555-20.296-12.257
			c-9.954-2.07-19.4-0.101-28.531,3.904c-0.588,0.258-1.087,1.078-1.315,1.743c-3.568,10.452-9.366,19.467-17.396,27.033
			C284.004,232.275,281.627,234.216,279.063,236.453z M141.408,236.078c-0.02-0.021-0.112-0.167-0.241-0.262
			c-11.589-8.542-19.518-19.744-24.264-33.28c-0.175-0.498-0.692-1.015-1.181-1.243c-8.826-4.112-18.042-5.769-27.684-3.903
			c-8.617,1.667-15.375,6.556-21.299,12.792c-0.699,0.736-0.408,1.234,0.011,1.879c3.75,5.761,7.823,11.269,12.61,16.223
			c8.283,8.571,17.797,15.346,28.87,19.878c1.289,0.527,2.074,0.493,3.128-0.62c4.888-5.157,10.857-8.593,17.825-9.974
			C133.193,236.773,137.315,236.557,141.408,236.078z M210.215,31.289c-1.665,1.909-3.349,3.835-5.029,5.765
			c-4.244,4.874-8.709,9.576-12.664,14.673c-3.541,4.563-5.586,9.884-5.633,15.813c-0.008,1.069,0.348,1.677,1.356,2.19
			c5.297,2.695,10.161,6.056,14.478,10.141c2.654,2.51,5.11,5.229,7.71,7.912c0.247-0.299,0.493-0.591,0.733-0.888
			c5.373-6.632,11.893-11.896,19.292-16.091c3.835-2.175,3.883-2.188,3.247-6.596c-0.032-0.221-0.082-0.438-0.119-0.659
			c-1.025-6.031-4.014-11.129-7.951-15.615C220.675,42.282,215.425,36.886,210.215,31.289z M322.758,275.122
			c-14.72-0.033-26.952,6.875-40.115,10.698c0.17,0.283,0.205,0.402,0.284,0.461c0.357,0.267,0.723,0.521,1.093,0.771
			c10.983,7.438,23.148,9.522,36.092,7.831c10.303-1.346,19.814-5.092,28.98-9.838c0.943-0.489,0.948-0.973,0.638-1.841
			c-4.834-13.554-13.788-23.275-27.063-28.869c-2.976-1.253-6.18-1.964-9.396-2.961c2.006,4.047,4.067,7.626,5.582,11.425
			C320.393,266.656,321.394,270.729,322.758,275.122z M107.564,251.879c-13.851-0.325-33.87,17.496-36.677,32.584
			c0.157,0.118,0.317,0.277,0.51,0.375c8.947,4.533,18.21,8.17,28.161,9.808c10.606,1.746,20.929,0.978,30.698-3.85
			c2.764-1.366,5.362-3.067,8.441-4.849c-13.765-3.85-26.018-10.863-40.379-10.83C100.046,266.626,102.7,258.846,107.564,251.879z
			 M210.271,9.31c-5.367,10.421-13.085,18.48-20.75,26.599c-3.726,3.946-6.97,8.288-9.432,13.156
			c-2.247,4.443-3.7,9.097-3.336,14.155c0.039,0.539,0.292,1.35,0.679,1.528c2.453,1.126,4.971,2.111,7.48,3.147
			c0.271-1.947,0.395-3.787,0.796-5.564c1.599-7.074,5.575-12.836,10.311-18.13c4.79-5.354,9.654-10.642,14.486-15.96
			c0.896,1.159,1.947,2.74,3.218,4.117c3.405,3.69,6.948,7.251,10.354,10.941c4.301,4.658,8.238,9.606,10.162,15.767
			c0.884,2.832,1.306,5.808,1.941,8.737c2.295-0.961,4.818-1.976,7.292-3.099c0.378-0.172,0.75-0.841,0.75-1.281
			c0.001-1.83,0.038-3.691-0.26-5.486c-1.325-7.961-5.687-14.355-10.919-20.188C225.014,28.8,215.922,20.729,210.271,9.31z
			 M210.27,397.26c4.656-4.784,9.472-9.644,14.169-14.615c1.405-1.487,2.768-3.15,3.637-4.977c1.374-2.886,2.349-5.966,3.413-8.992
			c0.273-0.776,0.054-1.422-0.953-1.768c-6.951-2.382-13.377-5.81-19.401-9.995c-0.803-0.558-1.363-0.628-2.206-0.024
			c-5.641,4.048-11.739,7.277-18.203,9.788c-1.225,0.476-1.401,1.085-1.26,2.23c0.679,5.508,3.457,9.995,7.052,13.96
			C200.999,387.811,205.728,392.529,210.27,397.26z M187.492,367.992c-1.271,0.396-2.323,0.746-3.388,1.05
			c-4.121,1.174-4.267,1.376-3.916,5.683c0.032,0.389,0.089,0.776,0.144,1.162c0.651,4.547,2.625,8.544,5.464,12.05
			c2.379,2.939,4.964,5.74,7.68,8.374c6.121,5.934,12.235,11.854,16.696,19.302c1.478-2.193,2.664-4.455,4.313-6.302
			c4.193-4.694,8.641-9.158,12.895-13.799c3.308-3.608,6.75-7.144,9.633-11.079c2.816-3.845,4.149-8.385,3.583-13.277
			c-0.054-0.471-0.364-1.193-0.711-1.303c-2.099-0.663-4.243-1.18-6.384-1.75c-0.327,1.44-0.573,2.75-0.923,4.032
			c-1.405,5.155-4.475,9.316-8.035,13.147c-4.736,5.098-10.22,9.507-14.127,15.37c-0.036,0.055-0.189,0.031-0.118,0.021
			c-1.872-2.263-3.584-4.543-5.517-6.618c-2.851-3.061-5.949-5.89-8.778-8.969C191.592,380.284,188.183,374.917,187.492,367.992z
			 M27.02,207.708c2.047,1.812,4.294,3.767,6.502,5.765c2.314,2.094,4.489,4.355,6.909,6.316c3.419,2.771,7.167,4.995,11.789,4.884
			c0.674-0.017,1.544-0.527,1.965-1.082c2.961-3.902,5.776-7.915,8.763-11.797c0.713-0.927,0.708-1.476,0.186-2.454
			c-3.014-5.647-5.959-11.331-8.863-17.035c-0.411-0.808-0.82-1.14-1.736-1.161c-5.838-0.134-10.331,2.736-14.441,6.423
			C34.364,200.914,30.702,204.332,27.02,207.708z M393.171,207.548c-2.198-1.984-4.489-4.096-6.827-6.155
			c-2.799-2.464-5.524-5.033-8.492-7.281c-2.971-2.251-6.473-3.238-10.235-2.873c-0.556,0.054-1.278,0.583-1.544,1.09
			c-2.912,5.576-5.721,11.207-8.634,16.783c-0.483,0.926-0.455,1.455,0.19,2.312c2.779,3.692,5.605,7.37,8.063,11.275
			c1.107,1.761,2.266,2.109,4.074,1.891c3.927-0.474,7.227-2.268,10.101-4.831C384.387,215.729,388.797,211.574,393.171,207.548z
			 M52.722,188.984c-0.424-1.138-0.787-2.436-1.393-3.607c-0.328-0.633-1.034-1.438-1.634-1.497
			c-2.195-0.214-4.473-0.481-6.619-0.124c-6.227,1.037-11.07,4.711-15.731,8.715c-4.563,3.92-9.23,7.722-13.926,11.481
			c-1.666,1.334-3.552,2.392-5.549,3.716c7.018,3.495,12.521,8.627,18.142,13.623c2.621,2.329,5.301,4.632,8.182,6.616
			c4.206,2.896,8.833,4.784,14.118,4.225c0.563-0.06,1.361-0.23,1.597-0.623c0.903-1.502,1.622-3.115,2.519-4.905
			c-4.42-0.214-8.176-1.667-11.493-4.141c-1.917-1.429-3.688-3.059-5.48-4.648c-3.946-3.497-7.865-7.024-11.788-10.532
			c4.512-2.445,8.188-6.364,12.08-10.028c3.022-2.845,6.224-5.478,10.246-6.76C48.14,189.811,50.405,189.491,52.722,188.984z
			 M397.098,207.587c-5.597,2.972-9.436,7.542-13.757,11.551c-4.29,3.979-8.887,7.309-15.299,7.332
			c0.847,1.769,1.553,3.393,2.414,4.93c0.206,0.368,0.947,0.657,1.415,0.622c2.645-0.201,5.386-0.14,7.896-0.861
			c5.325-1.53,9.451-5.092,13.475-8.771c3.659-3.347,7.378-6.643,11.257-9.729c2.414-1.921,5.172-3.409,7.927-5.189
			c-7.81-3.988-14.113-9.799-20.389-15.659c-3.283-3.066-6.919-5.637-11.18-7.21c-3.43-1.266-6.93-1.681-10.507-0.733
			c-0.485,0.128-1.117,0.45-1.296,0.854c-0.645,1.448-1.124,2.969-1.586,4.244c2.465,0.509,4.842,0.822,7.104,1.509
			c3.946,1.198,6.999,3.855,9.924,6.638C388.372,200.801,392.02,204.755,397.098,207.587z M210.317,251.426
			c-5.085,4.3-8.549,9.405-9.88,15.735c-1.193,5.669-0.36,10.942,4.347,14.917c3.504,2.958,8.029,2.74,11.395-0.393
			c2.522-2.347,3.892-5.334,4.19-8.699C221.174,263.895,216.568,257.309,210.317,251.426z M212.84,188.41
			c0.074-0.007,0.148-0.014,0.222-0.021c-0.21-1.809-0.237-3.667-0.713-5.403c-0.211-0.767-1.351-1.805-2.034-1.78
			c-0.813,0.03-2.108,0.943-2.293,1.695c-0.935,3.799-0.999,7.663,0.074,11.481c0.058,0.207,0.199,0.4,0.331,0.577
			c0.915,1.219,2.339,1.381,3.218,0.152c0.613-0.857,0.98-1.983,1.151-3.038C212.989,190.881,212.84,189.633,212.84,188.41z
			 M231.743,193.737c-0.533-0.815-1.033-2.007-1.918-2.718c-0.337-0.27-1.999,0.338-2.307,0.934
			c-1.729,3.34-2.377,6.958-2.096,10.726c0.008,0.108,0.053,0.216,0.096,0.318c0.651,1.533,2.005,1.829,3.16,0.642
			c0.417-0.429,0.853-0.954,1.001-1.51C230.38,199.507,230.986,196.858,231.743,193.737z M195.076,201.124
			c-0.058-0.442-0.087-0.89-0.178-1.325c-0.489-2.34-0.82-4.736-1.585-6.983c-0.278-0.814-1.556-1.667-2.474-1.79
			c-1.214-0.162-1.648,1.088-1.83,2.191c-0.072,0.437-0.182,0.904-0.099,1.323c0.513,2.564,0.987,5.142,1.661,7.665
			c0.331,1.238,1.078,2.524,2.655,2.29c1.52-0.226,1.573-1.675,1.807-2.872C195.064,201.461,195.062,201.292,195.076,201.124z
			 M173.431,206.759c1.256,2.94,2.256,5.654,3.596,8.188c0.405,0.765,1.835,1.542,2.652,1.412c1.437-0.229,1.727-1.863,1.37-2.99
			c-0.852-2.688-1.901-5.337-3.156-7.859c-0.348-0.699-1.864-1.41-2.55-1.191C174.555,204.569,174.094,205.847,173.431,206.759z
			 M238.675,213.799c0.645,0.988,0.985,2.098,1.71,2.483c1.104,0.588,2.116-0.18,2.817-1.154c0.225-0.313,0.413-0.662,0.564-1.017
			c0.765-1.788,1.555-3.567,2.244-5.385c0.269-0.708,0.545-1.572,0.369-2.248c-0.214-0.821-0.767-1.934-1.426-2.15
			c-0.654-0.215-2.068,0.293-2.377,0.887C241.15,207.949,239.995,210.824,238.675,213.799z M219.63,213.271
			c-0.357-0.474-1-1.329-1.645-2.184c-0.703,0.762-1.428,1.506-2.094,2.3c-0.153,0.183-0.119,0.533-0.148,0.809
			c-0.173,1.661-0.371,3.32-0.495,4.985c-0.048,0.648-0.075,1.37,0.158,1.948c0.225,0.556,0.762,1.303,1.23,1.354
			c0.463,0.052,1.058-0.612,1.505-1.054c0.258-0.254,0.425-0.676,0.482-1.045C218.954,218.239,219.238,216.087,219.63,213.271z
			 M247.514,230.066c0.015-1.763-1.043-2.455-2.311-1.671c-0.681,0.421-1.287,1.068-1.734,1.742c-0.982,1.48-1.84,3.042-2.752,4.569
			c-0.63,1.053-0.858,2.249,0.212,2.982c1.089,0.746,2.058-0.157,2.669-1.014c1.257-1.762,2.395-3.611,3.535-5.453
			C247.386,230.814,247.445,230.287,247.514,230.066z M172.513,230.137c1.565,2.718,2.75,5.53,5.221,7.459
			c0.368,0.287,1.537,0.264,1.618,0.075c0.304-0.705,0.618-1.66,0.365-2.298c-0.567-1.43-1.435-2.749-2.252-4.068
			c-0.579-0.933-1.179-1.894-1.961-2.642c-0.39-0.373-1.352-0.578-1.796-0.352C173.194,228.573,172.966,229.394,172.513,230.137z
			 M204.996,220.517c-0.281-2.583-0.504-4.515-0.698-6.45c-0.168-1.666-1.053-2.885-2.076-2.804c-0.99,0.079-1.67,1.479-1.471,3.161
			c0.229,1.931,0.359,3.895,0.84,5.765c0.239,0.929,1.169,1.681,1.786,2.513C204.011,221.845,204.646,220.988,204.996,220.517z
			 M232.468,221.959c-0.534-0.739-0.869-1.609-1.481-1.904c-0.381-0.183-1.537,0.356-1.733,0.827
			c-1.044,2.504-1.991,5.062-2.741,7.667c-0.164,0.572,0.61,1.413,0.952,2.13c0.608-0.331,1.534-0.513,1.771-1.018
			C230.388,227.207,231.354,224.666,232.468,221.959z M193.913,228.922c-0.875-2.642-1.597-5.142-2.569-7.54
			c-0.262-0.646-1.286-0.983-1.96-1.462c-0.372,0.8-1.207,1.721-1.035,2.379c0.653,2.501,1.564,4.945,2.544,7.343
			c0.207,0.505,1.236,1.112,1.669,0.977C193.113,230.446,193.44,229.565,193.913,228.922z M234.011,238.104
			c-0.304-0.457-0.617-1.265-0.874-1.247c-0.584,0.041-1.426,0.339-1.659,0.792c-1.189,2.319-2.276,4.698-3.256,7.113
			c-0.194,0.479,0.236,1.21,0.378,1.825c0.601-0.279,1.466-0.397,1.752-0.869c0.95-1.561,1.71-3.24,2.505-4.892
			C233.266,239.98,233.594,239.097,234.011,238.104z M186.246,238.494c1.251,2.523,2.476,5.055,3.784,7.543
			c0.14,0.266,0.959,0.503,1.121,0.362c0.366-0.319,0.832-1.005,0.707-1.33c-0.993-2.566-2.083-5.097-3.237-7.594
			c-0.141-0.304-0.957-0.589-1.265-0.45C186.944,237.211,186.724,237.82,186.246,238.494z"/>
		<path fill-rule="evenodd" clip-rule="evenodd" d="M57.799,55.139c22.375-1.951,38.975,14.566,37.341,36.923
			c-9.712,0.271-18.732-1.786-26.186-8.343C60.4,76.192,58.007,66.121,57.799,55.139z M93.643,90.094
			c-0.382-10.533-3.405-19.75-11.823-26.491c-6.429-5.149-13.901-7.119-22.083-6.813C60.073,77.327,73.146,90.448,93.643,90.094z"/>
		<path fill-rule="evenodd" clip-rule="evenodd" d="M362.989,54.776c0.475,16.399-6.815,31.468-24.38,35.896
			c-3.639,0.917-7.491,0.983-11.244,1.452c-1.267,0.159-1.624-0.413-1.606-1.629c0.242-16.999,9.095-31.655,28.328-35.067
			C356.96,54.919,359.935,54.985,362.989,54.776z M361.229,56.938c-18.068-0.978-33.794,12.143-33.466,33.119
			C347.016,90.655,361.084,77.832,361.229,56.938z"/>
		<path fill-rule="evenodd" clip-rule="evenodd" d="M362.51,363.759c-4.872,0.439-9.544-0.108-14.099-1.577
			c-12.714-4.098-19.579-13.233-22.086-25.984c-0.491-2.499-0.48-5.096-0.719-7.646c-0.087-0.934,0.305-1.304,1.237-1.297
			c15.981,0.114,31.82,7.71,35.186,27.761c0.396,2.354,0.438,4.77,0.612,7.16C362.677,362.66,362.564,363.155,362.51,363.759z
			 M360.883,362.005c-0.245-9.732-2.829-18.411-10.323-24.903c-6.571-5.692-14.47-7.936-23.107-8.011
			C327.8,348.157,340.135,362.395,360.883,362.005z"/>
		<path fill-rule="evenodd" clip-rule="evenodd" d="M58.202,363.675c-0.619-13.984,5.546-28.842,21.603-34.167
			c4.437-1.472,8.985-2.176,13.652-2.245c1.221-0.018,1.678,0.395,1.626,1.645c-0.533,12.966-4.896,23.84-16.597,30.791
			C73.432,362.703,63.539,364.704,58.202,363.675z M59.953,361.939c20.358,1.257,33.655-14.817,33.071-32.729
			C74.356,329.041,60.118,340.873,59.953,361.939z"/>
		<path fill-rule="evenodd" clip-rule="evenodd" fill="#FFFFFF" d="M212.63,250.961c-1.178-0.68-1.709-1.494-1.704-2.856
			c0.069-16.298,0.089-32.597,0.087-48.895c0-1.038,0.254-1.682,1.169-2.305c1.62-1.104,2.305-2.854,2.363-4.774
			c0.072-2.397,0.07-4.801,0.002-7.199c-0.094-3.285-1.955-5.606-4.376-5.596c-2.302,0.01-4.271,2.316-4.415,5.448
			c-0.115,2.505-0.089,5.028,0.066,7.531c0.128,2.073,0.924,3.878,2.857,5.029c0.356,0.212,0.629,0.875,0.629,1.331
			c0.035,16.688,0.054,33.378-0.024,50.066c-0.004,0.918-0.857,1.833-1.315,2.749c-0.183-0.06-0.367-0.119-0.55-0.178
			c-0.363-3.408-0.725-6.816-1.089-10.224c-0.528-4.937-1.056-9.873-1.587-14.809c-0.125-1.158-0.164-2.136,0.758-3.212
			c0.742-0.866,1.034-2.351,1.037-3.563c0.005-1.995-0.347-3.996-0.625-5.984c-0.099-0.703-0.335-1.422-0.665-2.052
			c-0.677-1.294-1.771-2.016-3.281-1.825c-1.446,0.183-2.292,1.132-2.613,2.481c-0.191,0.8-0.273,1.667-0.195,2.483
			c0.191,1.998,0.415,4.002,0.809,5.967c0.189,0.945,0.554,2.222,1.256,2.627c1.925,1.111,1.81,2.897,1.99,4.594
			c0.865,8.155,1.695,16.314,2.479,24.477c0.066,0.692-0.294,1.425-0.456,2.139c-0.172-0.032-0.345-0.064-0.517-0.097
			c-1.019-4.666-2.062-9.326-3.052-13.998c-2.324-10.967-4.641-21.936-6.89-32.918c-0.136-0.663,0.159-1.598,0.583-2.156
			c1.128-1.482,1.521-3.122,1.294-4.882c-0.292-2.266-0.659-4.532-1.163-6.759c-0.677-2.99-2.834-4.771-5.046-4.366
			c-2.176,0.398-3.623,2.916-3.163,5.893c0.375,2.421,0.937,4.82,1.545,7.196c0.429,1.676,1.399,2.984,3.063,3.762
			c0.479,0.224,0.924,0.908,1.042,1.456c3.441,15.977,6.861,31.958,10.188,47.958c0.191,0.917-0.435,2.004-0.681,3.012
			c-0.191-0.017-0.382-0.034-0.574-0.051c-0.784-2.592-1.58-5.18-2.347-7.777c-1.704-5.775-3.427-11.544-5.047-17.343
			c-0.208-0.744,0.123-1.649,0.25-2.472c0.15-0.977,0.679-2.027,0.465-2.904c-0.605-2.481-1.355-4.952-2.335-7.307
			c-0.823-1.979-2.453-2.712-3.986-2.263c-1.512,0.443-2.686,2.047-2.192,4.028c0.721,2.893,1.935,5.666,2.993,8.469
			c0.144,0.38,0.559,0.838,0.925,0.921c1.935,0.436,2.096,2.09,2.52,3.534c2.342,7.973,4.662,15.952,6.968,23.935
			c0.33,1.141,0.865,2.347-0.408,3.509c-1.265-2.996-2.505-5.914-3.729-8.837c-0.603-1.44-1.142-2.907-1.77-4.336
			c-0.606-1.38-1.228-2.686-0.768-4.31c0.19-0.671-0.066-1.584-0.385-2.262c-1.264-2.687-1.818-5.746-4.411-7.75
			c-0.73-0.565-0.902-1.871-1.296-2.85c-1.834-4.554-3.689-9.101-5.446-13.685c-0.231-0.603,0.038-1.409,0.112-2.116
			c0.159-1.514,0.711-3.099,0.427-4.521c-0.42-2.107-1.334-4.137-2.206-6.126c-1.221-2.785-3.73-4.13-5.805-3.288
			c-1.967,0.798-2.846,3.74-1.817,6.462c0.768,2.034,1.609,4.05,2.566,6c0.756,1.542,1.923,2.704,3.748,3.068
			c0.435,0.086,0.968,0.543,1.14,0.96c2.066,5.002,4.064,10.032,6.104,15.045c0.314,0.772,0.415,1.334-0.268,2.064
			c-1.11,1.188-0.99,2.678-0.375,4.088c0.803,1.84,1.645,3.666,2.538,5.464c0.585,1.179,1.368,2.142,2.874,2.265
			c0.358,0.029,0.816,0.53,0.986,0.92c2.315,5.317,4.677,10.617,6.793,16.014c0.427,1.089-0.121,2.561-0.22,3.855
			c-0.143,0.028-0.286,0.057-0.429,0.085c-0.971-1.72-1.95-3.435-2.912-5.16c-4.429-7.941-8.875-15.874-13.244-23.847
			c-0.402-0.733-0.534-1.774-0.401-2.611c0.424-2.671-3.57-9.808-6.123-10.699c-1.858-0.649-3.704,0.356-4.107,2.274
			c-0.102,0.483-0.194,1.04-0.056,1.49c1.051,3.42,2.963,6.295,5.682,8.625c0.202,0.173,0.522,0.347,0.761,0.316
			c2.208-0.286,2.717,1.462,3.509,2.876c5.565,9.928,11.14,19.85,16.673,29.795c0.417,0.749,0.533,1.664,0.837,2.66
			c-0.321-0.071-0.495-0.055-0.567-0.133c-8.903-9.525-17.31-19.415-23.082-31.257c-6.628-13.599-10.629-27.926-11.888-42.996
			c-2.249-26.91,4.778-51.496,18.742-74.332c5.943-9.718,13.301-18.313,20.977-26.666c2.489-2.709,4.909-5.482,7.475-8.354
			c1.833,2.031,3.612,4.081,5.475,6.053c8.828,9.349,17.246,19.02,23.933,30.071c11.676,19.297,17.945,40.229,18.115,62.77
			c0.144,19.115-4.364,37.286-12.983,54.376c-4.631,9.184-10.766,17.329-17.686,24.904c-1.641,1.796-3.226,3.644-4.837,5.468
			c-0.14-0.066-0.28-0.133-0.42-0.199c0.304-1.077,0.412-2.263,0.943-3.212c5.745-10.273,11.548-20.515,17.38-30.74
			c0.242-0.424,0.915-0.612,1.403-0.882c1.042-0.577,2.372-0.902,3.084-1.749c1.426-1.695,2.558-3.648,3.724-5.548
			c0.365-0.595,0.529-1.35,0.645-2.055c0.224-1.364-0.11-2.561-1.367-3.338c-1.255-0.776-2.619-0.635-3.605,0.249
			c-2.574,2.308-4.233,5.268-5.408,8.5c-0.073,0.201-0.113,0.478-0.033,0.66c1.09,2.474-0.555,4.233-1.615,6.117
			c-4.788,8.505-9.606,16.995-14.414,25.49c-0.081,0.143-0.163,0.286-0.33,0.578c-0.734-1.867-0.588-3.377,0.093-4.994
			c1.885-4.469,3.638-8.993,5.437-13.499c0.396-0.992,0.766-1.83,2.086-2.072c0.733-0.134,1.513-0.981,1.928-1.704
			c1.136-1.98,2.176-4.027,3.091-6.119c0.885-2.024,0.467-3.328-1.347-4.826c1.421-3.613,2.861-7.286,4.313-10.954
			c0.431-1.09,0.895-2.166,1.353-3.245c0.634-1.496,1.05-2.96,3.177-3.331c1.044-0.182,2.094-1.628,2.699-2.742
			c1.034-1.901,1.722-3.991,2.551-6.002c0.063-0.154,0.096-0.321,0.141-0.482c0.736-2.671-0.166-5.119-2.158-5.862
			c-1.931-0.72-4.262,0.393-5.391,2.859c-1.018,2.225-1.957,4.529-2.536,6.896c-0.303,1.239,0.254,2.686,0.398,4.041
			c0.081,0.761,0.374,1.63,0.123,2.276c-2.042,5.25-4.173,10.467-6.327,15.673c-0.285,0.689-0.835,1.275-1.292,1.885
			c-2.31,3.076-4.102,6.337-3.841,10.368c0.028,0.431,0.033,0.91-0.122,1.298c-1.906,4.762-3.842,9.511-5.779,14.26
			c-0.034,0.083-0.171,0.123-0.301,0.211c-0.829-1.199-1.067-2.395-0.623-3.866c2.436-8.059,4.788-16.142,7.163-24.219
			c0.32-1.087,0.664-1.986,1.987-2.402c0.783-0.246,1.568-1.153,1.927-1.954c0.958-2.131,1.771-4.34,2.46-6.573
			c0.264-0.854,0.227-1.909-0.001-2.786c-0.663-2.542-3.446-3.209-5.197-1.255c-0.614,0.685-1.055,1.578-1.391,2.447
			c-0.684,1.767-1.436,3.545-1.784,5.39c-0.232,1.228,0.179,2.58,0.316,3.874c0.071,0.673,0.399,1.409,0.226,2.004
			c-2.348,8.086-4.763,16.153-7.167,24.223c-0.046,0.156-0.144,0.297-0.273,0.556c-0.924-0.81-1.215-1.625-0.951-2.874
			c3.204-15.164,6.343-30.341,9.501-45.514c0.356-1.713,0.617-3.318,2.549-4.301c1.016-0.517,1.759-2.008,2.151-3.214
			c0.706-2.166,1.202-4.428,1.493-6.687c0.164-1.269-0.004-2.711-0.466-3.904c-1-2.587-3.904-3.119-5.849-1.13
			c-0.712,0.729-1.349,1.71-1.594,2.684c-0.654,2.592-1.172,5.228-1.555,7.873c-0.239,1.655,0.36,3.162,1.499,4.466
			c0.369,0.422,0.691,1.172,0.586,1.68c-3.167,15.35-6.39,30.689-9.61,46.029c-0.079,0.377-0.214,0.742-0.323,1.113
			c-0.165,0.049-0.329,0.097-0.493,0.146c-0.265-0.831-0.828-1.69-0.75-2.488c0.852-8.717,1.78-17.428,2.769-26.13
			c0.079-0.693,0.748-1.329,1.172-1.972c0.577-0.872,1.525-1.657,1.71-2.598c0.512-2.613,0.865-5.281,0.984-7.94
			c0.088-1.948-1.163-3.314-2.681-3.556c-1.535-0.244-3.27,0.646-3.641,2.523c-0.599,3.033-0.761,6.157-1.018,9.25
			c-0.041,0.492,0.239,1.216,0.619,1.501c1.378,1.034,1.139,2.395,0.99,3.774c-0.835,7.709-1.669,15.42-2.509,23.129
			C212.806,250.112,212.715,250.488,212.63,250.961z"/>
		<path fill-rule="evenodd" clip-rule="evenodd" fill="#FFFFFF" d="M283.581,57.916c0.88,9.545,5.784,16.866,11.89,23.586
			c2.925,3.219,5.877,6.42,8.666,9.755c2.849,3.408,4.511,7.411,5.213,11.801c0.617,3.86,0.063,7.538-1.601,11.087
			c-3.112,6.639-7.671,12.284-12.23,17.924c-1.989,2.46-4.124,4.803-6.342,7.157c5.167-19.773,1.951-38.442-7.028-56.629
			c-19.558,9.963-34.154,23.896-39.004,46.379c-8.42-14.849-20.285-26.872-31.928-39.659c2.838-2.921,5.429-5.908,8.347-8.531
			c9.494-8.535,20.848-13.582,32.967-17.095C262.633,60.762,272.986,59.177,283.581,57.916z"/>
		<path fill-rule="evenodd" clip-rule="evenodd" fill="#FFFFFF" d="M137.758,57.73c8.817,1.651,17.522,3.022,26.1,4.953
			c11.399,2.566,22.17,6.802,31.745,13.683c5.144,3.697,9.666,8.046,13.572,13.235c-11.162,12.528-22.986,24.448-31.342,39.302
			c-5.045-22.344-19.648-36.364-39.445-46.29c-9.185,18.096-12.197,36.775-6.95,56.479c-1.342-1.28-2.748-2.506-4.022-3.857
			c-4.563-4.835-8.934-9.829-12.352-15.574c-0.427-0.718-0.815-1.46-1.201-2.203c-5.002-9.632-2.398-18.18,3.905-26.072
			c3.096-3.876,6.58-7.44,9.736-11.271c4.587-5.569,8.196-11.683,9.666-18.868C137.37,60.269,137.502,59.276,137.758,57.73z"/>
		<path fill-rule="evenodd" clip-rule="evenodd" fill="#FFFFFF" d="M64.818,212.392c5.239,8.193,11.121,15.606,18.238,21.979
			c7.078,6.337,14.972,11.423,24.174,15.347c-19.919,4.546-32.709,16.202-38.625,35.627c19.163,9.814,38.597,16.267,60.493,8.061
			c-1.035,0.981-1.753,1.693-2.505,2.37c-5.528,4.975-10.824,10.157-15.049,16.338c-0.33,0.483-1.027,0.834-1.622,1
			c-6.875,1.924-13.628,1.083-20.241-1.18c-8.5-2.907-15.561-8.166-22.254-13.983c-3.748-3.257-7.433-6.595-11.301-9.705
			c-3.971-3.192-8.278-5.868-13.26-7.291c-0.375-0.107-0.873-0.729-0.864-1.101c0.395-16.475,2.574-32.605,9.684-47.709
			C55.051,224.996,59.3,218.405,64.818,212.392z"/>
		<path fill-rule="evenodd" clip-rule="evenodd" fill="#FFFFFF" d="M103.409,195.469c-15.321-2.609-27.831,2.47-38.292,13.889
			c-1.997-3.593-3.921-6.907-5.707-10.294c-5.819-11.041-9.445-22.861-12.186-34.971c-2.043-9.03-3.911-18.101-5.851-27.154
			c-0.092-0.431-0.13-0.874-0.218-1.479c1.286-0.229,2.539-0.39,3.76-0.68c6.466-1.535,12.051-4.892,17.469-8.564
			c4.523-3.067,8.913-6.342,13.537-9.246c7.103-4.462,14.855-7.251,23.301-7.528c3.085-0.101,6.199,0.503,9.288,0.884
			c0.476,0.058,1.188,0.581,1.282,1.002c1.634,7.338,5.938,13.162,10.619,18.744c2.86,3.411,5.925,6.649,9.261,10.37
			c-19.988-10.686-40.24-8.954-60.941-3.547C73.98,160.208,82.329,181.549,103.409,195.469z"/>
		<path fill-rule="evenodd" clip-rule="evenodd" fill="#FFFFFF" d="M379.263,135.84c-0.783,3.751-1.497,7.758-2.47,11.702
			c-2.751,11.152-5.369,22.346-8.497,33.394c-2.638,9.313-6.909,17.995-11.839,26.33c-0.282,0.478-0.581,0.944-0.996,1.616
			c-4.962-5.291-10.496-9.624-17.354-11.977c-6.779-2.326-13.72-2.474-20.818-1.553c0.197-0.165,0.379-0.356,0.595-0.492
			c10.675-6.708,18.112-16.231,23.727-27.328c4.766-9.418,7.757-19.443,10.067-29.696c0.061-0.268,0.084-0.544,0.157-1.027
			c-10.151-2.617-20.345-4.579-30.853-4.173c-10.544,0.407-20.627,2.685-30.059,7.728c2.15-2.583,4.42-5.077,6.423-7.77
			c3.558-4.783,7.05-9.621,10.367-14.572c1.222-1.824,1.979-3.991,2.732-6.081c0.377-1.047,0.901-1.495,1.931-1.735
			c7.86-1.837,15.4-0.531,22.805,2.23c5.746,2.144,10.94,5.279,15.883,8.861c5.736,4.158,11.353,8.543,17.954,11.274
			C372.233,133.9,375.663,134.711,379.263,135.84z"/>
		<path fill-rule="evenodd" clip-rule="evenodd" fill="#FFFFFF" d="M313.608,249.76c18.525-7.96,31.938-20.955,42.279-37.589
			c3.715,4.206,6.812,8.625,9.482,13.332c6.349,11.188,9.675,23.366,11.376,36.009c0.796,5.91,1.129,11.883,1.675,17.827
			c0.068,0.741,0.163,1.38-0.865,1.648c-6.149,1.605-11.142,5.252-15.976,9.168c-6.5,5.265-12.824,10.769-19.565,15.704
			c-6.142,4.497-13.128,7.335-20.835,8.097c-3.838,0.379-7.577-0.013-11.242-1.154c-0.491-0.153-1.044-0.488-1.318-0.903
			c-4.107-6.207-9.563-11.172-14.875-16.272c-0.603-0.58-1.203-1.164-1.796-1.753c-0.072-0.072-0.094-0.194-0.259-0.552
			c1.186,0.391,2.196,0.711,3.197,1.055c11.376,3.903,22.828,3.526,34.29,0.489c7.581-2.009,14.761-5.035,21.62-8.847
			c1.095-0.608,1.367-1.141,0.957-2.328c-5.985-17.326-17.615-28.611-35.468-33.274C315.538,250.222,314.785,250.048,313.608,249.76
			z"/>
		<path fill-rule="evenodd" clip-rule="evenodd" fill="#FFFFFF" d="M180.422,302.672c0.059-4.563,0.731-9.006,2.283-13.307
			c2.784-7.715,8.652-10.563,16.319-7.601c3.36,1.298,6.549,3.078,9.712,4.826c1.144,0.632,1.852,0.564,2.97-0.023
			c3.394-1.784,6.795-3.635,10.377-4.966c7.003-2.604,12.404-0.059,15.21,6.93c3.148,7.838,3.078,15.898,1.365,24.026
			c-2.402,11.398-7.974,21.146-15.895,29.53c-3.702,3.918-7.909,7.359-11.856,11.05c-0.675,0.631-1.175,0.578-1.865,0.058
			c-13.544-10.203-23.7-22.74-27.368-39.736c-0.399-1.85-0.674-3.733-0.893-5.614C180.582,306.129,180.536,304.396,180.422,302.672z
			"/>
		<path fill-rule="evenodd" clip-rule="evenodd" fill="#FFFFFF" d="M320.146,273.244c-3.359,0.531-6.749,0.698-9.906,1.641
			c-7.148,2.137-14.198,4.608-21.257,7.034c-8.283,2.846-16.66,5.012-25.542,4.435c-6.981-0.455-13.565-2.506-20.151-4.668
			c-3.221-1.058-6.536-1.896-9.865-2.538c-2.17-0.418-4.457-0.516-6.665-0.369c-2.188,0.146-4.343,0.779-6.621,1.22
			c0.248-0.348,0.472-0.755,0.781-1.083c7.27-7.712,14.34-15.628,21.884-23.063c7.678-7.565,16.551-13.523,27.193-16.137
			c10.5-2.579,20.824-2.261,30.535,3.223c5.899,3.332,10.306,8.136,13.623,13.971c2.807,4.937,4.7,10.233,5.943,15.766
			C320.146,272.883,320.135,273.102,320.146,273.244z"/>
		<path fill-rule="evenodd" clip-rule="evenodd" fill="#FFFFFF" d="M200.598,280.117c-1.952-0.46-3.386-0.884-4.85-1.129
			c-5.804-0.971-11.275,0.583-16.741,2.246c-5.059,1.539-10.073,3.346-15.237,4.394c-9.926,2.016-19.65,0.496-29.136-2.767
			c-3.846-1.323-7.658-2.744-11.479-4.136c-7.245-2.641-14.577-4.913-22.28-5.234c-0.133-0.197-0.26-0.301-0.245-0.375
			c2.152-10.158,6.146-19.38,14.121-26.369c7.531-6.6,16.533-8.934,26.397-8.468c12.247,0.579,22.524,5.804,31.81,13.396
			c8.722,7.131,16.03,15.657,23.587,23.937C197.802,276.989,199.041,278.385,200.598,280.117z"/>
		<path fill-rule="evenodd" clip-rule="evenodd" fill="#FFFFFF" d="M280.375,375.286c-5.646-0.85-11.141-1.461-16.544-2.537
			c-9.73-1.936-19.476-3.872-29.08-6.334c-7.877-2.02-15.049-5.859-21.791-10.428c-0.45-0.305-0.866-0.659-1.395-1.065
			c7.1-5.522,13.361-11.691,18.535-18.895c5.197-7.236,8.814-15.206,10.652-24.443c8.257,19.498,23.772,30.28,42.131,38.133
			c8.496-19.426,12.244-38.889,2.465-59.095c1.578,1.357,3.254,2.617,4.717,4.088c5.069,5.1,10.151,10.191,15.061,15.443
			c4.138,4.427,4.649,9.83,3.458,15.518c-1.151,5.496-4.022,10.142-7.439,14.458c-3.635,4.593-7.462,9.032-11.122,13.605
			c-4.379,5.47-7.543,11.57-9.12,18.437C280.691,373.087,280.584,374.026,280.375,375.286z"/>
		<path fill-rule="evenodd" clip-rule="evenodd" fill="#FFFFFF" d="M179.464,311.805c3.57,18.746,14.364,32.156,29.001,43.297
			c-1.489,0.982-2.889,1.933-4.315,2.842c-10.225,6.512-21.457,10.359-33.333,12.394c-9.456,1.619-18.942,3.058-28.416,4.571
			c-0.543,0.086-1.095,0.113-1.81,0.185c-0.144-0.929-0.243-1.791-0.415-2.637c-1.096-5.394-3.284-10.348-6.72-14.607
			c-3.531-4.379-7.383-8.502-11.14-12.696c-4.116-4.594-7.938-9.352-9.949-15.322c-1.659-4.921-1.866-9.839-0.245-14.786
			c0.271-0.828,0.751-1.611,1.25-2.336c5.782-8.417,13.414-14.984,21.297-21.329c-9.739,19.977-5.985,39.22,2.937,58.411
			C155.907,342.044,171.282,331.198,179.464,311.805z"/>
		<path fill-rule="evenodd" clip-rule="evenodd" fill="#FFFFFF" d="M304.745,160.424c1.721,10.552,1.94,20.973,0,31.402
			c-3.034,16.302-10.719,29.901-23.568,40.472c-1.891,1.555-3.977,2.872-5.991,4.272c-0.354,0.247-0.785,0.462-1.205,0.521
			c-9.984,1.412-18.427,6.155-26.265,12.177c-2.159,1.658-4.203,3.466-6.503,5.084c0.79-1.357,1.589-2.708,2.368-4.071
			c11.885-20.816,16.987-43.237,15.915-67.131c-0.036-0.813,0.225-1.761,0.655-2.455c4.381-7.065,11.063-11.068,18.744-13.477
			c5.258-1.649,10.666-2.822,16.005-4.212C298.129,162.165,301.355,161.313,304.745,160.424z"/>
		<path fill-rule="evenodd" clip-rule="evenodd" fill="#FFFFFF" d="M116.133,160.355c8.895,2.322,17.655,4.313,26.223,6.935
			c7.523,2.302,13.955,6.493,18.132,13.478c0.397,0.664,0.668,1.55,0.621,2.31c-1.19,19.239,2.162,37.696,9.726,55.368
			c2.078,4.856,4.806,9.434,7.24,14.137c0.25,0.483,0.533,0.949,0.624,1.625c-0.349-0.277-0.715-0.536-1.043-0.835
			c-6.87-6.27-14.438-11.422-23.328-14.4c-2.003-0.671-4.114-1.016-6.136-1.637c-1.352-0.416-2.778-0.844-3.926-1.626
			c-15.841-10.807-24.894-25.968-28.401-44.632c-1.835-9.765-1.591-19.542-0.045-29.316
			C115.888,161.333,116.007,160.914,116.133,160.355z"/>
		<path fill-rule="evenodd" clip-rule="evenodd" fill="#FFFFFF" d="M139.192,85.007c13.257,6.977,24.39,15.959,31.41,29.349
			c2.718,5.184,4.517,10.682,5.499,16.443c0.104,0.612,0.037,1.376-0.247,1.913c-7.431,14.06-12.313,28.923-14.235,44.733
			c-0.033,0.273-0.101,0.541-0.207,1.092c-0.436-0.486-0.756-0.803-1.029-1.156c-2.804-3.63-6.244-6.513-10.226-8.771
			c-0.475-0.269-0.97-0.59-1.302-1.009c-11.579-14.589-18.809-30.798-18.217-49.816c0.349-11.198,3.216-21.804,8.062-31.888
			C138.818,85.65,138.965,85.415,139.192,85.007z"/>
		<path fill-rule="evenodd" clip-rule="evenodd" fill="#FFFFFF" d="M259.091,178.778c-0.281-2.022-0.506-3.762-0.766-5.497
			c-2.104-14.088-6.467-27.438-13.004-40.095c-0.457-0.886-0.516-2.156-0.33-3.169c2.902-15.867,11.469-28.116,24.338-37.494
			c3.765-2.743,7.811-5.1,12.16-7.914c1.814,4.931,3.701,9.334,5.061,13.894c3.633,12.187,4.457,24.549,1.521,37.028
			c-2.531,10.762-7.632,20.292-14.069,29.18c-1.583,2.185-3.337,4.063-5.751,5.442c-3.264,1.866-5.99,4.455-8.21,7.53
			C259.824,177.983,259.555,178.247,259.091,178.778z"/>
		<path fill-rule="evenodd" clip-rule="evenodd" fill="#FFFFFF" d="M304.983,198.943c3.697-13.652,3.568-27.186,1.23-40.776
			c-10.497,2.728-20.82,5.411-31.121,8.087c0.303-0.398,0.766-0.97,1.19-1.57c3.911-5.524,7.241-11.371,9.932-17.591
			c0.412-0.953,1.164-1.909,2.013-2.498c11.934-8.293,25.4-10.995,39.601-10.023c6.922,0.474,13.768,2.064,20.646,3.16
			c0.379,0.06,0.743,0.211,1.189,0.342c0,0.294,0.052,0.569-0.007,0.817c-2.968,12.551-7.043,24.667-14.081,35.606
			c-7.296,11.34-17.124,19.588-29.817,24.314C305.606,198.867,305.434,198.868,304.983,198.943z"/>
		<path fill-rule="evenodd" clip-rule="evenodd" fill="#FFFFFF" d="M145.143,165.924c-10.035-2.536-20.159-5.094-30.493-7.705
			c-2.589,13.533-2.624,27.086,1.172,40.778c-6.051-2.134-11.4-4.914-16.242-8.642c-10.049-7.737-16.737-17.958-21.642-29.465
			c-3.001-7.041-5.192-14.35-6.85-21.818c-0.059-0.268-0.055-0.549-0.103-1.075c3.648-0.735,7.278-1.534,10.933-2.191
			c12.08-2.172,24.084-2.207,35.915,1.514c5.241,1.648,10.17,3.977,14.679,7.137c0.563,0.395,1.156,0.945,1.408,1.558
			c2.853,6.95,6.551,13.415,10.967,19.479C145.034,165.697,145.145,165.927,145.143,165.924z"/>
		<path fill-rule="evenodd" clip-rule="evenodd" fill="#FFFFFF" d="M138.482,347.484c-5.556-12.518-9.285-25.199-7.223-38.919
			c1.078-7.174,3.085-14.034,7.544-19.981c1.222-1.63,2.352-2.087,4.445-1.612c11.111,2.522,21.935,1.125,32.54-2.783
			c3.274-1.206,6.644-2.154,10.03-3.24c-1.486,2.24-3.269,4.125-4.098,6.362c-1.287,3.47-2.108,7.148-2.769,10.802
			c-0.411,2.276-0.087,4.675-0.232,7.01c-0.105,1.697-0.162,3.477-0.715,5.053c-3.788,10.78-10.856,19.118-19.799,25.981
			C152.203,340.764,145.608,344.362,138.482,347.484z"/>
		<path fill-rule="evenodd" clip-rule="evenodd" fill="#FFFFFF" d="M281.981,347.302c-5.984-2.57-11.599-5.512-16.838-9.133
			c-7.612-5.261-14.302-11.463-18.825-19.646c-1.824-3.3-3.171-6.868-4.653-10.349c-0.266-0.624-0.153-1.416-0.183-2.132
			c-0.151-3.615,0.008-7.274-0.505-10.836c-0.756-5.247-2.476-10.197-6.623-13.943c0.072-0.116,0.144-0.231,0.215-0.347
			c2.912,0.87,5.856,1.643,8.728,2.628c8.766,3.007,17.641,5.319,27.027,4.482c2.549-0.227,5.107-0.578,7.596-1.152
			c1.507-0.348,2.34,0.01,3.203,1.209c4.2,5.841,6.56,12.387,7.592,19.447c1.838,12.574-0.677,24.524-5.271,36.165
			C282.977,344.876,282.49,346.049,281.981,347.302z"/>
		<path fill-rule="evenodd" clip-rule="evenodd" fill="#FFFFFF" d="M279.063,236.453c2.564-2.237,4.941-4.178,7.169-6.277
			c8.029-7.566,13.827-16.581,17.396-27.033c0.228-0.666,0.727-1.485,1.315-1.743c9.13-4.005,18.577-5.974,28.531-3.904
			c8.184,1.702,14.689,6.238,20.296,12.257c0.747,0.801,0.583,1.382,0.096,2.184c-6.101,10.027-13.744,18.667-23.065,25.816
			c-5.569,4.271-11.611,7.703-18.091,10.396c-1.399,0.582-2.317,0.524-3.47-0.669c-7.582-7.854-17.045-11.099-27.8-11.027
			C280.732,236.457,280.026,236.453,279.063,236.453z"/>
		<path fill-rule="evenodd" clip-rule="evenodd" fill="#FFFFFF" d="M141.408,236.078c-4.093,0.479-8.215,0.695-12.223,1.489
			c-6.968,1.381-12.938,4.817-17.825,9.974c-1.055,1.113-1.84,1.147-3.128,0.62c-11.073-4.532-20.587-11.307-28.87-19.878
			c-4.787-4.954-8.861-10.462-12.61-16.223c-0.419-0.645-0.71-1.143-0.011-1.879c5.924-6.236,12.682-11.125,21.299-12.792
			c9.642-1.865,18.857-0.209,27.684,3.903c0.488,0.228,1.006,0.745,1.181,1.243c4.746,13.536,12.674,24.738,24.264,33.28
			C141.296,235.911,141.389,236.057,141.408,236.078z"/>
		<path fill-rule="evenodd" clip-rule="evenodd" fill="#FFFFFF" d="M210.215,31.289c5.209,5.597,10.46,10.993,15.42,16.645
			c3.937,4.486,6.926,9.584,7.951,15.615c0.037,0.22,0.087,0.438,0.119,0.659c0.637,4.408,0.588,4.421-3.247,6.596
			c-7.399,4.196-13.919,9.459-19.292,16.091c-0.24,0.297-0.486,0.589-0.733,0.888c-2.6-2.682-5.057-5.401-7.71-7.912
			c-4.317-4.084-9.181-7.446-14.478-10.141c-1.008-0.513-1.365-1.121-1.356-2.19c0.047-5.929,2.093-11.25,5.633-15.813
			c3.955-5.098,8.42-9.8,12.664-14.673C206.867,35.125,208.55,33.198,210.215,31.289z"/>
		<path fill-rule="evenodd" clip-rule="evenodd" fill="#FFFFFF" d="M322.758,275.122c-1.364-4.394-2.365-8.466-3.904-12.323
			c-1.515-3.798-3.576-7.378-5.582-11.425c3.217,0.997,6.421,1.708,9.396,2.961c13.274,5.593,22.229,15.314,27.063,28.869
			c0.311,0.869,0.306,1.353-0.638,1.841c-9.166,4.746-18.678,8.492-28.98,9.838c-12.944,1.691-25.109-0.392-36.092-7.831
			c-0.37-0.25-0.736-0.505-1.093-0.771c-0.08-0.06-0.114-0.179-0.284-0.461C295.806,281.998,308.038,275.089,322.758,275.122z"/>
		<path fill-rule="evenodd" clip-rule="evenodd" fill="#FFFFFF" d="M107.564,251.879c-4.864,6.967-7.519,14.747-9.246,23.239
			c14.362-0.033,26.615,6.979,40.379,10.83c-3.079,1.781-5.677,3.482-8.441,4.849c-9.769,4.827-20.092,5.595-30.698,3.85
			c-9.951-1.638-19.214-5.275-28.161-9.808c-0.192-0.098-0.353-0.257-0.51-0.375C73.695,269.375,93.714,251.554,107.564,251.879z"/>
		<path fill-rule="evenodd" clip-rule="evenodd" fill="#FFFFFF" d="M210.271,9.31c5.651,11.419,14.743,19.49,22.77,28.438
			c5.232,5.833,9.595,12.227,10.919,20.188c0.298,1.795,0.262,3.656,0.26,5.486c0,0.44-0.371,1.109-0.75,1.281
			c-2.474,1.123-4.997,2.137-7.292,3.099c-0.635-2.929-1.057-5.905-1.941-8.737c-1.924-6.161-5.861-11.109-10.162-15.767
			c-3.406-3.689-6.949-7.251-10.354-10.941c-1.271-1.377-2.321-2.958-3.218-4.117c-4.832,5.318-9.696,10.606-14.486,15.96
			c-4.736,5.294-8.711,11.056-10.311,18.13c-0.401,1.777-0.525,3.617-0.796,5.564c-2.509-1.037-5.027-2.021-7.48-3.147
			c-0.386-0.178-0.64-0.989-0.679-1.528c-0.363-5.058,1.089-9.712,3.336-14.155c2.462-4.868,5.706-9.21,9.432-13.156
			C197.186,27.79,204.904,19.73,210.271,9.31z"/>
		<path fill-rule="evenodd" clip-rule="evenodd" fill="#FFFFFF" d="M210.27,397.26c-4.542-4.73-9.271-9.449-13.751-14.391
			c-3.595-3.965-6.373-8.452-7.052-13.96c-0.141-1.145,0.035-1.754,1.26-2.23c6.463-2.511,12.562-5.74,18.203-9.788
			c0.842-0.604,1.402-0.533,2.206,0.024c6.024,4.185,12.45,7.612,19.401,9.995c1.007,0.346,1.227,0.992,0.953,1.768
			c-1.064,3.026-2.04,6.105-3.413,8.992c-0.869,1.827-2.232,3.489-3.637,4.977C219.741,387.616,214.925,392.476,210.27,397.26z"/>
		<path fill-rule="evenodd" clip-rule="evenodd" fill="#FFFFFF" d="M187.492,367.992c0.691,6.925,4.1,12.292,8.511,17.094
			c2.829,3.079,5.927,5.909,8.778,8.969c1.933,2.075,3.645,4.355,5.517,6.618c-0.071,0.01,0.082,0.033,0.118-0.021
			c3.907-5.863,9.391-10.272,14.127-15.37c3.56-3.831,6.63-7.992,8.035-13.147c0.35-1.282,0.596-2.592,0.923-4.032
			c2.141,0.569,4.285,1.087,6.384,1.75c0.348,0.109,0.657,0.832,0.711,1.303c0.567,4.892-0.766,9.433-3.583,13.277
			c-2.882,3.935-6.325,7.471-9.633,11.079c-4.254,4.641-8.702,9.104-12.895,13.799c-1.65,1.847-2.835,4.108-4.313,6.302
			c-4.461-7.448-10.575-13.368-16.696-19.302c-2.716-2.633-5.3-5.435-7.68-8.374c-2.839-3.506-4.813-7.503-5.464-12.05
			c-0.055-0.386-0.112-0.773-0.144-1.162c-0.351-4.306-0.205-4.509,3.916-5.683C185.169,368.738,186.222,368.388,187.492,367.992z"
			/>
		<path fill-rule="evenodd" clip-rule="evenodd" fill="#FFFFFF" d="M27.02,207.708c3.682-3.377,7.344-6.795,11.072-10.14
			c4.11-3.688,8.603-6.557,14.441-6.423c0.916,0.021,1.325,0.353,1.736,1.161c2.904,5.704,5.85,11.388,8.863,17.035
			c0.522,0.978,0.527,1.527-0.186,2.454c-2.987,3.882-5.802,7.895-8.763,11.797c-0.421,0.555-1.291,1.065-1.965,1.082
			c-4.622,0.111-8.369-2.113-11.789-4.884c-2.42-1.961-4.595-4.223-6.909-6.316C31.314,211.476,29.067,209.52,27.02,207.708z"/>
		<path fill-rule="evenodd" clip-rule="evenodd" fill="#FFFFFF" d="M393.171,207.548c-4.374,4.026-8.784,8.181-13.305,12.211
			c-2.874,2.563-6.174,4.356-10.101,4.831c-1.809,0.218-2.967-0.13-4.074-1.891c-2.457-3.905-5.283-7.583-8.063-11.275
			c-0.646-0.857-0.674-1.386-0.19-2.312c2.913-5.576,5.722-11.207,8.634-16.783c0.266-0.507,0.988-1.036,1.544-1.09
			c3.763-0.365,7.265,0.622,10.235,2.873c2.968,2.248,5.693,4.817,8.492,7.281C388.682,203.452,390.973,205.564,393.171,207.548z"/>
		<path fill-rule="evenodd" clip-rule="evenodd" fill="#FFFFFF" d="M52.722,188.984c-2.317,0.507-4.582,0.827-6.73,1.512
			c-4.021,1.283-7.223,3.915-10.246,6.76c-3.892,3.664-7.568,7.583-12.08,10.028c3.923,3.508,7.842,7.036,11.788,10.532
			c1.793,1.589,3.564,3.219,5.48,4.648c3.317,2.473,7.073,3.926,11.493,4.141c-0.897,1.79-1.615,3.403-2.519,4.905
			c-0.236,0.392-1.034,0.563-1.597,0.623c-5.285,0.56-9.912-1.329-14.118-4.225c-2.881-1.984-5.561-4.288-8.182-6.616
			c-5.621-4.995-11.124-10.127-18.142-13.623c1.997-1.324,3.883-2.382,5.549-3.716c4.696-3.76,9.363-7.562,13.926-11.481
			c4.661-4.004,9.504-7.679,15.731-8.715c2.146-0.357,4.424-0.09,6.619,0.124c0.6,0.059,1.306,0.863,1.634,1.497
			C51.935,186.548,52.298,187.846,52.722,188.984z"/>
		<path fill-rule="evenodd" clip-rule="evenodd" fill="#FFFFFF" d="M397.098,207.587c-5.078-2.832-8.726-6.787-12.602-10.474
			c-2.925-2.783-5.978-5.44-9.924-6.638c-2.263-0.687-4.64-1-7.104-1.509c0.462-1.275,0.941-2.796,1.586-4.244
			c0.179-0.403,0.811-0.725,1.296-0.854c3.577-0.948,7.077-0.533,10.507,0.733c4.261,1.573,7.896,4.144,11.18,7.21
			c6.275,5.86,12.579,11.671,20.389,15.659c-2.755,1.78-5.513,3.268-7.927,5.189c-3.879,3.086-7.598,6.382-11.257,9.729
			c-4.023,3.679-8.149,7.241-13.475,8.771c-2.51,0.721-5.251,0.66-7.896,0.861c-0.468,0.035-1.209-0.253-1.415-0.622
			c-0.861-1.537-1.567-3.161-2.414-4.93c6.412-0.023,11.009-3.353,15.299-7.332C387.662,215.13,391.501,210.56,397.098,207.587z"/>
		<path fill-rule="evenodd" clip-rule="evenodd" fill="#FFFFFF" d="M210.317,251.426c6.25,5.883,10.857,12.469,10.052,21.561
			c-0.298,3.365-1.668,6.353-4.19,8.699c-3.366,3.132-7.891,3.351-11.395,0.393c-4.707-3.975-5.54-9.248-4.347-14.917
			C201.768,260.831,205.232,255.726,210.317,251.426z"/>
		<path fill-rule="evenodd" clip-rule="evenodd" fill="#FFFFFF" d="M212.84,188.41c0,1.223,0.149,2.471-0.044,3.663
			c-0.171,1.055-0.539,2.181-1.151,3.038c-0.878,1.229-2.303,1.067-3.218-0.152c-0.132-0.177-0.273-0.37-0.331-0.577
			c-1.073-3.819-1.009-7.683-0.074-11.481c0.185-0.752,1.48-1.665,2.293-1.695c0.683-0.025,1.823,1.014,2.034,1.78
			c0.476,1.736,0.503,3.595,0.713,5.403C212.988,188.396,212.914,188.403,212.84,188.41z"/>
		<path fill-rule="evenodd" clip-rule="evenodd" fill="#FFFFFF" d="M231.743,193.737c-0.757,3.121-1.362,5.77-2.064,8.392
			c-0.149,0.556-0.584,1.081-1.001,1.51c-1.154,1.188-2.509,0.891-3.16-0.642c-0.043-0.102-0.087-0.21-0.096-0.318
			c-0.281-3.767,0.366-7.386,2.096-10.726c0.309-0.596,1.97-1.204,2.307-0.934C230.709,191.73,231.209,192.922,231.743,193.737z"/>
		<path fill-rule="evenodd" clip-rule="evenodd" fill="#FFFFFF" d="M195.076,201.125c-0.014,0.167-0.012,0.336-0.043,0.499
			c-0.233,1.196-0.287,2.646-1.807,2.872c-1.577,0.234-2.324-1.051-2.655-2.29c-0.673-2.523-1.147-5.101-1.661-7.665
			c-0.083-0.418,0.026-0.886,0.099-1.323c0.182-1.103,0.616-2.353,1.83-2.191c0.917,0.123,2.196,0.975,2.474,1.79
			c0.766,2.247,1.096,4.643,1.585,6.983C194.989,200.234,195.018,200.682,195.076,201.125z"/>
		<path fill-rule="evenodd" clip-rule="evenodd" fill="#FFFFFF" d="M173.431,206.759c0.663-0.912,1.124-2.189,1.912-2.44
			c0.686-0.219,2.202,0.492,2.55,1.191c1.255,2.522,2.304,5.171,3.156,7.859c0.357,1.127,0.067,2.761-1.37,2.99
			c-0.817,0.13-2.248-0.647-2.652-1.412C175.687,212.413,174.688,209.699,173.431,206.759z"/>
		<path fill-rule="evenodd" clip-rule="evenodd" fill="#FFFFFF" d="M238.675,213.799c1.32-2.976,2.475-5.85,3.9-8.583
			c0.309-0.594,1.723-1.103,2.377-0.887c0.659,0.217,1.212,1.33,1.426,2.15c0.177,0.676-0.1,1.54-0.369,2.248
			c-0.689,1.817-1.479,3.597-2.244,5.385c-0.152,0.355-0.339,0.704-0.564,1.017c-0.701,0.975-1.713,1.742-2.817,1.154
			C239.66,215.897,239.32,214.788,238.675,213.799z"/>
		<path fill-rule="evenodd" clip-rule="evenodd" fill="#FFFFFF" d="M219.63,213.271c-0.393,2.816-0.677,4.968-1.006,7.113
			c-0.057,0.37-0.225,0.792-0.482,1.045c-0.447,0.441-1.042,1.105-1.505,1.054c-0.468-0.052-1.005-0.798-1.23-1.354
			c-0.233-0.579-0.207-1.3-0.158-1.948c0.124-1.665,0.321-3.324,0.495-4.985c0.029-0.276-0.005-0.626,0.148-0.809
			c0.666-0.793,1.391-1.538,2.094-2.3C218.63,211.942,219.273,212.797,219.63,213.271z"/>
		<path fill-rule="evenodd" clip-rule="evenodd" fill="#FFFFFF" d="M247.514,230.066c-0.069,0.221-0.128,0.748-0.38,1.154
			c-1.141,1.842-2.278,3.691-3.535,5.453c-0.611,0.857-1.58,1.76-2.669,1.014c-1.07-0.733-0.842-1.929-0.212-2.982
			c0.913-1.527,1.77-3.089,2.752-4.569c0.447-0.673,1.053-1.32,1.734-1.742C246.471,227.611,247.529,228.304,247.514,230.066z"/>
		<path fill-rule="evenodd" clip-rule="evenodd" fill="#FFFFFF" d="M172.513,230.137c0.453-0.744,0.681-1.564,1.194-1.825
			c0.445-0.226,1.407-0.021,1.796,0.352c0.782,0.749,1.382,1.709,1.961,2.642c0.817,1.319,1.685,2.638,2.252,4.068
			c0.253,0.638-0.061,1.594-0.365,2.298c-0.082,0.188-1.25,0.212-1.618-0.075C175.264,235.667,174.078,232.855,172.513,230.137z"/>
		<path fill-rule="evenodd" clip-rule="evenodd" fill="#FFFFFF" d="M204.996,220.517c-0.349,0.471-0.984,1.328-1.619,2.185
			c-0.617-0.832-1.547-1.583-1.786-2.513c-0.481-1.87-0.611-3.834-0.84-5.765c-0.199-1.682,0.481-3.082,1.471-3.161
			c1.023-0.081,1.908,1.138,2.076,2.804C204.492,216.002,204.714,217.934,204.996,220.517z"/>
		<path fill-rule="evenodd" clip-rule="evenodd" fill="#FFFFFF" d="M232.468,221.959c-1.113,2.706-2.08,5.248-3.232,7.703
			c-0.237,0.505-1.162,0.687-1.771,1.018c-0.342-0.717-1.116-1.559-0.952-2.13c0.75-2.605,1.697-5.163,2.741-7.667
			c0.196-0.47,1.352-1.01,1.733-0.827C231.599,220.351,231.934,221.22,232.468,221.959z"/>
		<path fill-rule="evenodd" clip-rule="evenodd" fill="#FFFFFF" d="M193.913,228.922c-0.473,0.643-0.8,1.524-1.35,1.696
			c-0.433,0.136-1.463-0.471-1.669-0.977c-0.98-2.397-1.891-4.842-2.544-7.343c-0.172-0.658,0.663-1.579,1.035-2.379
			c0.674,0.479,1.698,0.816,1.96,1.462C192.316,223.78,193.038,226.28,193.913,228.922z"/>
		<path fill-rule="evenodd" clip-rule="evenodd" fill="#FFFFFF" d="M234.011,238.104c-0.417,0.993-0.745,1.877-1.152,2.723
			c-0.795,1.652-1.555,3.331-2.505,4.892c-0.287,0.471-1.152,0.589-1.752,0.869c-0.143-0.615-0.573-1.347-0.378-1.825
			c0.98-2.415,2.066-4.794,3.256-7.113c0.232-0.453,1.075-0.751,1.659-0.792C233.394,236.838,233.707,237.646,234.011,238.104z"/>
		<path fill-rule="evenodd" clip-rule="evenodd" fill="#FFFFFF" d="M186.246,238.494c0.478-0.673,0.698-1.282,1.11-1.468
			c0.308-0.139,1.124,0.146,1.265,0.45c1.155,2.498,2.245,5.028,3.237,7.594c0.125,0.324-0.341,1.01-0.707,1.33
			c-0.162,0.141-0.981-0.096-1.121-0.362C188.722,243.548,187.497,241.017,186.246,238.494z"/>
		<path fill-rule="evenodd" clip-rule="evenodd" fill="#FFFFFF" d="M93.643,90.094c-20.497,0.354-33.569-12.767-33.907-33.305
			c8.182-0.306,15.655,1.665,22.083,6.813C90.237,70.344,93.261,79.561,93.643,90.094z M87.7,84.335
			c-0.383-11.432-10.158-22.154-21.975-21.561C65.959,73.803,75.107,83.955,87.7,84.335z"/>
		<path fill-rule="evenodd" clip-rule="evenodd" fill="#FFFFFF" d="M361.229,56.938c-0.146,20.894-14.214,33.717-33.466,33.119
			C327.436,69.081,343.161,55.961,361.229,56.938z M355.27,62.708c-11.52-0.047-23.01,11.421-21.696,21.55
			C344.185,85.042,356.205,73.175,355.27,62.708z"/>
		<path fill-rule="evenodd" clip-rule="evenodd" fill="#FFFFFF" d="M360.883,362.005c-20.748,0.39-33.083-13.848-33.431-32.914
			c8.638,0.075,16.536,2.319,23.107,8.011C358.054,343.594,360.638,352.272,360.883,362.005z M354.997,356.081
			c0.407-10.574-12.591-23.059-21.729-20.989C334.068,347.789,344.559,356.29,354.997,356.081z"/>
		<path fill-rule="evenodd" clip-rule="evenodd" fill="#FFFFFF" d="M59.953,361.939c0.165-21.067,14.403-32.898,33.071-32.729
			C93.608,347.122,80.311,363.197,59.953,361.939z M87.443,335.063c-10.917-0.576-23.279,11.568-21.61,21.091
			C78.033,356.24,86.972,345.885,87.443,335.063z"/>
		<path fill-rule="evenodd" clip-rule="evenodd" d="M87.7,84.335c-12.593-0.38-21.741-10.532-21.975-21.561
			C77.542,62.181,87.317,72.903,87.7,84.335z M67.792,64.691c0.548,8.53,9.342,17.139,17.787,17.513
			C85.422,74.125,76.087,64.865,67.792,64.691z"/>
		<path fill-rule="evenodd" clip-rule="evenodd" d="M355.27,62.708c0.936,10.466-11.085,22.333-21.696,21.55
			C332.26,74.13,343.75,62.661,355.27,62.708z M353.193,64.76c-10.417,1.149-17.249,10.263-17.437,17.506
			C346.451,80.832,352.612,71.993,353.193,64.76z"/>
		<path fill-rule="evenodd" clip-rule="evenodd" d="M354.997,356.081c-10.438,0.209-20.929-8.292-21.729-20.989
			C342.406,333.021,355.404,345.507,354.997,356.081z M352.943,353.984c-1.533-9.691-9.463-16.285-17.41-16.841
			C335.675,345.041,345.046,354.18,352.943,353.984z"/>
		<path fill-rule="evenodd" clip-rule="evenodd" d="M87.443,335.063c-0.471,10.822-9.41,21.177-21.61,21.091
			C64.165,346.631,76.526,334.488,87.443,335.063z M67.846,354.022c7.937,0.076,17.431-9.174,17.436-16.848
			C77.355,337.009,68.915,345.121,67.846,354.022z"/>
		<path fill-rule="evenodd" clip-rule="evenodd" fill="#FFFFFF" d="M67.792,64.691c8.296,0.174,17.63,9.435,17.787,17.513
			C77.134,81.83,68.34,73.221,67.792,64.691z"/>
		<path fill-rule="evenodd" clip-rule="evenodd" fill="#FFFFFF" d="M353.193,64.76c-0.581,7.233-6.742,16.072-17.437,17.506
			C335.944,75.022,342.776,65.909,353.193,64.76z"/>
		<path fill-rule="evenodd" clip-rule="evenodd" fill="#FFFFFF" d="M352.943,353.984c-7.897,0.196-17.269-8.944-17.41-16.841
			C343.48,337.7,351.41,344.293,352.943,353.984z"/>
		<path fill-rule="evenodd" clip-rule="evenodd" fill="#FFFFFF" d="M67.846,354.022c1.068-8.901,9.509-17.013,17.436-16.848
			C85.277,344.848,75.783,354.098,67.846,354.022z"/>
	</g>
</g>
</svg>
