<?xml version="1.0" encoding="utf-8"?>
<!-- Generator: Adobe Illustrator 16.0.0, SVG Export Plug-In . SVG Version: 6.00 Build 0)  -->
<!DOCTYPE svg PUBLIC "-//W3C//DTD SVG 1.1//EN" "http://www.w3.org/Graphics/SVG/1.1/DTD/svg11.dtd">
<svg version="1.1" id="Layer_1" xmlns="http://www.w3.org/2000/svg" xmlns:xlink="http://www.w3.org/1999/xlink" x="0px" y="0px"
	 width="612px" height="792px" viewBox="0 0 612 792" enable-background="new 0 0 612 792" xml:space="preserve">
<g>
	<g>
		<path fill-rule="evenodd" clip-rule="evenodd" fill="#FFFFFF" d="M420.335,420.335c-140,0-280,0-420,0c0-140,0-280,0-420
			c140,0,280,0,420,0C420.335,140.335,420.335,280.335,420.335,420.335z M101.657,58.28c-5.302,0-10.605,0.049-15.907-0.035
			c-1.304-0.021-1.991,0.424-2.631,1.518c-5.291,9.042-10.611,18.067-16.004,27.048c-0.825,1.374-0.833,2.371-0.001,3.753
			c5.177,8.594,10.268,17.241,15.333,25.902c0.316,0.541,0.475,1.54,0.189,2.013c-5.121,8.495-10.343,16.929-15.481,25.414
			c-0.653,1.078-1.32,1.512-2.62,1.505c-10.381-0.06-20.763-0.048-31.145,0.019c-0.676,0.004-1.649,0.469-1.976,1.021
			c-5.547,9.356-11.003,18.765-16.512,28.144c-0.484,0.823-0.497,1.432,0.003,2.274c5.644,9.494,11.235,19.019,16.869,28.519
			c0.445,0.751,0.529,1.293,0.053,2.104c-5.679,9.667-11.281,19.378-16.987,29.028c-0.792,1.338-0.768,2.308,0.005,3.617
			c5.393,9.123,10.724,18.282,16.032,27.455c0.576,0.996,1.225,1.356,2.383,1.35c9.991-0.051,19.982-0.013,29.973-0.067
			c1.215-0.006,1.869,0.356,2.476,1.428c4.75,8.389,9.556,16.747,14.4,25.082c0.555,0.956,0.521,1.608-0.033,2.544
			c-5.426,9.158-10.783,18.356-16.203,27.518c-0.525,0.887-0.511,1.497,0.021,2.393c5.515,9.299,10.997,18.619,16.412,27.976
			c0.686,1.186,1.432,1.577,2.764,1.57c10.661-0.058,21.321-0.033,31.982-0.068c0.985-0.003,1.608,0.232,2.147,1.149
			c5.283,8.988,10.649,17.928,15.91,26.93c0.705,1.206,1.399,1.728,2.837,1.72c11.498-0.063,22.996-0.061,34.494-0.012
			c1.162,0.005,1.652-0.515,2.177-1.393c5.413-9.047,10.868-18.069,16.285-27.113c0.498-0.831,1-1.265,2.073-1.261
			c12.224,0.038,24.447,0.032,36.671-0.028c1.234-0.006,1.857,0.415,2.472,1.446c5.367,9.009,10.803,17.978,16.195,26.972
			c0.49,0.817,0.95,1.343,2.049,1.339c11.777-0.041,23.554-0.005,35.331-0.063c0.617-0.003,1.488-0.503,1.809-1.034
			c5.482-9.061,10.91-18.156,16.308-27.269c0.568-0.959,1.154-1.382,2.337-1.377c10.66,0.047,21.321,0.002,31.982,0.022
			c1.101,0.002,1.82-0.243,2.43-1.286c5.37-9.19,10.758-18.372,16.272-27.477c0.939-1.551,0.813-2.636-0.042-4.065
			c-5.262-8.802-10.444-17.652-15.699-26.459c-0.573-0.96-0.687-1.658-0.082-2.689c4.931-8.413,9.807-16.858,14.649-25.321
			c0.526-0.919,1.139-1.158,2.134-1.156c10.158,0.027,20.316-0.019,30.476,0.033c1.396,0.007,2.199-0.402,2.912-1.636
			c5.361-9.271,10.783-18.506,16.234-27.723c0.563-0.952,0.546-1.614-0.016-2.564c-5.73-9.701-11.389-19.445-17.123-29.144
			c-0.57-0.964-0.505-1.638,0.03-2.552c5.496-9.386,10.917-18.816,16.46-28.174c0.693-1.17,0.579-1.93-0.037-2.977
			c-5.428-9.231-10.836-18.475-16.188-27.75c-0.567-0.983-1.268-1.048-2.195-1.046c-10.438,0.018-20.875,0.003-31.313,0.04
			c-0.975,0.003-1.607-0.175-2.159-1.084c-5.06-8.338-10.156-16.655-15.297-24.944c-0.589-0.951-0.548-1.606,0.008-2.539
			c5.302-8.907,10.536-17.854,15.84-26.76c0.616-1.036,0.667-1.792,0.023-2.862c-5.487-9.122-10.926-18.272-16.32-27.449
			c-0.65-1.106-1.357-1.505-2.642-1.499c-10.604,0.053-21.21,0.009-31.815,0.054c-1.103,0.005-1.683-0.364-2.232-1.288
			c-5.276-8.86-10.615-17.683-15.892-26.542c-0.611-1.027-1.289-1.449-2.515-1.444c-10.884,0.048-21.769,0.049-32.652-0.001
			c-1.278-0.005-1.994,0.404-2.659,1.498c-5.358,8.818-10.8,17.586-16.164,26.401c-0.622,1.022-1.275,1.424-2.5,1.419
			c-12-0.051-24.001-0.048-36.001,0c-1.12,0.004-1.677-0.39-2.225-1.307c-5.287-8.861-10.637-17.685-15.918-26.548
			c-0.617-1.036-1.292-1.44-2.514-1.437c-10.716,0.035-21.434,0.037-32.149-0.052c-1.709-0.014-2.706,0.509-3.581,1.993
			c-5.1,8.641-10.313,17.215-15.443,25.837c-0.644,1.082-1.366,1.504-2.659,1.483C112.263,58.233,106.96,58.282,101.657,58.28z"/>
		<path fill-rule="evenodd" clip-rule="evenodd" d="M101.657,58.281c5.303,0.001,10.606-0.047,15.907,0.036
			c1.293,0.021,2.016-0.401,2.659-1.483c5.131-8.623,10.344-17.196,15.443-25.837c0.875-1.484,1.872-2.007,3.581-1.993
			c10.716,0.089,21.433,0.087,32.149,0.052c1.223-0.004,1.897,0.401,2.514,1.437c5.282,8.864,10.632,17.688,15.918,26.548
			c0.547,0.917,1.104,1.311,2.225,1.307c12-0.048,24-0.051,36.001,0c1.225,0.005,1.878-0.397,2.5-1.419
			c5.364-8.814,10.806-17.583,16.164-26.401c0.665-1.093,1.381-1.503,2.659-1.498c10.884,0.05,21.769,0.049,32.652,0.001
			c1.227-0.005,1.904,0.417,2.515,1.444c5.277,8.859,10.615,17.682,15.892,26.542c0.55,0.924,1.129,1.293,2.232,1.288
			c10.605-0.044,21.21-0.001,31.815-0.054c1.284-0.006,1.991,0.392,2.642,1.499c5.395,9.177,10.833,18.327,16.32,27.449
			c0.644,1.07,0.593,1.827-0.023,2.862c-5.304,8.906-10.538,17.853-15.84,26.76c-0.556,0.933-0.597,1.588-0.008,2.539
			c5.141,8.289,10.237,16.605,15.297,24.944c0.552,0.909,1.185,1.087,2.159,1.084c10.438-0.037,20.875-0.022,31.313-0.04
			c0.928-0.001,1.628,0.063,2.195,1.046c5.353,9.275,10.761,18.519,16.188,27.75c0.616,1.047,0.73,1.807,0.037,2.977
			c-5.543,9.358-10.964,18.788-16.46,28.174c-0.535,0.915-0.601,1.588-0.03,2.552c5.734,9.699,11.393,19.443,17.123,29.144
			c0.562,0.95,0.578,1.612,0.016,2.564c-5.451,9.217-10.873,18.453-16.234,27.723c-0.713,1.233-1.516,1.643-2.912,1.636
			c-10.159-0.052-20.317-0.006-30.476-0.033c-0.995-0.002-1.607,0.236-2.134,1.156c-4.843,8.463-9.719,16.908-14.649,25.321
			c-0.604,1.031-0.491,1.729,0.082,2.689c5.255,8.807,10.438,17.657,15.699,26.459c0.855,1.429,0.981,2.514,0.042,4.065
			c-5.515,9.104-10.902,18.286-16.272,27.477c-0.609,1.043-1.329,1.288-2.43,1.286c-10.661-0.02-21.322,0.024-31.982-0.022
			c-1.183-0.005-1.769,0.417-2.337,1.377c-5.398,9.112-10.825,18.208-16.308,27.269c-0.321,0.53-1.192,1.031-1.809,1.034
			c-11.777,0.058-23.554,0.022-35.331,0.063c-1.099,0.004-1.559-0.522-2.049-1.339c-5.392-8.994-10.828-17.962-16.195-26.972
			c-0.614-1.031-1.237-1.452-2.472-1.446c-12.224,0.06-24.447,0.065-36.671,0.028c-1.073-0.004-1.575,0.43-2.073,1.261
			c-5.417,9.044-10.872,18.066-16.285,27.113c-0.525,0.878-1.015,1.397-2.177,1.393c-11.498-0.048-22.996-0.051-34.494,0.012
			c-1.438,0.008-2.132-0.514-2.837-1.72c-5.261-9.001-10.627-17.941-15.91-26.93c-0.539-0.917-1.162-1.152-2.147-1.149
			c-10.661,0.035-21.322,0.01-31.982,0.068c-1.332,0.007-2.078-0.384-2.764-1.57c-5.416-9.357-10.897-18.677-16.412-27.976
			c-0.531-0.896-0.545-1.506-0.021-2.393c5.419-9.162,10.777-18.36,16.203-27.518c0.554-0.936,0.588-1.589,0.033-2.544
			c-4.845-8.335-9.65-16.693-14.4-25.082c-0.607-1.072-1.261-1.434-2.476-1.428c-9.991,0.054-19.982,0.016-29.973,0.067
			c-1.158,0.006-1.807-0.354-2.383-1.35c-5.308-9.172-10.64-18.332-16.032-27.455c-0.773-1.309-0.797-2.278-0.005-3.617
			c5.707-9.65,11.308-19.362,16.987-29.028c0.476-0.81,0.392-1.353-0.053-2.104c-5.634-9.5-11.225-19.025-16.869-28.519
			c-0.5-0.842-0.487-1.451-0.003-2.274c5.509-9.378,10.965-18.788,16.512-28.144c0.327-0.552,1.3-1.017,1.976-1.021
			c10.381-0.067,20.763-0.079,31.145-0.019c1.3,0.007,1.967-0.427,2.62-1.505c5.138-8.485,10.36-16.919,15.481-25.414
			c0.286-0.473,0.127-1.472-0.189-2.013c-5.065-8.662-10.156-17.308-15.333-25.902c-0.833-1.382-0.824-2.379,0.001-3.753
			c5.393-8.981,10.713-18.006,16.004-27.048c0.64-1.094,1.327-1.538,2.631-1.518C91.052,58.329,96.355,58.28,101.657,58.281z
			 M265.93,327.271c0-0.003,0-0.007,0-0.01c-5.525,0-11.049,0.012-16.574-0.012c-0.89-0.004-1.522,0.13-2.051,1.014
			c-5.33,8.896-10.704,17.766-16.101,26.622c-0.644,1.057-0.729,1.863-0.03,3.003c5.42,8.842,10.77,17.727,16.096,26.626
			c0.508,0.849,1.08,1.103,2.011,1.101c11.161-0.032,22.321-0.047,33.482-0.017c1.042,0.002,1.592-0.384,2.1-1.238
			c5.325-8.961,10.696-17.896,15.996-26.872c0.284-0.48,0.301-1.412,0.022-1.888c-5.29-9.046-10.656-18.046-15.961-27.083
			c-0.552-0.94-1.152-1.285-2.248-1.273C277.091,327.304,271.511,327.271,265.93,327.271z M152.969,385.612c0-0.006,0-0.013,0-0.02
			c5.523,0,11.048-0.019,16.571,0.018c0.988,0.006,1.623-0.246,2.163-1.147c5.44-9.088,10.94-18.142,16.365-27.239
			c0.291-0.487,0.328-1.435,0.046-1.908c-5.402-9.049-10.857-18.066-16.361-27.054c-0.3-0.49-1.117-0.938-1.696-0.942
			c-11.326-0.06-22.653-0.065-33.979-0.016c-0.577,0.002-1.397,0.454-1.689,0.944c-5.311,8.902-10.537,17.855-15.848,26.758
			c-0.67,1.123-0.621,1.913,0.037,3.011c5.298,8.846,10.509,17.744,15.824,26.58c0.326,0.542,1.311,0.961,1.996,0.971
			C141.92,385.646,147.445,385.612,152.969,385.612z M99.116,355.821c0-0.006,0-0.013,0-0.019c5.189,0,10.379-0.06,15.566,0.04
			c1.398,0.027,2.063-0.509,2.722-1.64c5.053-8.662,10.146-17.301,15.3-25.904c0.63-1.052,0.689-1.769,0.058-2.829
			c-5.33-8.955-10.614-17.938-15.857-26.944c-0.558-0.958-1.245-1.077-2.192-1.075c-10.434,0.025-20.868,0.042-31.301,0.005
			c-1.091-0.004-1.666,0.327-2.22,1.28c-5.065,8.719-10.163,17.42-15.337,26.075c-0.796,1.332-0.755,2.281,0.025,3.589
			c5.192,8.707,10.31,17.458,15.408,26.221c0.515,0.886,1.066,1.232,2.095,1.223C88.626,355.794,93.871,355.821,99.116,355.821z
			 M319.862,355.791c5.243,0,10.487-0.034,15.729,0.028c1.105,0.013,1.683-0.374,2.226-1.302
			c5.146-8.795,10.315-17.577,15.551-26.318c0.696-1.164,0.712-2.003,0.024-3.157c-5.247-8.804-10.441-17.639-15.618-26.485
			c-0.489-0.837-1.063-1.111-2.005-1.108c-10.542,0.029-21.085,0.032-31.627,0.004c-0.942-0.003-1.495,0.25-1.991,1.102
			c-5.273,9.05-10.576,18.082-15.929,27.084c-0.584,0.982-0.466,1.657,0.076,2.561c5.273,8.789,10.521,17.592,15.728,26.419
			c0.525,0.891,1.087,1.204,2.105,1.194C309.376,355.763,314.619,355.79,319.862,355.791z M102.081,59.684
			c-5.302,0-10.604-0.026-15.905,0.036c-0.607,0.007-1.492,0.335-1.77,0.8c-5.438,9.082-10.816,18.199-16.149,27.344
			c-0.252,0.433-0.172,1.3,0.099,1.764c5.227,8.95,10.512,17.866,15.76,26.804c0.471,0.802,0.996,1.167,1.979,1.164
			c10.492-0.037,20.984-0.043,31.476,0.005c1.173,0.005,1.784-0.411,2.349-1.391c5.095-8.834,10.204-17.662,15.403-26.436
			c0.79-1.332,0.768-2.27-0.014-3.563c-5.071-8.395-10.074-16.831-15.06-25.275c-0.549-0.931-1.164-1.287-2.262-1.274
			C112.685,59.721,107.382,59.688,102.081,59.684z M370.759,267.35c0-0.003,0-0.006,0-0.009c5.132,0,10.264,0.034,15.394-0.044
			c0.632-0.009,1.531-0.455,1.841-0.975c5.329-8.956,10.6-17.946,15.816-26.967c0.308-0.531,0.32-1.543,0.016-2.069
			c-5.668-9.792-11.393-19.552-17.163-29.283c-0.289-0.488-1.1-0.941-1.67-0.945c-9.37-0.056-18.741-0.05-28.111,0.002
			c-0.529,0.003-1.289,0.396-1.552,0.838c-5.787,9.776-11.533,19.576-17.222,29.41c-0.302,0.523-0.287,1.531,0.018,2.061
			c5.133,8.933,10.347,17.818,15.505,26.736c0.498,0.861,1.005,1.286,2.07,1.272C360.719,267.315,365.739,267.35,370.759,267.35z
			 M318.248,59.66c0,0.008,0,0.016,0,0.024c-5.244,0-10.489,0.022-15.734-0.019c-0.994-0.008-1.615,0.241-2.151,1.156
			c-5.069,8.651-10.171,17.283-15.322,25.886c-0.566,0.947-0.555,1.61-0.009,2.538c5.334,9.08,10.638,18.177,15.898,27.3
			c0.519,0.9,1.15,1.027,2.038,1.026c10.21-0.017,20.422-0.043,30.632,0.024c1.413,0.009,2.177-0.419,2.885-1.636
			c5.073-8.715,10.203-17.397,15.382-26.05c0.613-1.025,0.535-1.694-0.052-2.672c-5.246-8.741-10.443-17.511-15.614-26.296
			c-0.54-0.918-1.097-1.326-2.218-1.311C328.738,59.699,323.493,59.66,318.248,59.66z M265.406,87.772c0-0.003,0-0.006,0-0.009
			c5.076,0,10.154-0.078,15.228,0.045c1.626,0.04,2.472-0.526,3.262-1.881c4.993-8.567,10.047-17.098,15.145-25.604
			c0.626-1.045,0.674-1.794,0.039-2.843c-5.255-8.673-10.477-17.369-15.642-26.096c-0.564-0.953-1.268-0.901-2.096-0.901
			c-10.432,0.004-20.863,0.025-31.295-0.02c-1.145-0.005-1.797,0.337-2.395,1.319c-5.3,8.714-10.632,17.409-16.019,26.069
			c-0.595,0.957-0.597,1.583-0.024,2.526c5.325,8.766,10.578,17.577,15.926,26.328c0.337,0.552,1.297,1.01,1.975,1.021
			C254.806,87.81,260.106,87.772,265.406,87.772z M154.922,87.797c5.301,0,10.602-0.025,15.901,0.021
			c1.013,0.009,1.586-0.3,2.115-1.191c5.205-8.775,10.447-17.528,15.729-26.257c0.563-0.93,0.641-1.576,0.049-2.545
			c-5.347-8.753-10.617-17.555-15.976-26.301c-0.32-0.522-1.204-0.99-1.828-0.993c-10.657-0.057-21.313-0.054-31.97,0.011
			c-0.616,0.003-1.482,0.49-1.803,1.014c-5.205,8.51-10.311,17.081-15.521,25.589c-0.825,1.347-0.693,2.328,0.083,3.617
			c5.173,8.591,10.282,17.222,15.374,25.861c0.517,0.876,1.088,1.207,2.113,1.196C144.433,87.766,149.678,87.794,154.922,87.797z
			 M48.555,267.351c0-0.002,0-0.003,0-0.005c4.968,0,9.936-0.026,14.903,0.021c1.068,0.01,1.688-0.293,2.251-1.266
			c5.164-8.924,10.375-17.82,15.628-26.692c0.537-0.908,0.511-1.567,0.008-2.422c-5.679-9.656-11.323-19.332-17.033-28.969
			c-0.29-0.489-1.1-0.946-1.671-0.95c-9.265-0.06-18.531-0.06-27.796-0.003c-0.578,0.003-1.407,0.438-1.692,0.923
			c-5.71,9.712-11.347,19.466-17.035,29.19c-0.482,0.825-0.473,1.411,0.015,2.243c5.227,8.894,10.419,17.809,15.575,26.744
			c0.519,0.898,1.095,1.217,2.11,1.207C38.731,267.326,43.644,267.351,48.555,267.351z M370.296,146.758
			c-5.244,0-10.488,0.022-15.731-0.021c-0.96-0.008-1.488,0.299-1.975,1.14c-4.966,8.582-9.956,17.148-15.007,25.68
			c-0.606,1.025-0.519,1.747,0.042,2.694c5.504,9.3,10.961,18.628,16.489,27.913c0.292,0.491,1.1,0.956,1.67,0.959
			c9.818,0.053,19.637,0.017,29.454,0.044c1.138,0.003,1.783-0.379,2.368-1.39c5.191-8.976,10.434-17.921,15.705-26.85
			c0.521-0.884,0.525-1.521,0.006-2.405c-5.201-8.84-10.367-17.702-15.507-26.578c-0.511-0.883-1.092-1.22-2.118-1.21
			C380.561,146.784,375.428,146.756,370.296,146.758z M49.668,146.755c-5.135,0-10.271,0.037-15.405-0.029
			c-1.109-0.014-1.673,0.353-2.219,1.297c-4.941,8.546-9.895,17.087-14.962,25.558c-0.928,1.551-0.923,2.638,0.004,4.181
			c5.225,8.702,10.344,17.468,15.443,26.244c0.562,0.967,1.172,1.252,2.25,1.248c9.601-0.043,19.202-0.047,28.802,0.007
			c1.163,0.007,1.799-0.35,2.375-1.343c5.394-9.304,10.816-18.592,16.291-27.849c0.594-1.004,0.585-1.687-0.005-2.675
			c-5.028-8.423-10.016-16.87-14.955-25.346c-0.593-1.019-1.256-1.328-2.381-1.316C59.828,146.787,54.748,146.756,49.668,146.755z
			 M208.62,252.627c19.857,0.082,37-16.784,37.089-36.488c0.091-20.224-16.621-37.131-36.812-37.241
			c-20.011-0.109-37.004,16.573-37.079,36.399C171.74,235.771,188.275,252.543,208.62,252.627z M193.942,300.919
			c-0.243,0.118-0.41,0.16-0.523,0.261c-3.644,3.257-7.668,5.932-12.09,8.023c-0.456,0.215-0.876,0.694-1.115,1.154
			c-2.469,4.752-4.874,9.538-7.358,14.283c-0.521,0.996-0.521,1.768,0.072,2.742c5.563,9.153,11.069,18.341,16.644,27.487
			c0.278,0.456,1.031,0.881,1.563,0.884c12.225,0.052,24.45,0.06,36.674,0.002c0.617-0.003,1.483-0.504,1.808-1.035
			c5.681-9.275,11.308-18.584,16.89-27.92c0.289-0.483,0.302-1.388,0.046-1.897c-1.805-3.587-3.884-7.046-5.539-10.698
			c-1.441-3.181-3.282-5.734-6.722-6.872c-0.568-0.188-1.082-0.581-1.579-0.938c-2.562-1.842-5.109-3.704-7.696-5.583
			c-0.074,0.117-0.191,0.238-0.237,0.383c-3.244,10.179-8.446,19.375-14.188,28.3c-0.918,1.428-1.196,1.463-2.066,0.092
			c-4.722-7.44-9.265-14.98-12.552-23.197C195.256,304.599,194.626,302.77,193.942,300.919z M225.21,117.604
			c1.604-1.006,3.554-1.57,4.386-2.857c5.476-8.478,10.693-17.123,16.046-25.681c0.631-1.009,0.552-1.743-0.035-2.713
			c-5.114-8.446-10.195-16.913-15.244-25.398c-0.522-0.877-1.1-1.208-2.119-1.206c-12.055,0.022-24.11,0.01-36.165-0.03
			c-1.015-0.003-1.611,0.315-2.137,1.204c-5.025,8.498-10.076,16.981-15.181,25.432c-0.664,1.1-0.672,1.879,0.01,2.985
			c5.064,8.213,10.124,16.432,15.008,24.752c1.003,1.709,2.285,2.5,3.992,3.075c0.137-0.316,0.251-0.512,0.309-0.723
			c3.072-11.123,8.517-21.139,14.42-30.94c0.928-1.541,1.104-1.521,2.025,0.077c1.225,2.124,2.483,4.229,3.67,6.374
			c3.972,7.171,7.647,14.477,10.009,22.369C224.505,115.326,224.818,116.325,225.21,117.604z M304.552,174.718
			c0.362,0.051,0.632,0.122,0.902,0.122c9.601,0.009,19.203,0.029,28.803-0.034c0.543-0.003,1.29-0.567,1.591-1.077
			c5.203-8.836,10.337-17.712,15.532-26.554c0.571-0.971,0.647-1.661,0.012-2.683c-4.999-8.049-9.935-16.137-14.843-24.242
			c-0.599-0.988-1.276-1.327-2.414-1.321c-9.713,0.044-19.431,0.214-29.136-0.066c-3.574-0.103-5.872,0.75-7.548,4.007
			c-1.41,2.737-3.407,5.172-5.086,7.656C302.781,143.595,307.527,158.001,304.552,174.718z M127.291,130.614
			c-2.253-3.449-4.52-6.821-6.669-10.266c-0.64-1.025-1.319-1.419-2.535-1.415c-10.823,0.046-21.646,0.044-32.468-0.002
			c-1.139-0.005-1.781,0.318-2.383,1.311c-4.966,8.193-9.984,16.356-15.027,24.502c-0.471,0.761-0.543,1.282-0.065,2.084
			c5.329,8.949,10.623,17.919,15.891,26.904c0.482,0.823,1.011,1.159,1.979,1.155c9.149-0.039,18.299-0.027,27.448-0.041
			c0.444,0,0.888-0.102,1.337-0.158C112.386,160.52,116.018,144.564,127.291,130.614z M215.087,253.705
			c0.063,0.208,0.116,0.412,0.184,0.611c4.961,14.479,21.747,23.096,37.229,19.113c13.802-3.55,23.477-14.901,25.241-29.616
			c1.716-14.311-7.298-27.97-21.126-31.894c-3.142-0.892-6.361-1.466-9.692-1.186C249.574,229.515,236.399,249.586,215.087,253.705z
			 M170.636,210.611c-2.982,0.449-5.771,0.615-8.42,1.313c-12.453,3.282-21.452,15.12-21.451,28.449
			c0,8.742,3.229,16.388,8.87,23.053c12.495,14.764,36.847,14.562,49.024-0.462c2.194-2.708,4.063-5.637,5.181-9.151
			c-10.423-1.607-18.881-6.378-25.282-14.583C172.119,230.977,169.433,221.607,170.636,210.611z M306.963,239.053
			c0.763,2.648,1.63,5.117,2.16,7.657c0.533,2.558,0.904,5.177,1.046,7.785c0.637,11.687-2.374,22.529-8.695,32.248
			c-2.193,3.373-2.268,5.723,0.311,8.42c0.428,0.448,1.132,0.894,1.71,0.896c10.718,0.052,21.436,0.024,32.152,0.055
			c0.963,0.002,1.458-0.307,1.946-1.155c4.856-8.454,9.745-16.891,14.706-25.284c0.665-1.127,0.654-1.91,0.011-3.005
			c-5.196-8.841-10.34-17.713-15.477-26.589c-0.464-0.802-0.966-1.176-1.965-1.17c-8.764,0.053-17.527,0.037-26.291,0.048
			C308.041,238.96,307.504,239.021,306.963,239.053z M286.692,225.695c0.197,0.282,0.432,0.642,0.689,0.984
			c5.691,7.572,7.763,16.246,6.56,25.427c-2.134,16.289-10.242,28.899-24.715,37.066c-12.348,6.968-28.848,6.566-40.229-3.285
			c-0.656-0.568-1.344-1.101-1.789-1.464c-0.475,4.352-0.89,8.757-1.482,13.139c-0.148,1.094,0.089,1.736,0.858,2.425
			c3.388,3.036,7.058,5.67,11.212,7.526c15.955,7.128,31.196,5.023,45.566-4.182c13.815-8.85,21.802-21.794,24.693-37.821
			c2.592-14.368-1.191-27.178-10.275-38.496c-0.327-0.408-0.82-0.933-1.261-0.958C293.26,225.874,289.993,225.803,286.692,225.695z
			 M131.951,225.993c-3.043,0-6.208-0.03-9.371,0.033c-0.464,0.009-1.058,0.349-1.359,0.723c-7.628,9.462-11.8,20.161-11.25,32.439
			c0.45,10.041,3.531,19.333,9.085,27.649c11.416,17.094,27.22,26.064,48.099,24.543c9.757-0.71,18.266-4.794,25.412-11.533
			c0.442-0.417,0.668-1.336,0.596-1.977c-0.243-2.153-0.82-4.275-0.98-6.43c-0.179-2.396-0.041-4.817-0.041-7.387
			c-1.624,1.313-3.007,2.616-4.563,3.659c-11.533,7.733-23.739,8.156-36.084,2.515c-10.216-4.668-17.376-12.684-22.252-22.73
			c-4.176-8.604-5.877-17.625-4.019-27.119C126.287,234.938,128.625,230.043,131.951,225.993z M111.928,239.154
			c-0.167-0.083-0.262-0.173-0.357-0.173c-9.041-0.013-18.083-0.045-27.123,0.027c-0.642,0.005-1.53,0.627-1.878,1.215
			c-5.171,8.725-10.244,17.508-15.415,26.233c-0.777,1.312-0.774,2.292-0.005,3.608c4.718,8.083,9.393,16.193,13.959,24.363
			c0.75,1.341,1.536,1.711,2.979,1.702c9.376-0.062,18.759-0.221,28.127,0.066c3.515,0.108,5.799-0.728,7.113-4.045
			c0.336-0.847,0.476-1.367-0.038-2.232c-2.074-3.495-4.31-6.94-5.938-10.645c-5.095-11.597-6.611-23.563-2.84-35.899
			C110.946,241.954,111.456,240.556,111.928,239.154z M211.095,177.346c18.947,2.314,30.429,13.12,35.559,31.206
			c11.909-0.876,24.088-12.732,23.831-28.847c-0.266-16.693-13.55-30.016-30.899-29.535
			C222.048,150.656,211.366,165.475,211.095,177.346z M226.394,138.931c0.398-0.262,0.895-0.591,1.394-0.917
			c7.895-5.163,16.497-7.286,25.816-5.527c13.635,2.573,23.648,10.318,30.324,22.319c5.317,9.558,6.333,19.622,2.289,29.941
			c-0.916,2.338-2.289,4.497-3.212,6.276c4.039-0.339,8.395-0.687,12.745-1.104c0.393-0.038,0.862-0.444,1.096-0.808
			c4.578-7.109,7.281-14.904,7.13-23.354c-0.345-19.306-8.819-34.453-25.078-44.669c-16.472-10.352-33.875-11.593-51.666-2.991
			c-1.279,0.618-1.638,1.26-1.381,2.669c0.458,2.514,0.856,5.073,0.903,7.62C226.818,131.879,226.532,135.379,226.394,138.931z
			 M207.894,177.275c-0.179-11.34-11.134-26.815-29.612-27.086c-16.327-0.241-29.954,12.217-30.438,29.577
			c-0.437,15.664,11.386,27.498,22.955,28.77C176.035,189.716,188.189,179.166,207.894,177.275z M192.725,138.569
			c-0.912-5.718-1.143-11.765,0.347-17.752c0.347-1.394,0.075-2.078-1.224-2.722c-16.55-8.198-32.831-6.959-48.744,1.625
			c-10.837,5.846-18.547,14.711-23.267,26.077c-6.007,14.462-6.109,28.728,1.768,42.65c0.611,1.08,1.225,1.661,2.59,1.499
			c1.252-0.148,2.565-0.005,3.825,0.181c2.486,0.366,4.955,0.851,7.55,1.308c-0.169-0.323-0.253-0.53-0.376-0.71
			c-5.153-7.598-6.537-15.949-4.348-24.744c3.415-13.714,11.613-23.774,24.254-30.089c8.187-4.091,16.842-5.183,25.642-2.511
			C184.89,134.641,188.759,136.82,192.725,138.569z M335.492,207.595c-11.472,8.147-22.826,15.552-36.436,18.047
			c2.285,3.821,4.511,7.594,6.817,11.317c0.214,0.346,0.938,0.526,1.426,0.528c9.261,0.031,18.521,0.043,27.782-0.021
			c0.607-0.004,1.464-0.512,1.777-1.04c5.574-9.384,11.073-18.813,16.622-28.211c0.471-0.797,0.589-1.358,0.068-2.234
			c-5.654-9.534-11.263-19.095-16.837-28.675c-0.503-0.863-1.076-1.101-2.002-1.083c-2.677,0.052-5.355,0.028-8.033,0.028
			c-6.918-0.001-13.835,0.026-20.752-0.038c-1.303-0.012-1.981,0.27-2.346,1.644c-0.511,1.929-1.223,3.824-2.042,5.647
			c-1.012,2.254-2.22,4.42-3.416,6.765c6.991,0.924,13.356,3.386,19.465,6.554C323.652,199.968,329.453,203.553,335.492,207.595z
			 M119.747,225.638c-13.452-2.599-24.803-9.827-36.076-18.025c11.842-7.629,23.207-15.189,36.727-17.354
			c-1.635-4.239-3.317-8.408-4.822-12.641c-0.371-1.043-0.761-1.387-1.832-1.383c-9.487,0.036-18.975,0.042-28.461-0.004
			c-1.163-0.005-1.772,0.391-2.35,1.387c-5.729,9.878-11.514,19.724-17.302,29.611c0,0.002,0.005,0.062,0.033,0.108
			c5.736,9.811,11.463,19.627,17.244,29.412c0.237,0.402,0.965,0.727,1.467,0.729c9.096,0.042,18.193,0.039,27.29,0.002
			c0.469-0.002,1.152-0.253,1.372-0.611C115.299,233.179,117.488,229.443,119.747,225.638z M145.892,221.163
			c-3.706,1.251-7.223,2.419-10.719,3.646c-0.432,0.152-0.799,0.581-1.12,0.947c-5.402,6.185-8.299,13.476-8.021,21.599
			c0.628,18.365,9.038,32.435,25.307,40.98c12.357,6.492,24.843,5.771,36.416-2.64c2.803-2.037,5.153-4.307,5.729-8.174
			c0.499-3.352,1.928-6.564,2.946-9.838c-15.152,12.68-34.766,9.248-45.171-0.458c-6.249-5.829-10.102-12.979-11.466-21.404
			C138.335,236.821,140.411,228.615,145.892,221.163z M222.385,267.642c0.079,0.32,0.12,0.525,0.179,0.725
			c1.196,4.107,2.382,8.218,3.607,12.316c0.136,0.457,0.421,0.913,0.751,1.26c3.546,3.735,7.65,6.708,12.525,8.406
			c12.266,4.273,23.59,1.893,33.857-5.572c10.747-7.814,17.066-18.523,19.013-31.661c1.466-9.897-0.774-18.94-7.116-26.824
			c-0.446-0.554-0.943-1.231-1.559-1.454c-3.485-1.254-7.014-2.387-10.5-3.551c12.148,17.283,4.468,36.239-5.113,45.443
			C258.289,276.088,238.273,280.909,222.385,267.642z M221.305,155.183c12.668-9.589,28.158-7.948,37.352-0.736
			c14.977,11.749,16.842,26.485,8.504,42.988c3.96-1.552,7.997-3.119,12.015-4.732c0.433-0.174,0.819-0.565,1.124-0.939
			c6.15-7.544,8.174-16.238,6.142-25.595c-3.036-13.982-11.517-23.856-24.547-29.546c-12.251-5.349-24.027-4.144-34.921,3.85
			c-0.601,0.441-1.291,1.021-1.512,1.679C224.014,146.464,222.683,150.816,221.305,155.183z M291.367,129.396
			c2.521-3.703,4.908-7.32,7.427-10.842c0.738-1.031,0.734-1.762,0.114-2.815c-5.001-8.498-9.965-17.017-14.887-25.561
			c-0.51-0.886-1.113-1.059-2.017-1.057c-11.155,0.018-22.311,0.021-33.466-0.013c-0.945-0.003-1.488,0.273-1.993,1.099
			c-3.867,6.325-7.795,12.612-11.691,18.919c-1.001,1.621-1.958,3.269-3.183,5.318c10.877-3.894,21.456-4.404,32.169-1.604
			C274.578,115.646,283.644,121.262,291.367,129.396z M188.759,114.988c-5.26-8.659-10.252-16.898-15.292-25.107
			c-0.224-0.366-0.88-0.659-1.336-0.661c-11.21-0.033-22.42-0.038-33.631,0.027c-0.613,0.004-1.45,0.515-1.793,1.043
			c-1.365,2.099-2.582,4.293-3.84,6.46c-3.833,6.6-7.672,13.196-11.467,19.817c-0.295,0.516-0.586,1.414-0.345,1.8
			c2.323,3.719,4.76,7.366,7.249,11.162c7.754-8.334,17.009-13.86,27.837-16.659C167.029,110.057,177.766,110.533,188.759,114.988z
			 M151.576,197.585c-4.211-6.641-5.994-13.611-4.964-21.209c1.035-7.636,4.333-14.125,9.973-19.371
			c5.662-5.266,12.444-7.956,20.131-8.277c7.658-0.32,14.569,1.933,20.814,6.677c-1.323-4.266-2.538-8.305-3.852-12.312
			c-0.258-0.787-0.757-1.628-1.392-2.137c-8.008-6.42-17.218-8.819-27.164-6.714c-16.017,3.389-26.46,13.474-31.82,28.731
			c-3.575,10.177-2.405,19.882,4.416,28.574c0.363,0.463,0.852,0.929,1.383,1.143C143.125,194.31,147.173,195.867,151.576,197.585z
			 M210.245,171.271c1.807-4.889,4.157-9.368,7.795-13.102c0.262-0.268,0.427-0.654,0.568-1.012c1.24-3.159,2.609-6.277,3.667-9.497
			c2.635-8.021,4.07-16.166,2.56-24.667c-1.618-9.107-5.134-17.484-9.359-25.614c-1.55-2.982-3.223-5.901-4.84-8.848
			c-0.13,0.04-0.26,0.081-0.39,0.121C210.245,116.192,210.245,143.731,210.245,171.271z M208.602,88.114
			c-1.003,1.719-1.82,3.084-2.604,4.467c-4.853,8.56-8.909,17.451-11.267,27.054c-2.192,8.933-1.369,17.72,1.33,26.386
			c1.782,5.723,3.606,11.362,7.716,16.095c2.214,2.549,3.399,5.992,4.824,8.619C208.602,143.694,208.602,116.11,208.602,88.114z
			 M298.11,292.217c-15.512,17.407-33.976,25.239-57.393,18.376c2.561,4.907,5.005,9.654,7.546,14.349
			c0.231,0.427,1.083,0.732,1.647,0.734c11.048,0.03,22.097-0.007,33.145,0.017c1.082,0.002,1.699-0.341,2.248-1.284
			c4.404-7.561,8.867-15.087,13.299-22.632c0.897-1.528,2.441-3.106,2.406-4.632c-0.035-1.54-1.661-3.044-2.596-4.561
			C298.33,292.448,298.208,292.333,298.11,292.217z M120.824,292.401c-0.894,1.421-1.849,2.845-2.68,4.337
			c-0.179,0.321-0.044,0.968,0.17,1.334c5.208,8.898,10.436,17.785,15.709,26.644c0.277,0.466,0.998,0.947,1.514,0.95
			c11.325,0.061,22.651,0.068,33.977,0.014c0.553-0.002,1.347-0.532,1.617-1.036c2.313-4.327,4.532-8.703,6.771-13.069
			c0.157-0.306,0.249-0.646,0.358-0.938C155.032,317.303,136.408,309.946,120.824,292.401z M255.26,208.054
			c25.339-0.369,50.676-0.737,76.111-1.107c-0.139-0.316-0.153-0.458-0.226-0.5c-5.152-2.996-10.161-6.293-15.514-8.878
			c-4.48-2.164-9.289-3.758-14.088-5.129c-5.799-1.657-11.708-1.357-17.502,0.396c-6.889,2.084-13.746,4.287-19.748,8.412
			C261.236,203.347,258.357,205.707,255.26,208.054z M87.878,206.608c0.04,0.108,0.08,0.217,0.121,0.326
			c24.974,0.367,49.948,0.734,74.822,1.1c-3.369-2.604-6.677-5.188-10.022-7.723c-0.704-0.534-1.506-0.977-2.323-1.313
			c-4.374-1.799-8.717-3.687-13.164-5.289c-8.33-3.001-16.659-2.874-25.038,0.116c-6.552,2.337-12.651,5.501-18.54,9.136
			C91.776,204.167,89.83,205.392,87.878,206.608z M331.289,208.399c-26.223,0.373-52.446,0.746-78.65,1.119
			c0.076,0.031,0.169,0.09,0.271,0.106c6.558,1.047,12.359,3.64,17.148,8.334c0.307,0.3,0.738,0.5,1.144,0.668
			c2.728,1.125,5.426,2.337,8.206,3.317c5.133,1.81,10.422,3.008,15.899,2.562C309.144,223.377,320.351,216.195,331.289,208.399z
			 M165.274,209.499c-25.058-0.361-51.302-0.739-77.546-1.117c6.693,5.085,13.669,9.439,21.344,12.591
			c8.761,3.597,17.709,4.912,26.934,2.032c5.569-1.739,11.196-3.379,15.644-7.54c1.197-1.12,2.703-2.043,4.228-2.649
			C159.311,211.451,162.844,210.342,165.274,209.499z M208.67,254.249c-2.956-0.427-2.865-0.379-4.176,2.108
			c-1.218,2.31-2.673,4.495-3.998,6.75c-0.671,1.141-1.394,2.27-1.901,3.484c-0.815,1.95-1.477,3.964-2.194,5.954
			c-3.729,10.356-3.885,20.656,0.038,31.056c2.811,7.451,6.628,14.341,10.741,21.105c0.429,0.705,0.879,1.397,1.49,2.366
			C208.67,302.562,208.67,278.464,208.67,254.249z M210.312,254.094c0,24.254,0,48.417,0,73.037
			c0.464-0.688,0.694-0.976,0.867-1.294c3.008-5.523,6.272-10.926,8.951-16.604c4.199-8.905,6.778-18.227,4.586-28.19
			c-1.541-7.007-3.178-14.002-7.643-19.935c-1.157-1.537-2.104-3.331-2.711-5.152c-0.621-1.866-1.585-2.46-3.384-1.991
			C210.819,254.006,210.655,254.028,210.312,254.094z"/>
		<path fill-rule="evenodd" clip-rule="evenodd" fill="#FFFFFF" d="M265.93,327.271c5.581,0,11.161,0.032,16.741-0.028
			c1.096-0.012,1.696,0.333,2.248,1.273c5.305,9.037,10.672,18.038,15.961,27.083c0.278,0.476,0.262,1.407-0.022,1.888
			c-5.3,8.976-10.671,17.91-15.996,26.872c-0.507,0.854-1.057,1.241-2.1,1.238c-11.161-0.031-22.322-0.016-33.482,0.017
			c-0.931,0.002-1.503-0.251-2.011-1.101c-5.326-8.899-10.676-17.785-16.096-26.626c-0.698-1.14-0.613-1.946,0.03-3.003
			c5.397-8.855,10.771-17.726,16.101-26.622c0.529-0.883,1.161-1.018,2.051-1.014c5.525,0.023,11.049,0.012,16.574,0.012
			C265.93,327.265,265.93,327.268,265.93,327.271z"/>
		<path fill-rule="evenodd" clip-rule="evenodd" fill="#FFFFFF" d="M152.969,385.612c-5.524,0-11.048,0.034-16.571-0.043
			c-0.685-0.01-1.669-0.429-1.996-0.971c-5.315-8.835-10.526-17.733-15.824-26.58c-0.658-1.098-0.707-1.889-0.037-3.011
			c5.311-8.903,10.537-17.856,15.848-26.758c0.292-0.49,1.112-0.942,1.689-0.944c11.327-0.05,22.653-0.044,33.979,0.016
			c0.579,0.003,1.396,0.452,1.696,0.942c5.503,8.988,10.958,18.005,16.361,27.054c0.282,0.473,0.245,1.421-0.046,1.908
			c-5.425,9.097-10.925,18.15-16.365,27.239c-0.54,0.901-1.175,1.154-2.163,1.147c-5.523-0.037-11.048-0.018-16.571-0.018
			C152.969,385.599,152.969,385.606,152.969,385.612z"/>
		<path fill-rule="evenodd" clip-rule="evenodd" fill="#FFFFFF" d="M99.116,355.821c-5.245,0-10.49-0.027-15.734,0.023
			c-1.029,0.01-1.58-0.337-2.095-1.223c-5.098-8.763-10.216-17.514-15.408-26.221c-0.78-1.308-0.822-2.257-0.025-3.589
			c5.175-8.655,10.272-17.356,15.337-26.075c0.554-0.953,1.128-1.284,2.22-1.28c10.434,0.037,20.868,0.02,31.301-0.005
			c0.947-0.002,1.634,0.117,2.192,1.075c5.243,9.006,10.528,17.989,15.857,26.944c0.631,1.06,0.572,1.777-0.058,2.829
			c-5.154,8.603-10.247,17.242-15.3,25.904c-0.659,1.13-1.323,1.667-2.722,1.64c-5.187-0.1-10.377-0.04-15.566-0.04
			C99.116,355.808,99.116,355.814,99.116,355.821z"/>
		<path fill-rule="evenodd" clip-rule="evenodd" fill="#FFFFFF" d="M319.862,355.791c-5.243-0.001-10.486-0.028-15.73,0.022
			c-1.018,0.01-1.58-0.303-2.105-1.194c-5.207-8.828-10.455-17.631-15.728-26.419c-0.542-0.904-0.661-1.578-0.076-2.561
			c5.353-9.002,10.655-18.034,15.929-27.084c0.496-0.852,1.049-1.105,1.991-1.102c10.542,0.028,21.085,0.025,31.627-0.004
			c0.941-0.003,1.516,0.271,2.005,1.108c5.177,8.846,10.371,17.681,15.618,26.485c0.688,1.153,0.672,1.993-0.024,3.157
			c-5.235,8.742-10.404,17.523-15.551,26.318c-0.543,0.928-1.12,1.315-2.226,1.302C330.35,355.757,325.105,355.791,319.862,355.791z
			"/>
		<path fill-rule="evenodd" clip-rule="evenodd" fill="#FFFFFF" d="M102.081,59.686c5.302,0.002,10.604,0.036,15.905-0.025
			c1.098-0.013,1.713,0.343,2.262,1.274c4.986,8.445,9.989,16.881,15.06,25.275c0.782,1.294,0.803,2.231,0.014,3.563
			c-5.2,8.773-10.308,17.601-15.403,26.436c-0.565,0.979-1.176,1.396-2.349,1.391c-10.492-0.048-20.983-0.042-31.476-0.005
			c-0.983,0.003-1.507-0.362-1.979-1.164c-5.248-8.938-10.533-17.854-15.76-26.804c-0.271-0.463-0.351-1.331-0.099-1.764
			c5.333-9.145,10.711-18.262,16.149-27.344c0.278-0.465,1.163-0.793,1.77-0.8C91.477,59.657,96.778,59.684,102.081,59.686z"/>
		<path fill-rule="evenodd" clip-rule="evenodd" fill="#FFFFFF" d="M370.759,267.35c-5.02,0-10.04-0.034-15.059,0.027
			c-1.065,0.013-1.572-0.411-2.07-1.272c-5.158-8.918-10.372-17.804-15.505-26.736c-0.305-0.53-0.319-1.537-0.018-2.061
			c5.688-9.834,11.435-19.634,17.222-29.41c0.263-0.443,1.022-0.835,1.552-0.838c9.37-0.052,18.741-0.058,28.111-0.002
			c0.57,0.003,1.381,0.457,1.67,0.945c5.771,9.731,11.495,19.491,17.163,29.283c0.305,0.525,0.292,1.538-0.016,2.069
			c-5.217,9.021-10.487,18.012-15.816,26.967c-0.31,0.521-1.209,0.966-1.841,0.975c-5.13,0.078-10.262,0.044-15.394,0.044
			C370.759,267.343,370.759,267.346,370.759,267.35z"/>
		<path fill-rule="evenodd" clip-rule="evenodd" fill="#FFFFFF" d="M318.248,59.66c5.245,0,10.49,0.039,15.734-0.03
			c1.121-0.015,1.678,0.393,2.218,1.311c5.171,8.785,10.368,17.555,15.614,26.296c0.587,0.978,0.665,1.647,0.052,2.672
			c-5.179,8.653-10.309,17.335-15.382,26.05c-0.708,1.217-1.472,1.645-2.885,1.636c-10.21-0.067-20.422-0.041-30.632-0.024
			c-0.887,0.001-1.519-0.126-2.038-1.026c-5.26-9.123-10.564-18.22-15.898-27.3c-0.545-0.928-0.557-1.591,0.009-2.538
			c5.15-8.603,10.253-17.234,15.322-25.886c0.536-0.915,1.157-1.164,2.151-1.156c5.245,0.041,10.49,0.019,15.734,0.019
			C318.248,59.676,318.248,59.668,318.248,59.66z"/>
		<path fill-rule="evenodd" clip-rule="evenodd" fill="#FFFFFF" d="M265.406,87.772c-5.3,0-10.6,0.037-15.898-0.046
			c-0.678-0.011-1.637-0.469-1.975-1.021c-5.348-8.751-10.601-17.562-15.926-26.328c-0.573-0.943-0.571-1.569,0.024-2.526
			c5.387-8.66,10.719-17.354,16.019-26.069c0.598-0.982,1.25-1.324,2.395-1.319c10.432,0.045,20.863,0.024,31.295,0.02
			c0.829,0,1.532-0.052,2.096,0.901c5.166,8.727,10.387,17.422,15.642,26.096c0.636,1.049,0.587,1.798-0.039,2.843
			c-5.097,8.505-10.152,17.036-15.145,25.604c-0.79,1.355-1.635,1.921-3.262,1.881c-5.074-0.123-10.152-0.045-15.228-0.045
			C265.406,87.767,265.406,87.77,265.406,87.772z"/>
		<path fill-rule="evenodd" clip-rule="evenodd" fill="#FFFFFF" d="M154.922,87.796c-5.244-0.001-10.489-0.03-15.733,0.023
			c-1.025,0.011-1.596-0.32-2.113-1.196c-5.092-8.64-10.201-17.27-15.374-25.861c-0.776-1.289-0.908-2.27-0.083-3.617
			c5.209-8.508,10.316-17.079,15.521-25.589c0.321-0.524,1.187-1.011,1.803-1.014c10.656-0.065,21.313-0.068,31.97-0.011
			c0.624,0.003,1.508,0.471,1.828,0.993c5.359,8.747,10.628,17.548,15.976,26.301c0.592,0.969,0.514,1.615-0.049,2.545
			c-5.282,8.729-10.523,17.482-15.729,26.257c-0.528,0.892-1.102,1.201-2.115,1.191C165.523,87.772,160.223,87.797,154.922,87.796z"
			/>
		<path fill-rule="evenodd" clip-rule="evenodd" fill="#FFFFFF" d="M48.555,267.351c-4.912,0-9.824-0.025-14.735,0.021
			c-1.015,0.01-1.592-0.309-2.11-1.207c-5.156-8.936-10.348-17.851-15.575-26.744c-0.488-0.832-0.498-1.418-0.015-2.243
			c5.688-9.724,11.325-19.478,17.035-29.19c0.285-0.485,1.114-0.92,1.692-0.923c9.265-0.057,18.531-0.057,27.796,0.003
			c0.571,0.003,1.381,0.461,1.671,0.95c5.71,9.637,11.354,19.313,17.033,28.969c0.503,0.855,0.529,1.515-0.008,2.422
			c-5.253,8.872-10.464,17.768-15.628,26.692c-0.563,0.973-1.183,1.276-2.251,1.266c-4.967-0.048-9.935-0.021-14.903-0.021
			C48.555,267.348,48.555,267.349,48.555,267.351z"/>
		<path fill-rule="evenodd" clip-rule="evenodd" fill="#FFFFFF" d="M370.296,146.757c5.132-0.001,10.265,0.027,15.396-0.024
			c1.026-0.01,1.607,0.328,2.118,1.21c5.14,8.876,10.306,17.738,15.507,26.578c0.52,0.884,0.516,1.521-0.006,2.405
			c-5.271,8.929-10.514,17.875-15.705,26.85c-0.585,1.01-1.23,1.393-2.368,1.39c-9.817-0.027-19.636,0.009-29.454-0.044
			c-0.57-0.003-1.378-0.468-1.67-0.959c-5.528-9.285-10.985-18.613-16.489-27.913c-0.561-0.947-0.648-1.668-0.042-2.694
			c5.051-8.531,10.041-17.098,15.007-25.68c0.486-0.841,1.015-1.148,1.975-1.14C359.808,146.781,365.052,146.758,370.296,146.757z"
			/>
		<path fill-rule="evenodd" clip-rule="evenodd" fill="#FFFFFF" d="M49.668,146.756c5.08,0,10.16,0.031,15.238-0.023
			c1.125-0.012,1.788,0.297,2.381,1.316c4.939,8.476,9.927,16.923,14.955,25.346c0.59,0.988,0.599,1.671,0.005,2.675
			c-5.475,9.257-10.897,18.544-16.291,27.849c-0.576,0.993-1.212,1.35-2.375,1.343c-9.601-0.054-19.202-0.05-28.802-0.007
			c-1.078,0.004-1.689-0.28-2.25-1.248c-5.1-8.776-10.218-17.542-15.443-26.244c-0.927-1.543-0.932-2.63-0.004-4.181
			c5.068-8.471,10.021-17.012,14.962-25.558c0.546-0.944,1.11-1.312,2.219-1.297C39.397,146.792,44.533,146.755,49.668,146.756z"/>
		<path fill-rule="evenodd" clip-rule="evenodd" fill="#FFFFFF" d="M208.62,252.627c-20.345-0.083-36.879-16.855-36.802-37.33
			c0.075-19.827,17.068-36.509,37.079-36.399c20.191,0.11,36.903,17.017,36.812,37.241
			C245.62,235.843,228.477,252.709,208.62,252.627z M229.497,216.015c0.035-11.336-9.384-20.83-20.679-20.841
			c-11.384-0.011-20.849,9.221-20.909,20.396c-0.061,11.442,9.387,21.106,20.657,21.129
			C219.836,236.721,229.462,227.209,229.497,216.015z"/>
		<path fill-rule="evenodd" clip-rule="evenodd" fill="#FFFFFF" d="M193.942,300.919c0.684,1.85,1.314,3.679,2.031,5.473
			c3.287,8.216,7.831,15.756,12.552,23.197c0.871,1.371,1.148,1.335,2.066-0.092c5.743-8.925,10.945-18.122,14.188-28.3
			c0.046-0.145,0.163-0.266,0.237-0.383c2.586,1.879,5.134,3.74,7.696,5.583c0.497,0.357,1.01,0.749,1.579,0.938
			c3.44,1.138,5.281,3.691,6.722,6.872c1.655,3.652,3.734,7.111,5.539,10.698c0.256,0.509,0.243,1.414-0.046,1.897
			c-5.582,9.336-11.209,18.645-16.89,27.92c-0.325,0.53-1.191,1.032-1.808,1.035c-12.224,0.058-24.449,0.05-36.674-0.002
			c-0.533-0.002-1.286-0.428-1.563-0.884c-5.575-9.146-11.081-18.334-16.644-27.487c-0.592-0.975-0.593-1.747-0.072-2.742
			c2.484-4.745,4.889-9.531,7.358-14.283c0.239-0.459,0.659-0.938,1.115-1.154c4.422-2.091,8.447-4.766,12.09-8.023
			C193.532,301.079,193.699,301.038,193.942,300.919z"/>
		<path fill-rule="evenodd" clip-rule="evenodd" fill="#FFFFFF" d="M225.21,117.604c-0.392-1.279-0.705-2.278-1.005-3.28
			c-2.362-7.893-6.037-15.198-10.009-22.369c-1.188-2.144-2.446-4.25-3.67-6.374c-0.921-1.598-1.097-1.618-2.025-0.077
			c-5.903,9.801-11.348,19.817-14.42,30.94c-0.058,0.211-0.172,0.407-0.309,0.723c-1.707-0.575-2.989-1.366-3.992-3.075
			c-4.885-8.32-9.944-16.539-15.008-24.752c-0.682-1.106-0.674-1.885-0.01-2.985c5.104-8.451,10.155-16.934,15.181-25.432
			c0.525-0.888,1.122-1.207,2.137-1.204c12.055,0.04,24.11,0.052,36.165,0.03c1.02-0.002,1.597,0.329,2.119,1.206
			c5.049,8.485,10.13,16.952,15.244,25.398c0.587,0.97,0.667,1.704,0.035,2.713c-5.353,8.558-10.571,17.203-16.046,25.681
			C228.764,116.034,226.814,116.598,225.21,117.604z"/>
		<path fill-rule="evenodd" clip-rule="evenodd" fill="#FFFFFF" d="M304.552,174.718c2.975-16.717-1.771-31.124-12.187-44.192
			c1.68-2.484,3.677-4.919,5.086-7.656c1.676-3.257,3.974-4.11,7.548-4.007c9.705,0.28,19.423,0.111,29.136,0.066
			c1.138-0.005,1.815,0.333,2.414,1.321c4.908,8.105,9.844,16.193,14.843,24.242c0.636,1.022,0.56,1.711-0.012,2.683
			c-5.195,8.841-10.329,17.718-15.532,26.554c-0.301,0.51-1.048,1.074-1.591,1.077c-9.601,0.063-19.202,0.042-28.803,0.034
			C305.185,174.84,304.914,174.769,304.552,174.718z"/>
		<path fill-rule="evenodd" clip-rule="evenodd" fill="#FFFFFF" d="M127.291,130.614c-11.273,13.95-14.905,29.906-12.493,44.076
			c-0.449,0.056-0.893,0.157-1.337,0.158c-9.149,0.014-18.298,0.002-27.448,0.041c-0.968,0.004-1.496-0.332-1.979-1.155
			c-5.268-8.985-10.562-17.955-15.891-26.904c-0.478-0.802-0.406-1.324,0.065-2.084c5.043-8.146,10.061-16.309,15.027-24.502
			c0.602-0.993,1.244-1.316,2.383-1.311c10.823,0.046,21.646,0.048,32.468,0.002c1.216-0.005,1.895,0.389,2.535,1.415
			C122.771,123.793,125.038,127.165,127.291,130.614z"/>
		<path fill-rule="evenodd" clip-rule="evenodd" fill="#FFFFFF" d="M215.087,253.705c21.312-4.119,34.487-24.19,31.835-42.971
			c3.331-0.281,6.551,0.294,9.692,1.186c13.828,3.924,22.842,17.583,21.126,31.894c-1.764,14.715-11.438,26.066-25.241,29.616
			c-15.482,3.982-32.268-4.635-37.229-19.113C215.203,254.117,215.15,253.913,215.087,253.705z"/>
		<path fill-rule="evenodd" clip-rule="evenodd" fill="#FFFFFF" d="M170.636,210.611c-1.203,10.996,1.482,20.366,7.921,28.618
			c6.401,8.205,14.859,12.976,25.282,14.583c-1.118,3.515-2.986,6.443-5.181,9.151c-12.177,15.024-36.529,15.226-49.024,0.462
			c-5.641-6.665-8.87-14.311-8.87-23.053c-0.001-13.329,8.999-25.167,21.451-28.449
			C164.865,211.226,167.654,211.061,170.636,210.611z"/>
		<path fill-rule="evenodd" clip-rule="evenodd" fill="#FFFFFF" d="M306.963,239.053c0.541-0.033,1.078-0.093,1.615-0.094
			c8.764-0.011,17.527,0.004,26.291-0.048c0.999-0.006,1.501,0.368,1.965,1.17c5.137,8.876,10.28,17.748,15.477,26.589
			c0.644,1.095,0.654,1.878-0.011,3.005c-4.961,8.393-9.85,16.83-14.706,25.284c-0.488,0.848-0.983,1.157-1.946,1.155
			c-10.717-0.031-21.435-0.003-32.152-0.055c-0.578-0.002-1.282-0.448-1.71-0.896c-2.578-2.698-2.503-5.048-0.311-8.42
			c6.321-9.719,9.332-20.561,8.695-32.248c-0.142-2.608-0.513-5.227-1.046-7.785C308.593,244.17,307.726,241.702,306.963,239.053z"
			/>
		<path fill-rule="evenodd" clip-rule="evenodd" fill="#FFFFFF" d="M286.692,225.695c3.301,0.107,6.568,0.179,9.829,0.362
			c0.441,0.025,0.934,0.55,1.261,0.958c9.083,11.318,12.867,24.128,10.275,38.496c-2.891,16.027-10.878,28.972-24.693,37.821
			c-14.371,9.205-29.611,11.31-45.566,4.182c-4.155-1.856-7.824-4.491-11.212-7.526c-0.77-0.689-1.006-1.332-0.858-2.425
			c0.592-4.381,1.007-8.787,1.482-13.139c0.445,0.363,1.132,0.896,1.789,1.464c11.381,9.851,27.882,10.253,40.229,3.285
			c14.473-8.167,22.581-20.777,24.715-37.066c1.203-9.182-0.869-17.855-6.56-25.427
			C287.124,226.337,286.889,225.978,286.692,225.695z"/>
		<path fill-rule="evenodd" clip-rule="evenodd" fill="#FFFFFF" d="M131.951,225.993c-3.325,4.05-5.664,8.945-6.729,14.384
			c-1.858,9.493-0.157,18.515,4.019,27.119c4.876,10.046,12.036,18.062,22.252,22.73c12.345,5.641,24.551,5.219,36.084-2.515
			c1.556-1.043,2.939-2.347,4.563-3.659c0,2.57-0.138,4.991,0.041,7.387c0.161,2.155,0.738,4.277,0.98,6.43
			c0.073,0.641-0.153,1.56-0.596,1.977c-7.146,6.739-15.655,10.823-25.412,11.533c-20.878,1.521-36.683-7.45-48.099-24.543
			c-5.554-8.316-8.635-17.608-9.085-27.649c-0.549-12.278,3.623-22.977,11.25-32.439c0.301-0.375,0.895-0.714,1.359-0.723
			C125.743,225.963,128.907,225.993,131.951,225.993z"/>
		<path fill-rule="evenodd" clip-rule="evenodd" fill="#FFFFFF" d="M111.928,239.154c-0.472,1.402-0.981,2.799-1.416,4.22
			c-3.771,12.336-2.255,24.303,2.84,35.899c1.628,3.705,3.863,7.15,5.938,10.645c0.513,0.865,0.374,1.385,0.038,2.232
			c-1.314,3.318-3.599,4.153-7.113,4.045c-9.368-0.287-18.75-0.127-28.127-0.066c-1.442,0.009-2.229-0.361-2.979-1.702
			c-4.566-8.169-9.241-16.28-13.959-24.363c-0.769-1.317-0.772-2.297,0.005-3.608c5.171-8.725,10.244-17.508,15.415-26.233
			c0.348-0.587,1.236-1.209,1.878-1.215c9.041-0.072,18.082-0.041,27.123-0.027C111.666,238.981,111.761,239.071,111.928,239.154z"
			/>
		<path fill-rule="evenodd" clip-rule="evenodd" fill="#FFFFFF" d="M211.095,177.345c0.271-11.871,10.953-26.689,28.489-27.176
			c17.349-0.481,30.634,12.842,30.899,29.535c0.257,16.115-11.921,27.971-23.831,28.847
			C241.524,190.466,230.042,179.66,211.095,177.345z"/>
		<path fill-rule="evenodd" clip-rule="evenodd" fill="#FFFFFF" d="M226.394,138.931c0.138-3.552,0.424-7.052,0.36-10.545
			c-0.047-2.547-0.445-5.105-0.903-7.62c-0.257-1.409,0.102-2.051,1.381-2.669c17.79-8.602,35.194-7.361,51.666,2.991
			c16.258,10.217,24.732,25.364,25.078,44.669c0.151,8.45-2.553,16.244-7.13,23.354c-0.234,0.364-0.703,0.77-1.096,0.808
			c-4.35,0.417-8.706,0.764-12.745,1.104c0.923-1.78,2.296-3.938,3.212-6.276c4.044-10.319,3.028-20.384-2.289-29.941
			c-6.676-12-16.689-19.746-30.324-22.319c-9.319-1.758-17.921,0.365-25.816,5.527C227.289,138.34,226.792,138.669,226.394,138.931z
			"/>
		<path fill-rule="evenodd" clip-rule="evenodd" fill="#FFFFFF" d="M207.894,177.275c-19.705,1.89-31.859,12.441-37.095,31.26
			c-11.569-1.272-23.392-13.106-22.955-28.77c0.484-17.36,14.111-29.817,30.438-29.577
			C196.76,150.46,207.715,165.936,207.894,177.275z"/>
		<path fill-rule="evenodd" clip-rule="evenodd" fill="#FFFFFF" d="M192.725,138.569c-3.966-1.749-7.835-3.928-11.983-5.188
			c-8.799-2.672-17.455-1.58-25.642,2.511c-12.641,6.315-20.839,16.375-24.254,30.089c-2.189,8.795-0.805,17.146,4.348,24.744
			c0.123,0.18,0.207,0.387,0.376,0.71c-2.595-0.457-5.063-0.941-7.55-1.308c-1.26-0.186-2.573-0.329-3.825-0.181
			c-1.365,0.162-1.979-0.419-2.59-1.499c-7.876-13.922-7.774-28.188-1.768-42.65c4.72-11.366,12.43-20.231,23.267-26.077
			c15.913-8.584,32.194-9.823,48.744-1.625c1.299,0.644,1.571,1.328,1.224,2.722C191.583,126.804,191.813,132.851,192.725,138.569z"
			/>
		<path fill-rule="evenodd" clip-rule="evenodd" fill="#FFFFFF" d="M335.492,207.595c-6.039-4.042-11.84-7.627-17.905-10.772
			c-6.109-3.168-12.475-5.63-19.465-6.554c1.195-2.345,2.404-4.511,3.416-6.765c0.818-1.824,1.53-3.719,2.042-5.647
			c0.364-1.375,1.042-1.656,2.346-1.644c6.917,0.064,13.834,0.037,20.752,0.038c2.678,0,5.356,0.024,8.033-0.028
			c0.926-0.018,1.499,0.22,2.002,1.083c5.574,9.581,11.183,19.142,16.837,28.675c0.521,0.876,0.402,1.438-0.068,2.234
			c-5.549,9.399-11.048,18.828-16.622,28.211c-0.313,0.527-1.17,1.035-1.777,1.04c-9.261,0.065-18.521,0.052-27.782,0.021
			c-0.487-0.002-1.212-0.182-1.426-0.528c-2.306-3.723-4.532-7.496-6.817-11.317C312.666,223.146,324.021,215.742,335.492,207.595z"
			/>
		<path fill-rule="evenodd" clip-rule="evenodd" fill="#FFFFFF" d="M119.747,225.638c-2.259,3.806-4.448,7.542-6.711,11.231
			c-0.22,0.358-0.903,0.609-1.372,0.611c-9.097,0.036-18.193,0.04-27.29-0.002c-0.501-0.002-1.229-0.327-1.467-0.729
			c-5.78-9.785-11.508-19.601-17.244-29.412c-0.027-0.046-0.032-0.106-0.033-0.108c5.788-9.887,11.573-19.732,17.302-29.611
			c0.578-0.996,1.188-1.392,2.35-1.387c9.487,0.045,18.974,0.04,28.461,0.004c1.071-0.004,1.461,0.34,1.832,1.383
			c1.505,4.232,3.187,8.401,4.822,12.641c-13.521,2.165-24.885,9.725-36.727,17.354C94.944,215.811,106.295,223.039,119.747,225.638
			z"/>
		<path fill-rule="evenodd" clip-rule="evenodd" fill="#FFFFFF" d="M145.892,221.163c-5.481,7.452-7.557,15.658-6.099,24.658
			c1.365,8.425,5.218,15.575,11.466,21.404c10.405,9.706,30.019,13.138,45.17,0.458c-1.018,3.274-2.447,6.487-2.946,9.839
			c-0.576,3.867-2.926,6.137-5.729,8.174c-11.572,8.411-24.058,9.132-36.416,2.64c-16.27-8.546-24.679-22.615-25.307-40.98
			c-0.278-8.123,2.619-15.414,8.021-21.599c0.321-0.367,0.688-0.795,1.12-0.947C138.669,223.582,142.186,222.415,145.892,221.163z"
			/>
		<path fill-rule="evenodd" clip-rule="evenodd" fill="#FFFFFF" d="M222.385,267.642c15.888,13.267,35.904,8.447,45.644-0.91
			c9.581-9.205,17.261-28.161,5.113-45.443c3.486,1.165,7.015,2.297,10.5,3.551c0.616,0.222,1.113,0.9,1.559,1.454
			c6.342,7.884,8.583,16.926,7.116,26.824c-1.947,13.138-8.266,23.847-19.013,31.661c-10.267,7.464-21.592,9.845-33.857,5.572
			c-4.875-1.698-8.979-4.671-12.525-8.406c-0.33-0.348-0.615-0.804-0.751-1.26c-1.225-4.099-2.411-8.209-3.607-12.316
			C222.505,268.167,222.464,267.962,222.385,267.642z"/>
		<path fill-rule="evenodd" clip-rule="evenodd" fill="#FFFFFF" d="M221.305,155.183c1.378-4.367,2.709-8.719,4.157-13.032
			c0.221-0.658,0.911-1.238,1.512-1.679c10.894-7.994,22.67-9.199,34.921-3.85c13.03,5.69,21.511,15.564,24.547,29.546
			c2.032,9.357,0.008,18.051-6.142,25.595c-0.305,0.374-0.69,0.766-1.124,0.939c-4.018,1.613-8.055,3.18-12.015,4.732
			c8.338-16.503,6.473-31.24-8.504-42.988C249.463,147.235,233.974,145.594,221.305,155.183z"/>
		<path fill-rule="evenodd" clip-rule="evenodd" fill="#FFFFFF" d="M291.367,129.396c-7.724-8.134-16.79-13.749-27.527-16.556
			c-10.713-2.801-21.292-2.29-32.169,1.604c1.224-2.049,2.181-3.697,3.183-5.318c3.896-6.307,7.825-12.594,11.691-18.919
			c0.505-0.826,1.048-1.102,1.993-1.099c11.155,0.033,22.311,0.031,33.466,0.013c0.904-0.001,1.507,0.171,2.017,1.057
			c4.922,8.544,9.886,17.063,14.887,25.561c0.62,1.053,0.624,1.784-0.114,2.815C296.275,122.076,293.888,125.692,291.367,129.396z"
			/>
		<path fill-rule="evenodd" clip-rule="evenodd" fill="#FFFFFF" d="M188.759,114.988c-10.993-4.455-21.729-4.932-32.618-2.118
			c-10.828,2.799-20.083,8.324-27.837,16.659c-2.488-3.796-4.926-7.443-7.249-11.162c-0.242-0.386,0.049-1.284,0.345-1.8
			c3.795-6.621,7.634-13.217,11.467-19.817c1.258-2.167,2.475-4.362,3.84-6.46c0.343-0.528,1.18-1.039,1.793-1.043
			c11.21-0.065,22.42-0.06,33.631-0.027c0.456,0.001,1.112,0.295,1.336,0.661C178.507,98.09,183.499,106.329,188.759,114.988z"/>
		<path fill-rule="evenodd" clip-rule="evenodd" fill="#FFFFFF" d="M151.576,197.585c-4.402-1.718-8.451-3.275-12.474-4.895
			c-0.531-0.214-1.02-0.68-1.383-1.143c-6.82-8.692-7.991-18.397-4.416-28.574c5.36-15.258,15.804-25.343,31.82-28.731
			c9.946-2.105,19.155,0.293,27.164,6.714c0.635,0.509,1.134,1.35,1.392,2.137c1.314,4.006,2.528,8.045,3.852,12.312
			c-6.245-4.744-13.156-6.997-20.814-6.677c-7.687,0.321-14.47,3.011-20.131,8.277c-5.64,5.246-8.938,11.735-9.973,19.371
			C145.582,183.974,147.364,190.944,151.576,197.585z"/>
		<path fill-rule="evenodd" clip-rule="evenodd" fill="#FFFFFF" d="M210.245,171.271c0-27.54,0-55.079,0-82.618
			c0.13-0.04,0.26-0.081,0.39-0.121c1.617,2.947,3.291,5.866,4.84,8.848c4.225,8.13,7.741,16.506,9.359,25.614
			c1.51,8.5,0.075,16.645-2.56,24.667c-1.058,3.219-2.426,6.337-3.667,9.497c-0.141,0.358-0.306,0.744-0.568,1.012
			C214.402,161.902,212.052,166.381,210.245,171.271z"/>
		<path fill-rule="evenodd" clip-rule="evenodd" fill="#FFFFFF" d="M208.602,88.114c0,27.996,0,55.58,0,82.621
			c-1.425-2.627-2.61-6.07-4.824-8.619c-4.11-4.733-5.934-10.373-7.716-16.095c-2.699-8.666-3.522-17.453-1.33-26.386
			c2.357-9.603,6.414-18.494,11.267-27.054C206.782,91.198,207.599,89.833,208.602,88.114z"/>
		<path fill-rule="evenodd" clip-rule="evenodd" fill="#FFFFFF" d="M298.11,292.217c0.097,0.116,0.219,0.231,0.304,0.368
			c0.935,1.517,2.561,3.021,2.596,4.561c0.035,1.526-1.508,3.104-2.406,4.632c-4.432,7.544-8.896,15.071-13.299,22.632
			c-0.549,0.943-1.166,1.286-2.248,1.284c-11.048-0.024-22.097,0.013-33.145-0.017c-0.564-0.002-1.416-0.307-1.647-0.734
			c-2.541-4.695-4.985-9.442-7.546-14.349C264.135,317.456,282.598,309.624,298.11,292.217z"/>
		<path fill-rule="evenodd" clip-rule="evenodd" fill="#FFFFFF" d="M120.824,292.401c15.584,17.545,34.208,24.902,57.436,18.236
			c-0.109,0.292-0.201,0.632-0.358,0.938c-2.239,4.366-4.458,8.742-6.771,13.069c-0.27,0.504-1.063,1.034-1.617,1.036
			c-11.326,0.054-22.651,0.046-33.977-0.014c-0.517-0.002-1.237-0.484-1.514-0.95c-5.274-8.859-10.501-17.746-15.709-26.644
			c-0.214-0.366-0.349-1.013-0.17-1.334C118.976,295.246,119.931,293.822,120.824,292.401z"/>
		<path fill-rule="evenodd" clip-rule="evenodd" fill="#FFFFFF" d="M255.26,208.054c3.097-2.347,5.976-4.707,9.033-6.807
			c6.002-4.125,12.859-6.328,19.748-8.412c5.794-1.752,11.703-2.053,17.502-0.396c4.799,1.372,9.608,2.965,14.088,5.129
			c5.353,2.585,10.361,5.882,15.514,8.878c0.072,0.042,0.087,0.183,0.226,0.5C305.937,207.317,280.6,207.685,255.26,208.054z"/>
		<path fill-rule="evenodd" clip-rule="evenodd" fill="#FFFFFF" d="M87.878,206.608c1.951-1.216,3.898-2.44,5.855-3.648
			c5.889-3.634,11.988-6.799,18.54-9.136c8.379-2.99,16.708-3.118,25.038-0.116c4.446,1.602,8.79,3.49,13.164,5.289
			c0.817,0.336,1.62,0.78,2.323,1.313c3.345,2.536,6.654,5.12,10.022,7.723c-24.874-0.366-49.848-0.733-74.822-1.1
			C87.958,206.825,87.918,206.716,87.878,206.608z"/>
		<path fill-rule="evenodd" clip-rule="evenodd" fill="#FFFFFF" d="M331.289,208.399c-10.938,7.795-22.146,14.978-35.983,16.105
			c-5.477,0.446-10.766-0.752-15.899-2.562c-2.78-0.979-5.479-2.191-8.206-3.317c-0.406-0.168-0.837-0.368-1.144-0.668
			c-4.789-4.694-10.59-7.287-17.148-8.334c-0.101-0.016-0.195-0.075-0.271-0.106C278.843,209.146,305.066,208.772,331.289,208.399z"
			/>
		<path fill-rule="evenodd" clip-rule="evenodd" fill="#FFFFFF" d="M165.274,209.499c-2.431,0.844-5.964,1.953-9.396,3.316
			c-1.525,0.606-3.031,1.53-4.228,2.649c-4.448,4.161-10.075,5.801-15.644,7.54c-9.224,2.88-18.172,1.565-26.934-2.032
			c-7.675-3.151-14.651-7.506-21.344-12.591C113.973,208.76,140.217,209.138,165.274,209.499z"/>
		<path fill-rule="evenodd" clip-rule="evenodd" fill="#FFFFFF" d="M208.67,254.249c0,24.215,0,48.313,0,72.823
			c-0.611-0.969-1.061-1.661-1.49-2.366c-4.112-6.764-7.93-13.654-10.741-21.105c-3.923-10.4-3.768-20.7-0.038-31.056
			c0.717-1.99,1.379-4.004,2.194-5.954c0.508-1.214,1.23-2.343,1.901-3.484c1.325-2.255,2.779-4.44,3.998-6.75
			C205.805,253.87,205.714,253.822,208.67,254.249z"/>
		<path fill-rule="evenodd" clip-rule="evenodd" fill="#FFFFFF" d="M210.312,254.094c0.344-0.066,0.507-0.088,0.667-0.13
			c1.798-0.469,2.763,0.125,3.384,1.991c0.607,1.821,1.554,3.616,2.711,5.152c4.465,5.933,6.102,12.928,7.643,19.935
			c2.192,9.963-0.387,19.286-4.586,28.19c-2.678,5.679-5.943,11.081-8.951,16.604c-0.173,0.318-0.403,0.605-0.867,1.294
			C210.312,302.511,210.312,278.349,210.312,254.094z"/>
		<path fill-rule="evenodd" clip-rule="evenodd" d="M229.497,216.015c-0.035,11.194-9.661,20.706-20.931,20.683
			c-11.27-0.023-20.718-9.687-20.657-21.129c0.06-11.174,9.524-20.407,20.909-20.396
			C220.113,195.185,229.532,204.679,229.497,216.015z M208.54,235.188c10.364,0.094,19.442-8.715,19.563-18.983
			c0.124-10.484-8.779-19.562-19.255-19.635c-10.539-0.073-19.438,8.637-19.554,19.137
			C189.181,226.078,198.086,235.092,208.54,235.188z"/>
		<path fill-rule="evenodd" clip-rule="evenodd" fill="#FFFFFF" d="M208.54,235.188c-10.454-0.095-19.359-9.109-19.246-19.481
			c0.115-10.5,9.015-19.21,19.554-19.137c10.477,0.073,19.379,9.151,19.255,19.635C227.982,226.472,218.904,235.282,208.54,235.188z
			"/>
	</g>
</g>
</svg>
